STARTFONT 2.1
FONT -FontForge-Good Times Rg-Book-R-Normal--132-1270-75-75-P-980-ISO10646-1
SIZE 127 75 75
FONTBOUNDINGBOX 263 156 -37 -27
COMMENT "Generated by fontforge, http://fontforge.sourceforge.net"
COMMENT "(c) 1998-2012 Typodermic Fonts Inc. See attached license agreement. If agreement is missing visit typodermicfonts.com for more info. Languages by Chikako Larabie"
STARTPROPERTIES 39
FOUNDRY "FontForge"
FAMILY_NAME "Good Times Rg"
WEIGHT_NAME "Book"
SLANT "R"
SETWIDTH_NAME "Normal"
ADD_STYLE_NAME ""
PIXEL_SIZE 132
POINT_SIZE 1270
RESOLUTION_X 75
RESOLUTION_Y 75
SPACING "P"
AVERAGE_WIDTH 980
CHARSET_REGISTRY "ISO10646"
CHARSET_ENCODING "1"
FONTNAME_REGISTRY ""
CHARSET_COLLECTIONS "ISO8859-2 ISO8859-9 ISO8859-4 ISO10646-1"
FONT_NAME "GoodTimesRg-Regular"
FACE_NAME "GoodTimesRg-Regular"
COPYRIGHT "(c) 1998-2012 Typodermic Fonts Inc. See attached license agreement. If agreement is missing visit typodermicfonts.com for more info. Languages by Chikako Larabie"
FONT_VERSION "4.001"
FONT_ASCENT 105
FONT_DESCENT 27
UNDERLINE_POSITION -19
UNDERLINE_THICKNESS 3
X_HEIGHT 95
CAP_HEIGHT 95
RAW_ASCENT 799
RAW_DESCENT 201
NORM_SPACE 39
RELATIVE_WEIGHT 40
RELATIVE_SETWIDTH 50
SUPERSCRIPT_X 0
SUPERSCRIPT_Y 39
SUPERSCRIPT_SIZE 39
SUBSCRIPT_X 0
SUBSCRIPT_Y 0
SUBSCRIPT_SIZE 39
AVG_LOWERCASE_WIDTH 1124
AVG_UPPERCASE_WIDTH 1120
ENDPROPERTIES
CHARS 372
STARTCHAR space
ENCODING 32
SWIDTH 294 0
DWIDTH 39 0
BBX 1 1 0 0
BITMAP
00
ENDCHAR
STARTCHAR exclam
ENCODING 33
SWIDTH 298 0
DWIDTH 39 0
BBX 18 96 11 0
BITMAP
7FFF80
7FFF80
7FFF80
7FFF80
7FFF80
7FFF80
7FFF80
7FFF80
7FFF80
7FFF80
7FFF80
7FFF80
7FFF80
7FFF80
7FFF80
7FFF80
7FFF80
7FFF80
7FFF80
7FFF80
7FFF80
7FFF80
7FFF80
7FFF80
7FFF80
7FFF80
7FFF80
7FFF80
7FFF80
7FFF80
7FFF80
7FFF80
7FFF80
7FFF80
7FFF80
7FFF80
7FFF80
7FFF80
7FFF80
7FFF80
7FFF80
7FFF80
7FFF80
7FFF80
7FFF80
7FFF80
7FFF80
7FFF80
7FFF80
7FFF80
7FFF80
7FFF80
7FFF80
7FFF80
7FFF80
7FFF80
7FFF80
7FFF80
7FFF80
7FFF80
7FFF80
7FFF80
7FFF80
7FFF80
7FFF80
000000
000000
000000
000000
000000
000000
000000
000000
000000
000000
000000
000000
000000
03F000
0FFC00
1FFE00
3FFF00
7FFF80
7FFF80
FFFFC0
FFFFC0
FFFFC0
FFFFC0
FFFFC0
FFFFC0
7FFF80
7FFF80
3FFF00
1FFE00
0FFC00
03F000
ENDCHAR
STARTCHAR quotedbl
ENCODING 34
SWIDTH 452 0
DWIDTH 60 0
BBX 42 34 9 62
BITMAP
FFFF807FFFC0
FFFF807FFFC0
FFFF807FFF80
FFFF807FFF80
FFFF807FFF80
FFFF807FFF80
7FFF007FFF80
7FFF007FFF80
7FFF007FFF80
7FFF003FFF80
7FFF003FFF80
7FFF003FFF80
7FFF003FFF80
7FFF003FFF00
7FFF003FFF00
7FFF003FFF00
7FFF003FFF00
3FFE003FFF00
3FFE003FFF00
3FFE003FFF00
3FFE001FFF00
3FFE001FFF00
3FFE001FFF00
3FFE001FFF00
3FFE001FFF00
3FFE001FFE00
3FFE001FFE00
3FFE001FFE00
1FFC001FFE00
1FFC001FFE00
1FFC000FFE00
1FFC000FFE00
1FFC000FFE00
1FFC000FFE00
ENDCHAR
STARTCHAR numbersign
ENCODING 35
SWIDTH 697 0
DWIDTH 92 0
BBX 81 96 6 0
BITMAP
000000007FF80000FFF000
00000000FFF00000FFF000
00000000FFF00000FFF000
00000000FFF00001FFE000
00000001FFF00001FFE000
00000001FFE00001FFE000
00000001FFE00003FFC000
00000001FFE00003FFC000
00000003FFC00003FFC000
00000003FFC00003FF8000
00000003FFC00007FF8000
00000007FF800007FF8000
00000007FF800007FF8000
00000007FF80000FFF0000
00000007FF80000FFF0000
0000000FFF00000FFF0000
0000000FFF00001FFE0000
0000000FFF00001FFE0000
0000001FFE00001FFE0000
0000001FFE00001FFC0000
0000001FFE00003FFC0000
0000003FFC00003FFC0000
0000003FFC00003FFC0000
0000003FFC00007FF80000
0000003FFC00007FF80000
003FFFFFFFFFFFFFFFFF80
003FFFFFFFFFFFFFFFFF80
003FFFFFFFFFFFFFFFFF80
003FFFFFFFFFFFFFFFFF80
003FFFFFFFFFFFFFFFFF80
003FFFFFFFFFFFFFFFFF80
003FFFFFFFFFFFFFFFFF80
003FFFFFFFFFFFFFFFFF80
003FFFFFFFFFFFFFFFFF80
003FFFFFFFFFFFFFFFFF80
003FFFFFFFFFFFFFFFFF80
000003FFC00007FF800000
000003FF800007FF800000
000007FF800007FF800000
000007FF80000FFF000000
000007FF80000FFF000000
00000FFF00000FFF000000
00000FFF00000FFE000000
00000FFF00001FFE000000
00001FFE00001FFE000000
00001FFE00001FFE000000
00001FFE00003FFC000000
00001FFC00003FFC000000
00003FFC00003FFC000000
00003FFC00007FF8000000
00003FFC00007FF8000000
00007FF800007FF8000000
00007FF800007FF0000000
00007FF80000FFF0000000
0000FFF00000FFF0000000
0000FFF00000FFF0000000
0000FFF00001FFE0000000
0000FFE00001FFE0000000
0001FFE00001FFE0000000
FFFFFFFFFFFFFFFFFE0000
FFFFFFFFFFFFFFFFFE0000
FFFFFFFFFFFFFFFFFE0000
FFFFFFFFFFFFFFFFFE0000
FFFFFFFFFFFFFFFFFE0000
FFFFFFFFFFFFFFFFFE0000
FFFFFFFFFFFFFFFFFE0000
FFFFFFFFFFFFFFFFFE0000
FFFFFFFFFFFFFFFFFE0000
FFFFFFFFFFFFFFFFFE0000
FFFFFFFFFFFFFFFFFE0000
000FFE00001FFE00000000
001FFE00001FFE00000000
001FFE00003FFC00000000
001FFE00003FFC00000000
003FFC00003FFC00000000
003FFC00003FF800000000
003FFC00007FF800000000
007FF800007FF800000000
007FF800007FF800000000
007FF80000FFF000000000
007FF00000FFF000000000
00FFF00000FFF000000000
00FFF00001FFE000000000
00FFF00001FFE000000000
01FFE00001FFE000000000
01FFE00001FFC000000000
01FFE00003FFC000000000
01FFC00003FFC000000000
03FFC00003FFC000000000
03FFC00007FF8000000000
03FF800007FF8000000000
07FF800007FF8000000000
07FF80000FFF0000000000
07FF80000FFF0000000000
0FFF00000FFF0000000000
0FFF00001FFE0000000000
ENDCHAR
STARTCHAR dollar
ENCODING 36
SWIDTH 744 0
DWIDTH 98 0
BBX 82 96 8 0
BITMAP
0000000003F80000000000
0000000003F80000000000
0000000003F80000000000
0000000003F80000000000
0000000003F80000000000
0000000003F80000000000
0000000003F80000000000
0000000003F80000000000
0000000003F80000000000
0000000003F80000000000
00007FFFFFFFFFFFFFFE00
0007FFFFFFFFFFFFFFFE00
001FFFFFFFFFFFFFFFFE00
007FFFFFFFFFFFFFFFFE00
00FFFFFFFFFFFFFFFFFE00
03FFFFFFFFFFFFFFFFFE00
07FFFFFFFFFFFFFFFFFE00
0FFFFFFFFFFFFFFFFFFE00
1FFFFFFFFFFFFFFFFFFE00
1FFFFFFFFFFFFFFFFFFE00
3FFFFFFFFFFFFFFFFFFE00
3FFFFFFFFFFFFFFFFFFE00
7FFFFFFFFFFFFFFFFFFE00
7FFFF00003F80000000000
FFFF800003F80000000000
FFFF000003F80000000000
FFFE000003F80000000000
FFFE000003F80000000000
FFFC000003F80000000000
FFFC000003F80000000000
FFFC000003F80000000000
FFFC000003F80000000000
FFFC000003F80000000000
FFFC000003F80000000000
FFFC000003F80000000000
FFFC000003F80000000000
FFFC000003F80000000000
FFFE000003F80000000000
7FFE000003F80000000000
7FFF000003F80000000000
7FFF800003F80000000000
3FFFF00003F80000000000
3FFFFFFFFFFFFFFF800000
1FFFFFFFFFFFFFFFF80000
0FFFFFFFFFFFFFFFFF0000
07FFFFFFFFFFFFFFFFC000
07FFFFFFFFFFFFFFFFE000
01FFFFFFFFFFFFFFFFF000
00FFFFFFFFFFFFFFFFF800
007FFFFFFFFFFFFFFFFC00
001FFFFFFFFFFFFFFFFE00
0003FFFFFFFFFFFFFFFF00
00007FFFFFFFFFFFFFFF00
0000000003F80001FFFF80
0000000003F800007FFF80
0000000003F800001FFF80
0000000003F800000FFFC0
0000000003F800000FFFC0
0000000003F8000007FFC0
0000000003F8000007FFC0
0000000003F8000007FFC0
0000000003F8000003FFC0
0000000003F8000003FFC0
0000000003F8000003FFC0
0000000003F8000003FFC0
0000000003F8000007FFC0
0000000003F8000007FFC0
0000000003F8000007FFC0
0000000003F800000FFFC0
0000000003F800000FFFC0
0000000003F800001FFFC0
0000000003F800007FFFC0
0000000003F80001FFFF80
7FFFFFFFFFFFFFFFFFFF80
7FFFFFFFFFFFFFFFFFFF80
7FFFFFFFFFFFFFFFFFFF00
7FFFFFFFFFFFFFFFFFFF00
7FFFFFFFFFFFFFFFFFFE00
7FFFFFFFFFFFFFFFFFFC00
7FFFFFFFFFFFFFFFFFFC00
7FFFFFFFFFFFFFFFFFF800
7FFFFFFFFFFFFFFFFFE000
7FFFFFFFFFFFFFFFFFC000
7FFFFFFFFFFFFFFFFF8000
7FFFFFFFFFFFFFFFFE0000
7FFFFFFFFFFFFFFFF80000
7FFFFFFFFFFFFFFF800000
0000000003F80000000000
0000000003F80000000000
0000000003F80000000000
0000000003F80000000000
0000000003F80000000000
0000000003F80000000000
0000000003F80000000000
0000000003F80000000000
0000000003F80000000000
ENDCHAR
STARTCHAR percent
ENCODING 37
SWIDTH 965 0
DWIDTH 127 0
BBX 116 111 6 -9
BITMAP
000000000000000000000003FF8000
000000000000000000000007FF0000
00000000000000000000000FFE0000
00000000000000000000001FFC0000
00001FFC000000000000003FFC0000
0001FFFF800000000000003FF80000
0007FFFFF00000000000007FF00000
001FFFFFFC000000000000FFE00000
007FFFFFFE000000000001FFE00000
00FFFFFFFF800000000003FFC00000
01FFFFFFFFC00000000003FF800000
03FFFFFFFFE00000000007FF000000
07FFF007FFF0000000000FFE000000
0FFF0000FFF8000000001FFE000000
0FFE00003FF8000000001FFC000000
1FF800001FFC000000003FF8000000
3FF000000FFC000000007FF0000000
3FE0000007FE00000000FFE0000000
7FE0000003FE00000001FFE0000000
7FC0000001FF00000001FFC0000000
7FC0000001FF00000003FF80000000
FF80000000FF00000007FF00000000
FF80000000FF8000000FFF00000000
FF00000000FF8000001FFE00000000
FF00000000FF8000001FFC00000000
FF000000007F8000003FF800000000
FF000000007F8000007FF000000000
FF000000007F800000FFF000000000
FF000000007F800000FFE000000000
FF000000007F800001FFC000000000
FF000000007F800003FF8000000000
FF000000007F800007FF8000000000
FF00000000FF80000FFF0000000000
FF00000000FF80000FFE0000000000
FF80000000FF00001FFC0000000000
7F80000000FF00003FF80000000000
7FC0000001FF00007FF80000000000
7FC0000001FF0000FFF00000000000
3FE0000003FE0000FFE00000000000
3FE0000007FE0001FFC00000000000
1FF000000FFC0003FF800000000000
1FF800001FF80007FF800000000000
0FFE00003FF80007FF000000000000
07FF8000FFF0000FFE000000000000
03FFF007FFE0001FFC000000000000
03FFFFFFFFC0003FFC000000000000
01FFFFFFFF80007FF8000000000000
007FFFFFFF00007FF0000000000000
003FFFFFFE0000FFE0000000000000
001FFFFFF80001FFC0000000000000
0007FFFFE00003FFC0000000000000
0000FFFF800007FF80000000000000
00001FFC000007FF00000000000000
0000000000000FFE00000000000000
0000000000001FFE00000000000000
0000000000003FFC000003FF000000
0000000000003FF800003FFFF00000
0000000000007FF00001FFFFFC0000
000000000000FFE00007FFFFFF0000
000000000001FFE0000FFFFFFFC000
000000000003FFC0001FFFFFFFE000
000000000003FF80007FFFFFFFF000
000000000007FF0000FFFFFFFFF800
00000000000FFE0000FFFC00FFFC00
00000000001FFE0001FFE0001FFE00
00000000003FFC0003FF80000FFF00
00000000003FF80007FF000003FF00
00000000007FF00007FE000001FF80
0000000000FFF0000FFC000000FF80
0000000001FFE0000FF80000007FC0
0000000001FFC0000FF80000007FC0
0000000003FF80001FF00000003FE0
0000000007FF00001FF00000003FE0
000000000FFF00001FE00000003FE0
000000001FFE00003FE00000001FE0
000000001FFC00003FE00000001FF0
000000003FF800003FE00000001FF0
000000007FF800003FC00000001FF0
00000000FFF000003FC00000001FF0
00000000FFE000003FC00000001FF0
00000001FFC000003FC00000001FF0
00000003FF8000003FC00000001FF0
00000007FF8000003FE00000001FF0
0000000FFF0000003FE00000001FE0
0000000FFE0000001FE00000001FE0
0000001FFC0000001FE00000003FE0
0000003FF80000001FF00000003FE0
0000007FF80000001FF00000003FC0
000000FFF00000000FF80000007FC0
000000FFE00000000FF8000000FFC0
000001FFC000000007FC000000FF80
000003FFC000000007FE000001FF80
000007FF8000000003FF000003FF00
000007FF0000000001FF80000FFE00
00000FFE0000000001FFE0001FFE00
00001FFC0000000000FFFC00FFFC00
00003FFC00000000007FFFFFFFF800
00007FF800000000003FFFFFFFF000
00007FF000000000001FFFFFFFE000
0000FFE000000000000FFFFFFF8000
0001FFE0000000000003FFFFFF0000
0003FFC0000000000000FFFFFC0000
0007FF800000000000003FFFF00000
0007FF0000000000000003FF000000
000FFE000000000000000000000000
001FFE000000000000000000000000
003FFC000000000000000000000000
003FF8000000000000000000000000
007FF0000000000000000000000000
00FFE0000000000000000000000000
01FFE0000000000000000000000000
ENDCHAR
STARTCHAR ampersand
ENCODING 38
SWIDTH 759 0
DWIDTH 100 0
BBX 90 96 6 0
BITMAP
0000003FFFFFF00000000000
000007FFFFFFF00000000000
00003FFFFFFFF00000000000
0001FFFFFFFFF00000000000
0007FFFFFFFFF00000000000
000FFFFFFFFFF00000000000
003FFFFFFFFFF00000000000
007FFFFFFFFFF00000000000
00FFFFFFFFFFF00000000000
01FFFFFFFFFFF00000000000
01FFFFFFFFFFF00000000000
03FFFFFFFFFFF00000000000
07FFFFFFFFFFF00000000000
07FFFFFFFFFFF00000000000
0FFFFFFFFFFFF00000000000
0FFFFFFFFFFFF00000000000
1FFFFFFFFFFFF00000000000
1FFFFFE00000000000000000
1FFFFF000000000000000000
1FFFFE000000000000000000
1FFFFC000000000000000000
3FFFF8000000000000000000
3FFFF0000000000000000000
3FFFF0000000000000000000
3FFFF0000000000000000000
3FFFE0000000000000000000
3FFFE0000000000000000000
3FFFE0000000000000000000
3FFFE0000000000000000000
1FFFE0000000000000000000
1FFFE0000000000000000000
1FFFE0000000000000000000
1FFFF0000000000000000000
1FFFF0000000000000000000
0FFFF8000000000000000000
0FFFF8000000000000000000
07FFFC000000000000000000
07FFFE000000000000000000
03FFFF800000000000000000
01FFFFF00000000000000000
00FFFFFFFFFFFFFFFFFFF000
007FFFFFFFFFFFFFFFFFF000
003FFFFFFFFFFFFFFFFFF000
000FFFFFFFFFFFFFFFFFF000
0003FFFFFFFFFFFFFFFFF000
0001FFFFFFFFFFFFFFFFF000
000FFFFFFFFFFFFFFFFFF000
001FFFFFFFFFFFFFFFFFF000
007FFFFFFFFFFFFFFFFFF000
00FFFFFFFFFFFFFFFFFFF000
01FFFFFFFFFFFFFFFFFFF000
03FFFFFFFFFFFFFFFFFFF000
07FFFFFFFFFFFFFFFFFFF000
0FFFFFFFFFFFFFFFFFFFF000
0FFFFFF0000000FFFF800000
1FFFFF00000000FFFF800000
1FFFFC00000000FFFF800000
3FFFF800000000FFFF800000
3FFFF000000000FFFF800000
7FFFE000000000FFFF800000
7FFFC000000000FFFF800000
7FFFC000000000FFFF800000
7FFFC000000000FFFF800000
7FFFC000000000FFFF800000
7FFF8000000000FFFF800000
FFFF8000000000FFFF800000
FFFF8000000000FFFF800000
FFFF8000000000FFFF800000
7FFF8000000000FFFF800000
7FFFC000000000FFFF800000
7FFFC000000000FFFF800000
7FFFC000000000FFFF800000
7FFFE000000000FFFF800000
7FFFE000000000FFFF800000
7FFFF000000000FFFF800000
3FFFF800000000FFFF800000
3FFFFE00000000FFFF800000
3FFFFF00000000FFFF800000
1FFFFFE0000000FFFF800000
1FFFFFFFFFFFFFFFFFFFFFC0
1FFFFFFFFFFFFFFFFFFFFFC0
0FFFFFFFFFFFFFFFFFFFFFC0
0FFFFFFFFFFFFFFFFFFFFFC0
07FFFFFFFFFFFFFFFFFFFFC0
03FFFFFFFFFFFFFFFFFFFFC0
03FFFFFFFFFFFFFFFFFFFFC0
01FFFFFFFFFFFFFFFFFFFFC0
00FFFFFFFFFFFFFFFFFFFFC0
007FFFFFFFFFFFFFFFFFFFC0
003FFFFFFFFFFFFFFFFFFFC0
000FFFFFFFFFFFFFFFFFFFC0
0007FFFFFFFFFFFFFFFFFFC0
0001FFFFFFFFFFFFFFFFFFC0
00007FFFFFFFFFFFFFFFFFC0
00000FFFFFFFFFFFFFFFFFC0
000000FFFFFFFFFFFFFFFFC0
ENDCHAR
STARTCHAR quotesingle
ENCODING 39
SWIDTH 255 0
DWIDTH 34 0
BBX 17 34 8 62
BITMAP
FFFF80
FFFF80
7FFF80
7FFF80
7FFF80
7FFF80
7FFF80
7FFF80
7FFF80
7FFF00
7FFF00
7FFF00
7FFF00
3FFF00
3FFF00
3FFF00
3FFF00
3FFF00
3FFF00
3FFF00
3FFE00
3FFE00
3FFE00
1FFE00
1FFE00
1FFE00
1FFE00
1FFE00
1FFE00
1FFE00
1FFE00
1FFC00
1FFC00
1FFC00
ENDCHAR
STARTCHAR parenleft
ENCODING 40
SWIDTH 356 0
DWIDTH 47 0
BBX 27 121 12 -12
BITMAP
0003FFE0
0003FFC0
0007FF80
0007FF80
000FFF80
000FFF00
000FFF00
001FFE00
001FFE00
001FFE00
003FFC00
003FFC00
007FF800
007FF800
007FF800
00FFF000
00FFF000
00FFF000
01FFE000
01FFE000
01FFC000
03FFC000
03FFC000
03FFC000
07FF8000
07FF8000
07FF8000
07FF0000
0FFF0000
0FFF0000
0FFE0000
0FFE0000
1FFE0000
1FFE0000
1FFC0000
1FFC0000
1FFC0000
3FFC0000
3FF80000
3FF80000
3FF80000
3FF80000
3FF80000
7FF80000
7FF00000
7FF00000
7FF00000
7FF00000
7FF00000
7FF00000
7FF00000
7FE00000
7FE00000
7FE00000
7FE00000
FFE00000
FFE00000
FFE00000
FFE00000
FFE00000
FFE00000
FFE00000
FFE00000
FFE00000
FFE00000
7FE00000
7FE00000
7FE00000
7FE00000
7FE00000
7FF00000
7FF00000
7FF00000
7FF00000
7FF00000
7FF00000
7FF00000
3FF00000
3FF80000
3FF80000
3FF80000
3FF80000
3FF80000
3FFC0000
1FFC0000
1FFC0000
1FFC0000
1FFC0000
0FFE0000
0FFE0000
0FFE0000
0FFE0000
0FFF0000
07FF0000
07FF0000
07FF8000
03FF8000
03FF8000
03FF8000
03FFC000
01FFC000
01FFE000
01FFE000
00FFE000
00FFF000
00FFF000
007FF000
007FF800
003FF800
003FFC00
003FFC00
001FFC00
001FFE00
000FFE00
000FFF00
000FFF00
0007FF80
0007FF80
0003FF80
0003FFC0
0001FFE0
ENDCHAR
STARTCHAR parenright
ENCODING 41
SWIDTH 355 0
DWIDTH 47 0
BBX 27 121 8 -12
BITMAP
7FF80000
7FF80000
3FFC0000
3FFC0000
3FFC0000
1FFE0000
1FFE0000
0FFF0000
0FFF0000
0FFF0000
07FF8000
07FF8000
03FF8000
03FFC000
03FFC000
01FFC000
01FFE000
00FFE000
00FFE000
00FFF000
007FF000
007FF000
007FF800
007FF800
003FF800
003FFC00
003FFC00
001FFC00
001FFC00
001FFE00
000FFE00
000FFE00
000FFE00
000FFF00
0007FF00
0007FF00
0007FF00
0007FF00
0007FF80
0003FF80
0003FF80
0003FF80
0003FF80
0003FF80
0001FFC0
0001FFC0
0001FFC0
0001FFC0
0001FFC0
0001FFC0
0001FFC0
0001FFC0
0001FFC0
0000FFC0
0000FFC0
0000FFC0
0000FFE0
0000FFE0
0000FFE0
0000FFE0
0000FFE0
0000FFE0
0000FFE0
0000FFE0
0000FFE0
0000FFC0
0000FFC0
0001FFC0
0001FFC0
0001FFC0
0001FFC0
0001FFC0
0001FFC0
0001FFC0
0001FFC0
0001FFC0
0003FFC0
0003FF80
0003FF80
0003FF80
0003FF80
0003FF80
0007FF80
0007FF00
0007FF00
0007FF00
0007FF00
000FFF00
000FFE00
000FFE00
000FFE00
001FFE00
001FFE00
001FFC00
001FFC00
003FFC00
003FF800
003FF800
007FF800
007FF800
007FF000
00FFF000
00FFF000
00FFE000
01FFE000
01FFE000
03FFC000
03FFC000
03FF8000
07FF8000
07FF8000
0FFF0000
0FFF0000
0FFE0000
1FFE0000
1FFE0000
3FFC0000
3FFC0000
7FF80000
7FF80000
FFF00000
ENDCHAR
STARTCHAR asterisk
ENCODING 42
SWIDTH 469 0
DWIDTH 62 0
BBX 46 43 8 53
BITMAP
00001FE00000
00001FE00000
00001FE00000
00001FE00000
00001FE00000
00001FE00000
00001FE00000
00001FE00000
00001FE00000
00001FE00000
00001FE00000
00001FE00000
38001FE00060
3F001FE003F0
3FE01FE01FF0
3FFC1FE1FFF0
7FFFDFEFFFF8
7FFFFFFFFFF8
7FFFFFFFFFF8
FFFFFFFFFFFC
0FFFFFFFFFC0
01FFFFFFFC00
001FFFFFE000
0003FFFF0000
0000FFF80000
0000FFFC0000
0001FFFE0000
0003FFFE0000
0003FFFF0000
0007FDFF8000
000FFCFFC000
001FF87FC000
001FF07FE000
003FF03FF000
007FE01FF000
007FC00FF800
00FFC00FFC00
01FF8007FE00
01FF0003FE00
00FE0003FC00
007E0001F800
003C0000F000
000800004000
ENDCHAR
STARTCHAR plus
ENCODING 43
SWIDTH 690 0
DWIDTH 91 0
BBX 75 75 8 11
BITMAP
00000000FFE000000000
00000000FFE000000000
00000000FFE000000000
00000000FFE000000000
00000000FFE000000000
00000000FFE000000000
00000000FFE000000000
00000000FFE000000000
00000000FFE000000000
00000000FFE000000000
00000000FFE000000000
00000000FFE000000000
00000000FFE000000000
00000000FFE000000000
00000000FFE000000000
00000000FFE000000000
00000000FFE000000000
00000000FFE000000000
00000000FFE000000000
00000000FFE000000000
00000000FFE000000000
00000000FFE000000000
00000000FFE000000000
00000000FFE000000000
00000000FFE000000000
00000000FFE000000000
00000000FFE000000000
00000000FFE000000000
00000000FFE000000000
00000000FFE000000000
00000000FFE000000000
00000000FFE000000000
FFFFFFFFFFFFFFFFFFE0
FFFFFFFFFFFFFFFFFFE0
FFFFFFFFFFFFFFFFFFE0
FFFFFFFFFFFFFFFFFFE0
FFFFFFFFFFFFFFFFFFE0
FFFFFFFFFFFFFFFFFFE0
FFFFFFFFFFFFFFFFFFE0
FFFFFFFFFFFFFFFFFFE0
FFFFFFFFFFFFFFFFFFE0
FFFFFFFFFFFFFFFFFFE0
FFFFFFFFFFFFFFFFFFE0
00000000FFE000000000
00000000FFE000000000
00000000FFE000000000
00000000FFE000000000
00000000FFE000000000
00000000FFE000000000
00000000FFE000000000
00000000FFE000000000
00000000FFE000000000
00000000FFE000000000
00000000FFE000000000
00000000FFE000000000
00000000FFE000000000
00000000FFE000000000
00000000FFE000000000
00000000FFE000000000
00000000FFE000000000
00000000FFE000000000
00000000FFE000000000
00000000FFE000000000
00000000FFE000000000
00000000FFE000000000
00000000FFE000000000
00000000FFE000000000
00000000FFE000000000
00000000FFE000000000
00000000FFE000000000
00000000FFE000000000
00000000FFE000000000
00000000FFE000000000
00000000FFE000000000
00000000FFE000000000
ENDCHAR
STARTCHAR comma
ENCODING 44
SWIDTH 259 0
DWIDTH 34 0
BBX 17 34 9 -16
BITMAP
FFFF80
FFFF80
FFFF00
FFFF00
FFFF00
FFFF00
FFFF00
FFFE00
FFFE00
FFFE00
FFFE00
FFFE00
FFFC00
FFFC00
FFFC00
FFFC00
FFFC00
FFF800
FFF800
FFF800
FFF800
FFF800
FFF800
FFF000
FFF000
FFF000
FFF000
FFF000
FFE000
FFE000
FFE000
FFE000
FFE000
FFC000
ENDCHAR
STARTCHAR hyphen
ENCODING 45
SWIDTH 296 0
DWIDTH 39 0
BBX 32 11 4 43
BITMAP
FFFFFFFF
FFFFFFFF
FFFFFFFF
FFFFFFFF
FFFFFFFF
FFFFFFFF
FFFFFFFF
FFFFFFFF
FFFFFFFF
FFFFFFFF
FFFFFFFF
ENDCHAR
STARTCHAR period
ENCODING 46
SWIDTH 262 0
DWIDTH 35 0
BBX 18 18 8 0
BITMAP
03F000
0FFC00
1FFF00
3FFF00
7FFF80
7FFFC0
7FFFC0
FFFFC0
FFFFC0
FFFFC0
FFFFC0
7FFFC0
7FFFC0
7FFF80
3FFF00
1FFF00
0FFC00
03F000
ENDCHAR
STARTCHAR slash
ENCODING 47
SWIDTH 444 0
DWIDTH 59 0
BBX 56 96 1 0
BITMAP
000000000007FF
000000000007FF
00000000000FFE
00000000000FFE
00000000001FFC
00000000001FFC
00000000003FF8
00000000003FF8
00000000007FF0
00000000007FF0
0000000000FFE0
0000000000FFE0
0000000001FFE0
0000000001FFC0
0000000003FFC0
0000000003FF80
0000000003FF80
0000000007FF00
0000000007FF00
000000000FFE00
000000000FFE00
000000001FFC00
000000001FFC00
000000003FF800
000000003FF800
000000007FF000
000000007FF000
00000000FFF000
00000000FFE000
00000001FFE000
00000001FFC000
00000001FFC000
00000003FF8000
00000003FF8000
00000007FF0000
00000007FF0000
0000000FFE0000
0000000FFE0000
0000001FFC0000
0000001FFC0000
0000003FFC0000
0000003FF80000
0000007FF80000
0000007FF00000
000000FFF00000
000000FFE00000
000001FFE00000
000001FFC00000
000001FFC00000
000003FF800000
000003FF800000
000007FF000000
000007FF000000
00000FFF000000
00000FFE000000
00001FFE000000
00001FFC000000
00003FFC000000
00003FF8000000
00007FF8000000
00007FF0000000
0000FFF0000000
0000FFE0000000
0001FFE0000000
0001FFC0000000
0001FFC0000000
0003FF80000000
0003FF80000000
0007FF80000000
0007FF00000000
000FFF00000000
000FFE00000000
001FFE00000000
001FFC00000000
003FFC00000000
003FF800000000
007FF800000000
007FF000000000
00FFF000000000
00FFE000000000
01FFE000000000
01FFE000000000
01FFC000000000
03FFC000000000
03FF8000000000
07FF8000000000
07FF0000000000
0FFF0000000000
0FFE0000000000
1FFE0000000000
1FFC0000000000
3FFC0000000000
3FF80000000000
7FF80000000000
7FF80000000000
FFF00000000000
ENDCHAR
STARTCHAR zero
ENCODING 48
SWIDTH 838 0
DWIDTH 111 0
BBX 99 96 6 0
BITMAP
00000000003FFF800000000000
000000000FFFFFFC0000000000
00000000FFFFFFFFC000000000
00000003FFFFFFFFF800000000
0000001FFFFFFFFFFE00000000
0000007FFFFFFFFFFF80000000
000001FFFFFFFFFFFFE0000000
000007FFFFFFFFFFFFF8000000
00000FFFFFFFFFFFFFFE000000
00003FFFFFFFFFFFFFFF000000
00007FFFFFFFFFFFFFFF800000
0000FFFFFFFFFFFFFFFFE00000
0001FFFFFFFFFFFFFFFFF00000
0003FFFFFFFFFFFFFFFFF80000
0007FFFFFFFFFFFFFFFFFC0000
000FFFFFFFFFFFFFFFFFFE0000
001FFFFFFFFFFFFFFFFFFF0000
003FFFFFFF80007FFFFFFF8000
007FFFFFF8000007FFFFFFC000
00FFFFFFC0000000FFFFFFC000
00FFFFFF000000003FFFFFE000
01FFFFFC000000000FFFFFF000
03FFFFF80000000003FFFFF000
03FFFFE00000000001FFFFF800
07FFFFC00000000000FFFFF800
07FFFF8000000000003FFFFC00
0FFFFF0000000000003FFFFC00
0FFFFE0000000000001FFFFE00
1FFFFC0000000000000FFFFE00
1FFFFC00000000000007FFFF00
3FFFF800000000000003FFFF00
3FFFF000000000000003FFFF80
3FFFF000000000000001FFFF80
7FFFE000000000000001FFFF80
7FFFE000000000000000FFFF80
7FFFC000000000000000FFFFC0
7FFFC000000000000000FFFFC0
FFFFC0000000000000007FFFC0
FFFFC0000000000000007FFFC0
FFFF80000000000000007FFFE0
FFFF80000000000000007FFFE0
FFFF80000000000000003FFFE0
FFFF80000000000000003FFFE0
FFFF80000000000000003FFFE0
FFFF00000000000000003FFFE0
FFFF00000000000000003FFFE0
FFFF00000000000000003FFFE0
FFFF00000000000000003FFFE0
FFFF00000000000000003FFFE0
FFFF00000000000000003FFFE0
FFFF00000000000000003FFFE0
FFFF00000000000000003FFFE0
FFFF80000000000000003FFFE0
FFFF80000000000000003FFFE0
FFFF80000000000000003FFFE0
FFFF80000000000000007FFFC0
FFFF80000000000000007FFFC0
7FFFC0000000000000007FFFC0
7FFFC0000000000000007FFFC0
7FFFC000000000000000FFFFC0
7FFFE000000000000000FFFF80
3FFFE000000000000001FFFF80
3FFFE000000000000001FFFF80
3FFFF000000000000003FFFF00
1FFFF800000000000003FFFF00
1FFFF800000000000007FFFF00
1FFFFC00000000000007FFFE00
0FFFFE0000000000000FFFFE00
0FFFFE0000000000001FFFFC00
07FFFF0000000000003FFFFC00
07FFFF8000000000007FFFF800
03FFFFC00000000000FFFFF800
01FFFFF00000000001FFFFF000
01FFFFF80000000003FFFFE000
00FFFFFC000000000FFFFFE000
007FFFFF000000003FFFFFC000
007FFFFFC0000000FFFFFF8000
003FFFFFF8000007FFFFFF8000
001FFFFFFF80007FFFFFFF0000
000FFFFFFFFFFFFFFFFFFE0000
0007FFFFFFFFFFFFFFFFFC0000
0003FFFFFFFFFFFFFFFFF80000
0001FFFFFFFFFFFFFFFFF00000
0000FFFFFFFFFFFFFFFFE00000
00007FFFFFFFFFFFFFFFC00000
00003FFFFFFFFFFFFFFF000000
00001FFFFFFFFFFFFFFE000000
000007FFFFFFFFFFFFFC000000
000003FFFFFFFFFFFFF0000000
000000FFFFFFFFFFFFC0000000
0000003FFFFFFFFFFF00000000
0000000FFFFFFFFFFE00000000
00000003FFFFFFFFF000000000
000000007FFFFFFF8000000000
000000000FFFFFFC0000000000
00000000003FFF800000000000
ENDCHAR
STARTCHAR one
ENCODING 49
SWIDTH 385 0
DWIDTH 51 0
BBX 40 96 3 0
BITMAP
FFFF000000
FFFFF80000
FFFFFE0000
FFFFFF8000
FFFFFFE000
FFFFFFF800
FFFFFFFC00
FFFFFFFE00
FFFFFFFF00
FFFFFFFF80
FFFFFFFFC0
FFFFFFFFC0
FFFFFFFFE0
FFFFFFFFF0
FFFFFFFFF0
FFFFFFFFF0
FFFFFFFFF8
0001FFFFF8
00007FFFFC
00003FFFFC
00001FFFFC
00000FFFFC
000007FFFE
000007FFFE
000003FFFE
000003FFFE
000003FFFE
000001FFFE
000001FFFE
000001FFFE
000001FFFE
000001FFFF
000001FFFF
000001FFFF
000001FFFF
000001FFFF
000001FFFF
000001FFFF
000001FFFF
000001FFFF
000001FFFF
000001FFFF
000001FFFF
000001FFFF
000001FFFF
000001FFFF
000001FFFF
000001FFFF
000001FFFF
000001FFFF
000001FFFF
000001FFFF
000001FFFF
000001FFFF
000001FFFF
000001FFFF
000001FFFF
000001FFFF
000001FFFF
000001FFFF
000001FFFF
000001FFFF
000001FFFF
000001FFFF
000001FFFF
000001FFFF
000001FFFF
000001FFFF
000001FFFF
000001FFFF
000001FFFF
000001FFFF
000001FFFF
000001FFFF
000001FFFF
000001FFFF
000001FFFF
000001FFFF
000001FFFF
000001FFFF
000001FFFF
000001FFFF
000001FFFF
000001FFFF
000001FFFF
000001FFFF
000001FFFF
000001FFFF
000001FFFF
000001FFFF
000001FFFF
000001FFFF
000001FFFF
000001FFFF
000001FFFF
000001FFFF
ENDCHAR
STARTCHAR two
ENCODING 50
SWIDTH 825 0
DWIDTH 109 0
BBX 94 96 8 0
BITMAP
7FFFFFFFFFFFFFFFFE000000
7FFFFFFFFFFFFFFFFFF00000
7FFFFFFFFFFFFFFFFFFC0000
7FFFFFFFFFFFFFFFFFFF8000
7FFFFFFFFFFFFFFFFFFFC000
7FFFFFFFFFFFFFFFFFFFF000
7FFFFFFFFFFFFFFFFFFFF800
7FFFFFFFFFFFFFFFFFFFFC00
7FFFFFFFFFFFFFFFFFFFFE00
7FFFFFFFFFFFFFFFFFFFFF00
7FFFFFFFFFFFFFFFFFFFFF80
7FFFFFFFFFFFFFFFFFFFFFC0
7FFFFFFFFFFFFFFFFFFFFFC0
7FFFFFFFFFFFFFFFFFFFFFE0
7FFFFFFFFFFFFFFFFFFFFFE0
7FFFFFFFFFFFFFFFFFFFFFF0
7FFFFFFFFFFFFFFFFFFFFFF0
000000000000000007FFFFF8
000000000000000000FFFFF8
0000000000000000007FFFF8
0000000000000000003FFFF8
0000000000000000001FFFFC
0000000000000000001FFFFC
0000000000000000000FFFFC
0000000000000000000FFFFC
0000000000000000000FFFFC
00000000000000000007FFFC
00000000000000000007FFFC
00000000000000000007FFFC
00000000000000000007FFFC
00000000000000000007FFFC
0000000000000000000FFFFC
0000000000000000000FFFFC
0000000000000000000FFFF8
0000000000000000001FFFF8
0000000000000000001FFFF8
0000000000000000003FFFF0
0000000000000000007FFFF0
000000000000000001FFFFF0
000000000000000007FFFFE0
000001FFFFFFFFFFFFFFFFE0
00003FFFFFFFFFFFFFFFFFC0
0001FFFFFFFFFFFFFFFFFF80
0007FFFFFFFFFFFFFFFFFF80
001FFFFFFFFFFFFFFFFFFF00
007FFFFFFFFFFFFFFFFFFE00
00FFFFFFFFFFFFFFFFFFFC00
01FFFFFFFFFFFFFFFFFFF800
03FFFFFFFFFFFFFFFFFFF000
07FFFFFFFFFFFFFFFFFFC000
07FFFFFFFFFFFFFFFFFF0000
0FFFFFFFFFFFFFFFFFFC0000
0FFFFFFFFFFFFFFFFFE00000
1FFFFFFFFFFFFFFFFE000000
1FFFFF800000000000000000
3FFFFC000000000000000000
3FFFF0000000000000000000
3FFFE0000000000000000000
7FFFC0000000000000000000
7FFFC0000000000000000000
7FFF80000000000000000000
7FFF80000000000000000000
7FFF80000000000000000000
FFFF00000000000000000000
FFFF00000000000000000000
FFFF00000000000000000000
FFFF00000000000000000000
FFFF00000000000000000000
FFFF00000000000000000000
FFFF00000000000000000000
FFFF00000000000000000000
FFFF00000000000000000000
FFFF00000000000000000000
FFFF00000000000000000000
FFFF00000000000000000000
FFFF00000000000000000000
FFFF00000000000000000000
FFFF00000000000000000000
FFFF00000000000000000000
FFFFFFFFFFFFFFFFFFFFFFF0
FFFFFFFFFFFFFFFFFFFFFFF0
FFFFFFFFFFFFFFFFFFFFFFF0
FFFFFFFFFFFFFFFFFFFFFFF0
FFFFFFFFFFFFFFFFFFFFFFF0
FFFFFFFFFFFFFFFFFFFFFFF0
FFFFFFFFFFFFFFFFFFFFFFF0
FFFFFFFFFFFFFFFFFFFFFFF0
FFFFFFFFFFFFFFFFFFFFFFF0
FFFFFFFFFFFFFFFFFFFFFFF0
FFFFFFFFFFFFFFFFFFFFFFF0
FFFFFFFFFFFFFFFFFFFFFFF0
FFFFFFFFFFFFFFFFFFFFFFF0
FFFFFFFFFFFFFFFFFFFFFFF0
FFFFFFFFFFFFFFFFFFFFFFF0
FFFFFFFFFFFFFFFFFFFFFFF0
FFFFFFFFFFFFFFFFFFFFFFF0
ENDCHAR
STARTCHAR three
ENCODING 51
SWIDTH 827 0
DWIDTH 109 0
BBX 97 96 6 0
BITMAP
FFFFFFFFFFFFFFFFFE00000000
FFFFFFFFFFFFFFFFFFF0000000
FFFFFFFFFFFFFFFFFFFE000000
FFFFFFFFFFFFFFFFFFFFC00000
FFFFFFFFFFFFFFFFFFFFF00000
FFFFFFFFFFFFFFFFFFFFF80000
FFFFFFFFFFFFFFFFFFFFFE0000
FFFFFFFFFFFFFFFFFFFFFF0000
FFFFFFFFFFFFFFFFFFFFFF8000
FFFFFFFFFFFFFFFFFFFFFFC000
FFFFFFFFFFFFFFFFFFFFFFE000
FFFFFFFFFFFFFFFFFFFFFFE000
FFFFFFFFFFFFFFFFFFFFFFF000
FFFFFFFFFFFFFFFFFFFFFFF000
FFFFFFFFFFFFFFFFFFFFFFF800
FFFFFFFFFFFFFFFFFFFFFFF800
FFFFFFFFFFFFFFFFFFFFFFFC00
00000000000000000FFFFFFC00
000000000000000000FFFFFC00
0000000000000000003FFFFC00
0000000000000000001FFFFE00
0000000000000000000FFFFE00
00000000000000000007FFFE00
00000000000000000007FFFE00
00000000000000000007FFFE00
00000000000000000003FFFE00
00000000000000000003FFFE00
00000000000000000003FFFE00
00000000000000000003FFFE00
00000000000000000003FFFE00
00000000000000000003FFFC00
00000000000000000003FFFC00
00000000000000000007FFFC00
00000000000000000007FFFC00
00000000000000000007FFF800
0000000000000000000FFFF800
0000000000000000001FFFF000
0000000000000000003FFFF000
0000000000000000007FFFE000
000000000000000007FFFFC000
000001FFFFFFFFFFFFFFFF8000
000001FFFFFFFFFFFFFFFF0000
000001FFFFFFFFFFFFFFFE0000
000001FFFFFFFFFFFFFFF80000
000001FFFFFFFFFFFFFFE00000
000001FFFFFFFFFFFFFFE00000
000001FFFFFFFFFFFFFFF80000
000001FFFFFFFFFFFFFFFE0000
000001FFFFFFFFFFFFFFFF0000
000001FFFFFFFFFFFFFFFF8000
000001FFFFFFFFFFFFFFFFC000
000001FFFFFFFFFFFFFFFFE000
000001FFFFFFFFFFFFFFFFF000
000001FFFFFFFFFFFFFFFFF800
000000000000000003FFFFFC00
0000000000000000007FFFFC00
0000000000000000001FFFFE00
0000000000000000000FFFFE00
00000000000000000007FFFE00
00000000000000000003FFFF00
00000000000000000003FFFF00
00000000000000000001FFFF00
00000000000000000001FFFF00
00000000000000000001FFFF80
00000000000000000000FFFF80
00000000000000000000FFFF80
00000000000000000000FFFF80
00000000000000000000FFFF80
00000000000000000001FFFF80
00000000000000000001FFFF80
00000000000000000001FFFF80
00000000000000000001FFFF00
00000000000000000003FFFF00
00000000000000000007FFFF00
00000000000000000007FFFF00
0000000000000000001FFFFF00
0000000000000000003FFFFE00
000000000000000000FFFFFE00
000000000000000007FFFFFE00
FFFFFFFFFFFFFFFFFFFFFFFC00
FFFFFFFFFFFFFFFFFFFFFFFC00
FFFFFFFFFFFFFFFFFFFFFFF800
FFFFFFFFFFFFFFFFFFFFFFF800
FFFFFFFFFFFFFFFFFFFFFFF000
FFFFFFFFFFFFFFFFFFFFFFE000
FFFFFFFFFFFFFFFFFFFFFFE000
FFFFFFFFFFFFFFFFFFFFFFC000
FFFFFFFFFFFFFFFFFFFFFF8000
FFFFFFFFFFFFFFFFFFFFFF0000
FFFFFFFFFFFFFFFFFFFFFE0000
FFFFFFFFFFFFFFFFFFFFF80000
FFFFFFFFFFFFFFFFFFFFF00000
FFFFFFFFFFFFFFFFFFFFC00000
FFFFFFFFFFFFFFFFFFFF000000
FFFFFFFFFFFFFFFFFFF8000000
FFFFFFFFFFFFFFFFFF00000000
ENDCHAR
STARTCHAR four
ENCODING 52
SWIDTH 845 0
DWIDTH 112 0
BBX 102 96 6 0
BITMAP
FFFF80000000000000FFFF0000
FFFF80000000000000FFFF0000
FFFF80000000000000FFFF0000
FFFF80000000000000FFFF0000
FFFF80000000000000FFFF0000
FFFF80000000000000FFFF0000
FFFF80000000000000FFFF0000
FFFF80000000000000FFFF0000
FFFF80000000000000FFFF0000
FFFF80000000000000FFFF0000
FFFF80000000000000FFFF0000
FFFF80000000000000FFFF0000
FFFF80000000000000FFFF0000
FFFF80000000000000FFFF0000
FFFF80000000000000FFFF0000
FFFF80000000000000FFFF0000
FFFF80000000000000FFFF0000
FFFF80000000000000FFFF0000
FFFF80000000000000FFFF0000
FFFF80000000000000FFFF0000
FFFF80000000000000FFFF0000
FFFF80000000000000FFFF0000
FFFF80000000000000FFFF0000
FFFF80000000000000FFFF0000
FFFF80000000000000FFFF0000
FFFF80000000000000FFFF0000
FFFF80000000000000FFFF0000
FFFF80000000000000FFFF0000
FFFF80000000000000FFFF0000
FFFF80000000000000FFFF0000
FFFF80000000000000FFFF0000
FFFF80000000000000FFFF0000
FFFF80000000000000FFFF0000
FFFF80000000000000FFFF0000
FFFF80000000000000FFFF0000
FFFF80000000000000FFFF0000
FFFF80000000000000FFFF0000
FFFF80000000000000FFFF0000
FFFF80000000000000FFFF0000
FFFF80000000000000FFFF0000
FFFF80000000000000FFFF0000
FFFF80000000000000FFFF0000
FFFF80000000000000FFFF0000
FFFF80000000000000FFFF0000
7FFFC0000000000000FFFF0000
7FFFC0000000000000FFFF0000
7FFFC0000000000000FFFF0000
7FFFC0000000000000FFFF0000
7FFFE0000000000000FFFF0000
7FFFF0000000000000FFFF0000
3FFFF0000000000000FFFF0000
3FFFFC000000000000FFFF0000
3FFFFE000000000000FFFF0000
3FFFFFE00000000000FFFF0000
1FFFFFFFFFFFFFFFFFFFFFFFFC
1FFFFFFFFFFFFFFFFFFFFFFFFC
0FFFFFFFFFFFFFFFFFFFFFFFFC
0FFFFFFFFFFFFFFFFFFFFFFFFC
07FFFFFFFFFFFFFFFFFFFFFFFC
03FFFFFFFFFFFFFFFFFFFFFFFC
03FFFFFFFFFFFFFFFFFFFFFFFC
01FFFFFFFFFFFFFFFFFFFFFFFC
00FFFFFFFFFFFFFFFFFFFFFFFC
007FFFFFFFFFFFFFFFFFFFFFFC
001FFFFFFFFFFFFFFFFFFFFFFC
000FFFFFFFFFFFFFFFFFFFFFFC
0003FFFFFFFFFFFFFFFFFFFFFC
0000FFFFFFFFFFFFFFFFFFFFFC
00001FFFFFFFFFFFFFFFFFFFFC
000000FFFFFFFFFFFFFFFFFFFC
000000000000000000FFFF0000
000000000000000000FFFF0000
000000000000000000FFFF0000
000000000000000000FFFF0000
000000000000000000FFFF0000
000000000000000000FFFF0000
000000000000000000FFFF0000
000000000000000000FFFF0000
000000000000000000FFFF0000
000000000000000000FFFF0000
000000000000000000FFFF0000
000000000000000000FFFF0000
000000000000000000FFFF0000
000000000000000000FFFF0000
000000000000000000FFFF0000
000000000000000000FFFF0000
000000000000000000FFFF0000
000000000000000000FFFF0000
000000000000000000FFFF0000
000000000000000000FFFF0000
000000000000000000FFFF0000
000000000000000000FFFF0000
000000000000000000FFFF0000
000000000000000000FFFF0000
000000000000000000FFFF0000
000000000000000000FFFF0000
ENDCHAR
STARTCHAR five
ENCODING 53
SWIDTH 885 0
DWIDTH 117 0
BBX 102 96 8 0
BITMAP
FFFFFFFFFFFFFFFFFFFFFFFF80
FFFFFFFFFFFFFFFFFFFFFFFF80
FFFFFFFFFFFFFFFFFFFFFFFF80
FFFFFFFFFFFFFFFFFFFFFFFF80
FFFFFFFFFFFFFFFFFFFFFFFF80
FFFFFFFFFFFFFFFFFFFFFFFF80
FFFFFFFFFFFFFFFFFFFFFFFF80
FFFFFFFFFFFFFFFFFFFFFFFF80
FFFFFFFFFFFFFFFFFFFFFFFF80
FFFFFFFFFFFFFFFFFFFFFFFF80
FFFFFFFFFFFFFFFFFFFFFFFF80
FFFFFFFFFFFFFFFFFFFFFFFF80
FFFFFFFFFFFFFFFFFFFFFFFF80
FFFFFFFFFFFFFFFFFFFFFFFF80
FFFFFFFFFFFFFFFFFFFFFFFF80
FFFFFFFFFFFFFFFFFFFFFFFF80
FFFFFFFFFFFFFFFFFFFFFFFF80
FFFFC000000000000000000000
FFFFC000000000000000000000
FFFFC000000000000000000000
FFFFC000000000000000000000
FFFFC000000000000000000000
FFFFC000000000000000000000
FFFFC000000000000000000000
FFFFC000000000000000000000
FFFFC000000000000000000000
FFFFC000000000000000000000
FFFFC000000000000000000000
FFFFC000000000000000000000
FFFFC000000000000000000000
FFFFC000000000000000000000
FFFFC000000000000000000000
FFFFC000000000000000000000
FFFFC000000000000000000000
FFFFC000000000000000000000
FFFFC000000000000000000000
FFFFC000000000000000000000
FFFFC000000000000000000000
FFFFC000000000000000000000
FFFFC000000000000000000000
FFFFFFFFFFFFFFFFFFFF000000
FFFFFFFFFFFFFFFFFFFFF00000
FFFFFFFFFFFFFFFFFFFFFE0000
FFFFFFFFFFFFFFFFFFFFFF8000
FFFFFFFFFFFFFFFFFFFFFFE000
FFFFFFFFFFFFFFFFFFFFFFF800
FFFFFFFFFFFFFFFFFFFFFFFC00
FFFFFFFFFFFFFFFFFFFFFFFE00
FFFFFFFFFFFFFFFFFFFFFFFF00
FFFFFFFFFFFFFFFFFFFFFFFF80
FFFFFFFFFFFFFFFFFFFFFFFF80
FFFFFFFFFFFFFFFFFFFFFFFFC0
FFFFFFFFFFFFFFFFFFFFFFFFE0
FFFFFFFFFFFFFFFFFFFFFFFFE0
00000000000000000007FFFFF0
00000000000000000000FFFFF0
000000000000000000003FFFF0
000000000000000000001FFFF8
000000000000000000000FFFF8
000000000000000000000FFFF8
0000000000000000000007FFF8
0000000000000000000007FFFC
0000000000000000000003FFFC
0000000000000000000003FFFC
0000000000000000000003FFFC
0000000000000000000003FFFC
0000000000000000000003FFFC
0000000000000000000003FFFC
0000000000000000000003FFFC
0000000000000000000003FFFC
0000000000000000000003FFFC
0000000000000000000007FFFC
0000000000000000000007FFFC
000000000000000000000FFFFC
000000000000000000000FFFF8
000000000000000000001FFFF8
000000000000000000003FFFF8
00000000000000000000FFFFF8
00000000000000000003FFFFF0
FFFFFFFFFFFFFFFFFFFFFFFFF0
FFFFFFFFFFFFFFFFFFFFFFFFF0
FFFFFFFFFFFFFFFFFFFFFFFFE0
FFFFFFFFFFFFFFFFFFFFFFFFE0
FFFFFFFFFFFFFFFFFFFFFFFFC0
FFFFFFFFFFFFFFFFFFFFFFFF80
FFFFFFFFFFFFFFFFFFFFFFFF80
FFFFFFFFFFFFFFFFFFFFFFFF00
FFFFFFFFFFFFFFFFFFFFFFFE00
FFFFFFFFFFFFFFFFFFFFFFFC00
FFFFFFFFFFFFFFFFFFFFFFF800
FFFFFFFFFFFFFFFFFFFFFFF000
FFFFFFFFFFFFFFFFFFFFFFC000
FFFFFFFFFFFFFFFFFFFFFF0000
FFFFFFFFFFFFFFFFFFFFFC0000
FFFFFFFFFFFFFFFFFFFFE00000
FFFFFFFFFFFFFFFFFFFE000000
ENDCHAR
STARTCHAR six
ENCODING 54
SWIDTH 872 0
DWIDTH 115 0
BBX 102 96 6 0
BITMAP
000000001FFFFFFFFFFFFFFFC0
00000007FFFFFFFFFFFFFFFFC0
0000003FFFFFFFFFFFFFFFFFC0
000001FFFFFFFFFFFFFFFFFFC0
000007FFFFFFFFFFFFFFFFFFC0
00001FFFFFFFFFFFFFFFFFFFC0
00007FFFFFFFFFFFFFFFFFFFC0
0000FFFFFFFFFFFFFFFFFFFFC0
0003FFFFFFFFFFFFFFFFFFFFC0
0007FFFFFFFFFFFFFFFFFFFFC0
000FFFFFFFFFFFFFFFFFFFFFC0
001FFFFFFFFFFFFFFFFFFFFFC0
003FFFFFFFFFFFFFFFFFFFFFC0
007FFFFFFFFFFFFFFFFFFFFFC0
00FFFFFFFFFFFFFFFFFFFFFFC0
00FFFFFFFFFFFFFFFFFFFFFFC0
01FFFFFFFFFFFFFFFFFFFFFFC0
03FFFFFFF00000000000000000
03FFFFFF000000000000000000
07FFFFF8000000000000000000
07FFFFE0000000000000000000
0FFFFFC0000000000000000000
0FFFFF80000000000000000000
1FFFFF00000000000000000000
1FFFFE00000000000000000000
1FFFFC00000000000000000000
3FFFF800000000000000000000
3FFFF800000000000000000000
3FFFF000000000000000000000
7FFFF000000000000000000000
7FFFE000000000000000000000
7FFFE000000000000000000000
7FFFC000000000000000000000
7FFFC000000000000000000000
FFFFC000000000000000000000
FFFF8000000000000000000000
FFFF8000000000000000000000
FFFF8000000000000000000000
FFFF8000000000000000000000
FFFF8000000000000000000000
FFFFFFFFFFFFFFFFFFFF000000
FFFFFFFFFFFFFFFFFFFFF80000
FFFFFFFFFFFFFFFFFFFFFF0000
FFFFFFFFFFFFFFFFFFFFFFC000
FFFFFFFFFFFFFFFFFFFFFFF000
FFFFFFFFFFFFFFFFFFFFFFF800
FFFFFFFFFFFFFFFFFFFFFFFC00
FFFFFFFFFFFFFFFFFFFFFFFF00
FFFFFFFFFFFFFFFFFFFFFFFF00
FFFFFFFFFFFFFFFFFFFFFFFF80
FFFFFFFFFFFFFFFFFFFFFFFFC0
FFFFFFFFFFFFFFFFFFFFFFFFE0
FFFFFFFFFFFFFFFFFFFFFFFFE0
FFFFFFFFFFFFFFFFFFFFFFFFF0
FFFF8000000000000007FFFFF0
FFFF8000000000000000FFFFF0
FFFF80000000000000003FFFF8
FFFF80000000000000001FFFF8
FFFF80000000000000000FFFF8
FFFF80000000000000000FFFF8
7FFFC00000000000000007FFFC
7FFFC00000000000000007FFFC
7FFFC00000000000000003FFFC
7FFFE00000000000000003FFFC
7FFFE00000000000000003FFFC
3FFFE00000000000000003FFFC
3FFFF00000000000000003FFFC
3FFFF00000000000000003FFFC
3FFFF80000000000000003FFFC
1FFFF80000000000000003FFFC
1FFFFC0000000000000007FFFC
0FFFFE0000000000000007FFFC
0FFFFF0000000000000007FFFC
0FFFFF800000000000000FFFFC
07FFFFC00000000000001FFFF8
07FFFFF00000000000001FFFF8
03FFFFFC0000000000007FFFF8
03FFFFFF000000000000FFFFF8
01FFFFFFF00000000007FFFFF0
00FFFFFFFFFFFFFFFFFFFFFFF0
00FFFFFFFFFFFFFFFFFFFFFFF0
007FFFFFFFFFFFFFFFFFFFFFE0
003FFFFFFFFFFFFFFFFFFFFFE0
001FFFFFFFFFFFFFFFFFFFFFC0
000FFFFFFFFFFFFFFFFFFFFFC0
0007FFFFFFFFFFFFFFFFFFFF80
0003FFFFFFFFFFFFFFFFFFFF00
0001FFFFFFFFFFFFFFFFFFFE00
0000FFFFFFFFFFFFFFFFFFFC00
00003FFFFFFFFFFFFFFFFFF800
00000FFFFFFFFFFFFFFFFFF000
000007FFFFFFFFFFFFFFFFC000
000000FFFFFFFFFFFFFFFF8000
0000003FFFFFFFFFFFFFFE0000
00000003FFFFFFFFFFFFF00000
000000001FFFFFFFFFFE000000
ENDCHAR
STARTCHAR seven
ENCODING 55
SWIDTH 756 0
DWIDTH 100 0
BBX 91 96 6 0
BITMAP
FFFFFFFFFFFFFFFFFFFFF800
FFFFFFFFFFFFFFFFFFFFFE00
FFFFFFFFFFFFFFFFFFFFFF80
FFFFFFFFFFFFFFFFFFFFFFC0
FFFFFFFFFFFFFFFFFFFFFFC0
FFFFFFFFFFFFFFFFFFFFFFE0
FFFFFFFFFFFFFFFFFFFFFFE0
FFFFFFFFFFFFFFFFFFFFFFE0
FFFFFFFFFFFFFFFFFFFFFFE0
FFFFFFFFFFFFFFFFFFFFFFE0
FFFFFFFFFFFFFFFFFFFFFFE0
FFFFFFFFFFFFFFFFFFFFFFC0
FFFFFFFFFFFFFFFFFFFFFFC0
FFFFFFFFFFFFFFFFFFFFFFC0
FFFFFFFFFFFFFFFFFFFFFF80
FFFFFFFFFFFFFFFFFFFFFF00
FFFFFFFFFFFFFFFFFFFFFE00
00000000000000003FFFFE00
00000000000000007FFFFC00
0000000000000000FFFFF800
0000000000000001FFFFF000
0000000000000003FFFFE000
0000000000000007FFFFC000
0000000000000007FFFFC000
000000000000000FFFFF8000
000000000000001FFFFF0000
000000000000003FFFFE0000
000000000000007FFFFC0000
00000000000000FFFFFC0000
00000000000000FFFFF80000
00000000000001FFFFF00000
00000000000003FFFFE00000
00000000000007FFFFC00000
0000000000000FFFFF800000
0000000000001FFFFF800000
0000000000001FFFFF000000
0000000000003FFFFE000000
0000000000007FFFFC000000
000000000000FFFFF8000000
000000000001FFFFF8000000
000000000001FFFFF0000000
000000000003FFFFE0000000
000000000007FFFFC0000000
00000000000FFFFF80000000
00000000001FFFFF00000000
00000000003FFFFF00000000
00000000003FFFFE00000000
00000000007FFFFC00000000
0000000000FFFFF800000000
0000000001FFFFF000000000
0000000003FFFFF000000000
0000000007FFFFE000000000
0000000007FFFFC000000000
000000000FFFFF8000000000
000000001FFFFF0000000000
000000003FFFFE0000000000
000000007FFFFE0000000000
00000000FFFFFC0000000000
00000000FFFFF80000000000
00000001FFFFF00000000000
00000003FFFFE00000000000
00000007FFFFE00000000000
0000000FFFFFC00000000000
0000001FFFFF800000000000
0000001FFFFF000000000000
0000003FFFFE000000000000
0000007FFFFC000000000000
000000FFFFFC000000000000
000001FFFFF8000000000000
000001FFFFF0000000000000
000003FFFFE0000000000000
000007FFFFC0000000000000
00000FFFFFC0000000000000
00001FFFFF80000000000000
00003FFFFF00000000000000
00003FFFFE00000000000000
00007FFFFC00000000000000
0000FFFFFC00000000000000
0001FFFFF800000000000000
0003FFFFF000000000000000
0007FFFFE000000000000000
0007FFFFC000000000000000
000FFFFF8000000000000000
001FFFFF8000000000000000
003FFFFF0000000000000000
007FFFFE0000000000000000
00FFFFFC0000000000000000
00FFFFF80000000000000000
01FFFFF80000000000000000
03FFFFF00000000000000000
07FFFFE00000000000000000
0FFFFFC00000000000000000
1FFFFF800000000000000000
1FFFFF000000000000000000
3FFFFF000000000000000000
7FFFFE000000000000000000
ENDCHAR
STARTCHAR eight
ENCODING 56
SWIDTH 898 0
DWIDTH 119 0
BBX 105 96 7 0
BITMAP
0000007FFFFFFFFFFFFE00000000
00000FFFFFFFFFFFFFFFF8000000
00007FFFFFFFFFFFFFFFFF000000
0001FFFFFFFFFFFFFFFFFFC00000
0007FFFFFFFFFFFFFFFFFFF00000
001FFFFFFFFFFFFFFFFFFFFC0000
003FFFFFFFFFFFFFFFFFFFFE0000
007FFFFFFFFFFFFFFFFFFFFF0000
01FFFFFFFFFFFFFFFFFFFFFF8000
01FFFFFFFFFFFFFFFFFFFFFFC000
03FFFFFFFFFFFFFFFFFFFFFFE000
07FFFFFFFFFFFFFFFFFFFFFFE000
07FFFFFFFFFFFFFFFFFFFFFFF000
0FFFFFFFFFFFFFFFFFFFFFFFF800
0FFFFFFFFFFFFFFFFFFFFFFFF800
1FFFFFFFFFFFFFFFFFFFFFFFF800
1FFFFFFFFFFFFFFFFFFFFFFFFC00
3FFFFFF0000000000007FFFFFC00
3FFFFF80000000000000FFFFFC00
3FFFFE000000000000003FFFFE00
3FFFF8000000000000001FFFFE00
3FFFF0000000000000000FFFFE00
3FFFF00000000000000007FFFE00
3FFFE00000000000000007FFFE00
3FFFE00000000000000003FFFE00
3FFFE00000000000000003FFFE00
3FFFE00000000000000003FFFE00
3FFFE00000000000000003FFFE00
3FFFC00000000000000003FFFE00
3FFFC00000000000000003FFFE00
3FFFE00000000000000003FFFE00
3FFFE00000000000000003FFFC00
3FFFE00000000000000003FFFC00
1FFFE00000000000000007FFFC00
1FFFF00000000000000007FFF800
0FFFF0000000000000000FFFF800
0FFFF8000000000000000FFFF800
07FFFC000000000000003FFFF000
07FFFF000000000000007FFFE000
03FFFFE0000000000007FFFFC000
01FFFFFFFFFFFFFFFFFFFFFFC000
00FFFFFFFFFFFFFFFFFFFFFF8000
007FFFFFFFFFFFFFFFFFFFFE0000
001FFFFFFFFFFFFFFFFFFFFC0000
0007FFFFFFFFFFFFFFFFFFF00000
0003FFFFFFFFFFFFFFFFFFE00000
000FFFFFFFFFFFFFFFFFFFF80000
003FFFFFFFFFFFFFFFFFFFFE0000
00FFFFFFFFFFFFFFFFFFFFFF0000
01FFFFFFFFFFFFFFFFFFFFFF8000
03FFFFFFFFFFFFFFFFFFFFFFE000
07FFFFFFFFFFFFFFFFFFFFFFE000
0FFFFFFFFFFFFFFFFFFFFFFFF000
1FFFFFFFFFFFFFFFFFFFFFFFF800
1FFFFFC0000000000003FFFFFC00
3FFFFE000000000000007FFFFC00
3FFFF8000000000000001FFFFE00
7FFFF0000000000000000FFFFE00
7FFFE00000000000000007FFFF00
7FFFC00000000000000003FFFF00
FFFFC00000000000000001FFFF00
FFFF800000000000000001FFFF00
FFFF800000000000000001FFFF00
FFFF800000000000000000FFFF80
FFFF800000000000000000FFFF80
FFFF800000000000000000FFFF80
FFFF800000000000000000FFFF80
FFFF800000000000000000FFFF80
FFFF800000000000000000FFFF80
FFFF800000000000000000FFFF80
FFFF800000000000000001FFFF80
FFFFC00000000000000001FFFF80
FFFFC00000000000000003FFFF00
FFFFE00000000000000003FFFF00
7FFFF00000000000000007FFFF00
7FFFF8000000000000000FFFFF00
7FFFFC000000000000003FFFFE00
7FFFFF80000000000000FFFFFE00
3FFFFFF0000000000007FFFFFE00
3FFFFFFFFFFFFFFFFFFFFFFFFC00
1FFFFFFFFFFFFFFFFFFFFFFFFC00
1FFFFFFFFFFFFFFFFFFFFFFFF800
0FFFFFFFFFFFFFFFFFFFFFFFF800
0FFFFFFFFFFFFFFFFFFFFFFFF000
07FFFFFFFFFFFFFFFFFFFFFFF000
03FFFFFFFFFFFFFFFFFFFFFFE000
01FFFFFFFFFFFFFFFFFFFFFFC000
00FFFFFFFFFFFFFFFFFFFFFF8000
007FFFFFFFFFFFFFFFFFFFFF0000
003FFFFFFFFFFFFFFFFFFFFE0000
001FFFFFFFFFFFFFFFFFFFF80000
0007FFFFFFFFFFFFFFFFFFF00000
0003FFFFFFFFFFFFFFFFFFC00000
00007FFFFFFFFFFFFFFFFF000000
00001FFFFFFFFFFFFFFFF8000000
000000FFFFFFFFFFFFFF80000000
ENDCHAR
STARTCHAR nine
ENCODING 57
SWIDTH 861 0
DWIDTH 114 0
BBX 102 96 6 0
BITMAP
000003FFFFFFFFFFC000000000
00003FFFFFFFFFFFFF00000000
0001FFFFFFFFFFFFFFE0000000
0007FFFFFFFFFFFFFFFC000000
000FFFFFFFFFFFFFFFFF000000
003FFFFFFFFFFFFFFFFFC00000
007FFFFFFFFFFFFFFFFFF00000
00FFFFFFFFFFFFFFFFFFF80000
01FFFFFFFFFFFFFFFFFFFC0000
03FFFFFFFFFFFFFFFFFFFF0000
07FFFFFFFFFFFFFFFFFFFF8000
07FFFFFFFFFFFFFFFFFFFFC000
0FFFFFFFFFFFFFFFFFFFFFE000
1FFFFFFFFFFFFFFFFFFFFFF000
1FFFFFFFFFFFFFFFFFFFFFF000
3FFFFFFFFFFFFFFFFFFFFFF800
3FFFFFFFFFFFFFFFFFFFFFFC00
3FFFFF80000000003FFFFFFC00
7FFFFE000000000003FFFFFE00
7FFFF8000000000000FFFFFF00
7FFFF00000000000003FFFFF00
FFFFE00000000000001FFFFF80
FFFFE000000000000007FFFF80
FFFFC000000000000003FFFFC0
FFFFC000000000000001FFFFC0
FFFF8000000000000001FFFFC0
FFFF8000000000000000FFFFE0
FFFF80000000000000007FFFE0
FFFF80000000000000007FFFE0
FFFF80000000000000003FFFF0
FFFF80000000000000003FFFF0
FFFF80000000000000001FFFF0
FFFF80000000000000001FFFF0
FFFF80000000000000001FFFF8
FFFF80000000000000000FFFF8
FFFF80000000000000000FFFF8
FFFF80000000000000000FFFF8
FFFFC0000000000000000FFFF8
FFFFC00000000000000007FFF8
FFFFE00000000000000007FFFC
7FFFF00000000000000007FFFC
7FFFF80000000000000007FFFC
7FFFFE0000000000000007FFFC
3FFFFFC000000000000007FFFC
3FFFFFFFFFFFFFFFFFFFFFFFFC
1FFFFFFFFFFFFFFFFFFFFFFFFC
1FFFFFFFFFFFFFFFFFFFFFFFFC
0FFFFFFFFFFFFFFFFFFFFFFFFC
0FFFFFFFFFFFFFFFFFFFFFFFFC
07FFFFFFFFFFFFFFFFFFFFFFFC
03FFFFFFFFFFFFFFFFFFFFFFFC
01FFFFFFFFFFFFFFFFFFFFFFFC
00FFFFFFFFFFFFFFFFFFFFFFFC
003FFFFFFFFFFFFFFFFFFFFFFC
001FFFFFFFFFFFFFFFFFFFFFFC
0007FFFFFFFFFFFFFFFFFFFFFC
0000FFFFFFFFFFFFFFFFFFFFFC
00000FFFFFFFFFFFFFFFFFFFFC
000000000000000000000FFFFC
000000000000000000000FFFF8
000000000000000000000FFFF8
000000000000000000000FFFF8
000000000000000000001FFFF8
000000000000000000001FFFF8
000000000000000000001FFFF8
000000000000000000003FFFF0
000000000000000000003FFFF0
000000000000000000003FFFF0
000000000000000000007FFFF0
00000000000000000000FFFFE0
00000000000000000000FFFFE0
00000000000000000001FFFFE0
00000000000000000003FFFFC0
00000000000000000007FFFFC0
0000000000000000000FFFFF80
0000000000000000003FFFFF80
000000000000000000FFFFFF00
000000000000000003FFFFFF00
00000000000000003FFFFFFE00
003FFFFFFFFFFFFFFFFFFFFE00
003FFFFFFFFFFFFFFFFFFFFC00
003FFFFFFFFFFFFFFFFFFFF800
003FFFFFFFFFFFFFFFFFFFF000
003FFFFFFFFFFFFFFFFFFFF000
003FFFFFFFFFFFFFFFFFFFE000
003FFFFFFFFFFFFFFFFFFFC000
003FFFFFFFFFFFFFFFFFFF8000
003FFFFFFFFFFFFFFFFFFF0000
003FFFFFFFFFFFFFFFFFFC0000
003FFFFFFFFFFFFFFFFFF80000
003FFFFFFFFFFFFFFFFFE00000
003FFFFFFFFFFFFFFFFF800000
003FFFFFFFFFFFFFFFFE000000
003FFFFFFFFFFFFFFFF0000000
003FFFFFFFFFFFFFFF00000000
003FFFFFFFFFFFFFE000000000
ENDCHAR
STARTCHAR colon
ENCODING 58
SWIDTH 262 0
DWIDTH 35 0
BBX 18 61 8 0
BITMAP
03F000
0FFC00
1FFE00
3FFF00
7FFF80
7FFFC0
7FFFC0
FFFFC0
FFFFC0
FFFFC0
FFFFC0
7FFFC0
7FFFC0
7FFF80
3FFF00
1FFF00
0FFC00
03F000
000000
000000
000000
000000
000000
000000
000000
000000
000000
000000
000000
000000
000000
000000
000000
000000
000000
000000
000000
000000
000000
000000
000000
000000
000000
03F000
0FFC00
1FFF00
3FFF00
7FFF80
7FFFC0
7FFFC0
FFFFC0
FFFFC0
FFFFC0
FFFFC0
7FFFC0
7FFFC0
7FFF80
3FFF00
1FFF00
0FFC00
03F000
ENDCHAR
STARTCHAR semicolon
ENCODING 59
SWIDTH 262 0
DWIDTH 35 0
BBX 18 76 8 -16
BITMAP
03F000
0FFE00
1FFF00
3FFF80
7FFF80
7FFFC0
7FFFC0
7FFFC0
FFFFC0
FFFFC0
7FFFC0
7FFFC0
7FFFC0
3FFF80
3FFF80
1FFF00
0FFE00
03F000
000000
000000
000000
000000
000000
000000
000000
000000
000000
000000
000000
000000
000000
000000
000000
000000
000000
000000
000000
000000
000000
000000
000000
000000
7FFFC0
7FFFC0
7FFF80
7FFF80
7FFF80
7FFF80
7FFF80
7FFF00
7FFF00
7FFF00
7FFF00
7FFF00
7FFE00
7FFE00
7FFE00
7FFE00
7FFE00
7FFC00
7FFC00
7FFC00
7FFC00
7FFC00
7FFC00
7FF800
7FF800
7FF800
7FF800
7FF800
7FF000
7FF000
7FF000
7FF000
7FF000
7FE000
ENDCHAR
STARTCHAR less
ENCODING 60
SWIDTH 690 0
DWIDTH 91 0
BBX 75 71 8 13
BITMAP
00000000000000000060
000000000000000003E0
00000000000000000FE0
00000000000000003FE0
0000000000000001FFE0
0000000000000007FFE0
000000000000003FFFE0
00000000000000FFFFE0
00000000000003FFFFE0
0000000000001FFFFFE0
0000000000007FFFFFE0
000000000003FFFFFFE0
00000000000FFFFFFF80
00000000003FFFFFFC00
0000000001FFFFFFE000
0000000007FFFFFF8000
000000003FFFFFFC0000
00000000FFFFFFF00000
00000003FFFFFF800000
0000001FFFFFFE000000
0000007FFFFFF0000000
000001FFFFFFC0000000
00000FFFFFFE00000000
00003FFFFFF000000000
0001FFFFFFC000000000
0007FFFFFE0000000000
001FFFFFF80000000000
00FFFFFFC00000000000
03FFFFFF000000000000
0FFFFFF8000000000000
3FFFFFC0000000000000
3FFFFF00000000000000
7FFFF800000000000000
7FFFE000000000000000
FFFF0000000000000000
FFFF0000000000000000
FFFFC000000000000000
7FFFF800000000000000
7FFFFE00000000000000
3FFFFFC0000000000000
1FFFFFF0000000000000
07FFFFFE000000000000
00FFFFFF800000000000
003FFFFFF00000000000
000FFFFFFC0000000000
0001FFFFFF8000000000
00007FFFFFE000000000
00001FFFFFFC00000000
000003FFFFFF00000000
000000FFFFFFE0000000
0000001FFFFFFC000000
00000007FFFFFF000000
00000001FFFFFFE00000
000000003FFFFFF80000
000000000FFFFFFF0000
0000000003FFFFFFC000
00000000007FFFFFF800
00000000001FFFFFFE00
000000000003FFFFFFC0
000000000000FFFFFFE0
0000000000003FFFFFE0
00000000000007FFFFE0
00000000000001FFFFE0
000000000000007FFFE0
000000000000000FFFE0
0000000000000003FFE0
00000000000000007FE0
00000000000000001FE0
000000000000000007E0
000000000000000000E0
00000000000000000020
ENDCHAR
STARTCHAR equal
ENCODING 61
SWIDTH 690 0
DWIDTH 91 0
BBX 75 47 8 25
BITMAP
FFFFFFFFFFFFFFFFFFE0
FFFFFFFFFFFFFFFFFFE0
FFFFFFFFFFFFFFFFFFE0
FFFFFFFFFFFFFFFFFFE0
FFFFFFFFFFFFFFFFFFE0
FFFFFFFFFFFFFFFFFFE0
FFFFFFFFFFFFFFFFFFE0
FFFFFFFFFFFFFFFFFFE0
FFFFFFFFFFFFFFFFFFE0
FFFFFFFFFFFFFFFFFFE0
FFFFFFFFFFFFFFFFFFE0
00000000000000000000
00000000000000000000
00000000000000000000
00000000000000000000
00000000000000000000
00000000000000000000
00000000000000000000
00000000000000000000
00000000000000000000
00000000000000000000
00000000000000000000
00000000000000000000
00000000000000000000
00000000000000000000
00000000000000000000
00000000000000000000
00000000000000000000
00000000000000000000
00000000000000000000
00000000000000000000
00000000000000000000
00000000000000000000
00000000000000000000
00000000000000000000
00000000000000000000
FFFFFFFFFFFFFFFFFFE0
FFFFFFFFFFFFFFFFFFE0
FFFFFFFFFFFFFFFFFFE0
FFFFFFFFFFFFFFFFFFE0
FFFFFFFFFFFFFFFFFFE0
FFFFFFFFFFFFFFFFFFE0
FFFFFFFFFFFFFFFFFFE0
FFFFFFFFFFFFFFFFFFE0
FFFFFFFFFFFFFFFFFFE0
FFFFFFFFFFFFFFFFFFE0
FFFFFFFFFFFFFFFFFFE0
ENDCHAR
STARTCHAR greater
ENCODING 62
SWIDTH 690 0
DWIDTH 91 0
BBX 75 71 8 13
BITMAP
C0000000000000000000
F8000000000000000000
FE000000000000000000
FFC00000000000000000
FFF00000000000000000
FFFC0000000000000000
FFFF8000000000000000
FFFFE000000000000000
FFFFFC00000000000000
FFFFFF00000000000000
FFFFFFC0000000000000
FFFFFFF8000000000000
1FFFFFFE000000000000
07FFFFFF800000000000
00FFFFFFF00000000000
003FFFFFFC0000000000
0007FFFFFF8000000000
0001FFFFFFE000000000
00003FFFFFF800000000
00000FFFFFFF00000000
000001FFFFFFC0000000
0000003FFFFFF8000000
0000000FFFFFFE000000
00000001FFFFFF800000
000000007FFFFFF00000
000000000FFFFFFC0000
0000000003FFFFFF8000
00000000007FFFFFE000
00000000000FFFFFF800
000000000003FFFFFE00
0000000000007FFFFF80
0000000000001FFFFFC0
00000000000003FFFFC0
00000000000000FFFFE0
000000000000001FFFE0
000000000000000FFFE0
000000000000007FFFE0
00000000000001FFFFC0
0000000000000FFFFFC0
0000000000007FFFFF80
000000000001FFFFFF00
00000000000FFFFFFC00
00000000003FFFFFF000
0000000001FFFFFF8000
0000000007FFFFFE0000
000000003FFFFFF00000
00000000FFFFFFC00000
00000007FFFFFF000000
0000001FFFFFF8000000
000000FFFFFFE0000000
000003FFFFFF80000000
00001FFFFFFC00000000
00007FFFFFF000000000
0003FFFFFF8000000000
001FFFFFFE0000000000
007FFFFFF80000000000
03FFFFFFC00000000000
0FFFFFFF000000000000
7FFFFFFC000000000000
FFFFFFE0000000000000
FFFFFF80000000000000
FFFFFC00000000000000
FFFFF000000000000000
FFFFC000000000000000
FFFE0000000000000000
FFF80000000000000000
FFE00000000000000000
FF000000000000000000
FC000000000000000000
E0000000000000000000
80000000000000000000
ENDCHAR
STARTCHAR question
ENCODING 63
SWIDTH 776 0
DWIDTH 102 0
BBX 92 96 6 0
BITMAP
FFFFFFFFFFFFFFFFFC000000
FFFFFFFFFFFFFFFFFFC00000
FFFFFFFFFFFFFFFFFFF80000
FFFFFFFFFFFFFFFFFFFE0000
FFFFFFFFFFFFFFFFFFFF8000
FFFFFFFFFFFFFFFFFFFFE000
FFFFFFFFFFFFFFFFFFFFF000
FFFFFFFFFFFFFFFFFFFFF800
FFFFFFFFFFFFFFFFFFFFFC00
FFFFFFFFFFFFFFFFFFFFFE00
FFFFFFFFFFFFFFFFFFFFFF00
FFFFFFFFFFFFFFFFFFFFFF00
FFFFFFFFFFFFFFFFFFFFFF80
FFFFFFFFFFFFFFFFFFFFFF80
FFFFFFFFFFFFFFFFFFFFFFC0
FFFFFFFFFFFFFFFFFFFFFFC0
FFFFFFFFFFFFFFFFFFFFFFE0
00000000000000000FFFFFE0
000000000000000003FFFFE0
000000000000000000FFFFF0
0000000000000000007FFFF0
0000000000000000003FFFF0
0000000000000000003FFFF0
0000000000000000001FFFF0
0000000000000000001FFFF0
0000000000000000001FFFF0
0000000000000000001FFFF0
0000000000000000001FFFF0
0000000000000000001FFFF0
0000000000000000001FFFF0
0000000000000000001FFFF0
0000000000000000001FFFF0
0000000000000000001FFFF0
0000000000000000003FFFF0
0000000000000000007FFFE0
0000000000000000007FFFE0
000000000000000000FFFFE0
000000000000000003FFFFC0
00000000000000001FFFFFC0
0000007FFFFFFFFFFFFFFF80
00000FFFFFFFFFFFFFFFFF80
00003FFFFFFFFFFFFFFFFF00
0000FFFFFFFFFFFFFFFFFE00
0001FFFFFFFFFFFFFFFFFE00
0003FFFFFFFFFFFFFFFFFC00
0007FFFFFFFFFFFFFFFFF800
000FFFFFFFFFFFFFFFFFF000
000FFFFFFFFFFFFFFFFFC000
001FFFFFFFFFFFFFFFFF8000
003FFFFFFFFFFFFFFFFE0000
003FFFFFFFFFFFFFFFF80000
003FFFFFFFFFFFFFFFC00000
007FFFFFFFFFFFFFFC000000
007FFFF00000000000000000
007FFFC00000000000000000
007FFF800000000000000000
007FFF800000000000000000
007FFF800000000000000000
007FFF800000000000000000
007FFF800000000000000000
007FFF800000000000000000
007FFF800000000000000000
007FFF800000000000000000
007FFF800000000000000000
000000000000000000000000
000000000000000000000000
000000000000000000000000
000000000000000000000000
000000000000000000000000
000000000000000000000000
000000000000000000000000
000000000000000000000000
000000000000000000000000
000000000000000000000000
000000000000000000000000
000000000000000000000000
000000000000000000000000
000000000000000000000000
0003F0000000000000000000
000FFC000000000000000000
001FFE000000000000000000
003FFF000000000000000000
007FFF800000000000000000
007FFF800000000000000000
00FFFFC00000000000000000
00FFFFC00000000000000000
00FFFFC00000000000000000
00FFFFC00000000000000000
00FFFFC00000000000000000
00FFFFC00000000000000000
007FFF800000000000000000
007FFF800000000000000000
003FFF000000000000000000
001FFE000000000000000000
000FFC000000000000000000
0003F0000000000000000000
ENDCHAR
STARTCHAR at
ENCODING 64
SWIDTH 833 0
DWIDTH 110 0
BBX 96 96 6 0
BITMAP
00000000007FFFFFFFFFFFFF
000000001FFFFFFFFFFFFFFF
00000000FFFFFFFFFFFFFFFF
00000007FFFFFFFFFFFFFFFF
0000001FFFFFFFFFFFFFFFFF
0000007FFFFFFFFFFFFFFFFF
000001FFFFFFFFFFFFFFFFFF
000007FFFFFFFFFFFFFFFFFF
00000FFFFFFFFFFFFFFFFFFF
00001FFFFFFFFFFFFFFFFFFF
00007FFFFFFFFFFFFFFFFFFF
0000FFFFFFFFFFFFFFFFFFFF
0001FFFFFF80000000001FFF
0003FFFFF000000000001FFF
0007FFFF8000000000001FFF
000FFFFE0000000000001FFF
001FFFF80000000000001FFF
003FFFE00000000000001FFF
003FFFC00000000000001FFF
007FFF000000000000001FFF
00FFFE000000000000001FFF
01FFFC000000000000001FFF
01FFF8000000000000001FFF
03FFF0000000000000001FFF
03FFE0000000000000001FFF
07FFE0000000000000001FFF
07FFC000007FFFFFFF001FFF
0FFF800003FFFFFFFF001FFF
0FFF80000FFFFFFFFF001FFF
1FFF00001FFFFFFFFF001FFF
1FFF00003FFFFFFFFF001FFF
3FFE00007FFFFFFFFF001FFF
3FFE0000FFFFFFFFFF001FFF
3FFC0001FFFFFFFFFF001FFF
3FFC0003FFFFFFFFFF001FFF
7FFC0003FFFFFFFFFF001FFF
7FFC0007FFF80007FF001FFF
7FF80007FFE00007FF001FFF
7FF8000FFFC00007FF001FFF
FFF8000FFF800007FF001FFF
FFF8000FFF000007FF001FFF
FFF8000FFE000007FF001FFF
FFF0001FFE000007FF001FFF
FFF0001FFE000007FF001FFF
FFF0001FFC000007FF001FFF
FFF0001FFC000007FF001FFF
FFF0001FFC000007FF001FFF
FFF0001FFC000007FF001FFF
FFF0001FFC000007FF001FFF
FFF0001FFC000007FF001FFF
FFF0001FFC000007FF001FFF
FFF0001FFE000007FF001FFF
FFF0001FFE000007FF001FFF
FFF0001FFE000007FF001FFF
FFF8000FFF000007FF001FFF
FFF8000FFF800007FF001FFF
FFF8000FFFC00007FF001FFF
FFF80007FFE00007FF001FFF
FFF80007FFF80007FF001FFF
7FFC0007FFFFFFFFFFFFFFFF
7FFC0003FFFFFFFFFFFFFFFF
7FFC0001FFFFFFFFFFFFFFFF
7FFE0001FFFFFFFFFFFFFFFF
7FFE0000FFFFFFFFFFFFFFFF
3FFE00007FFFFFFFFFFFFFFF
3FFF00003FFFFFFFFFFFFFFF
3FFF00001FFFFFFFFFFFFFFF
1FFF800007FFFFFFFFFFFFFF
1FFF800003FFFFFFFFFFFFFF
0FFFC000007FFFFFFFFFFFFF
0FFFE0000000000000000000
07FFE0000000000000000000
07FFF0000000000000000000
03FFF8000000000000000000
03FFFC000000000000000000
01FFFE000000000000000000
00FFFF000000000000000000
00FFFFC00000000000000000
007FFFE00000000000000000
003FFFF80000000000000000
001FFFFE0000000000000000
000FFFFF8000000000000000
0007FFFFF000000000000000
0003FFFFFF80000000000000
0001FFFFFFFFFFFFFFFFFFFF
0000FFFFFFFFFFFFFFFFFFFF
00007FFFFFFFFFFFFFFFFFFF
00001FFFFFFFFFFFFFFFFFFF
00000FFFFFFFFFFFFFFFFFFF
000003FFFFFFFFFFFFFFFFFF
000000FFFFFFFFFFFFFFFFFF
0000003FFFFFFFFFFFFFFFFF
0000000FFFFFFFFFFFFFFFFF
00000001FFFFFFFFFFFFFFFF
000000003FFFFFFFFFFFFFFF
0000000000FFFFFFFFFFFFFF
ENDCHAR
STARTCHAR A
ENCODING 65
SWIDTH 989 0
DWIDTH 131 0
BBX 127 98 2 0
BITMAP
00000000000000010000000000000000
000000000000001FE000000000000000
000000000000003FF800000000000000
000000000000007FFC00000000000000
00000000000000FFFC00000000000000
00000000000001FFFE00000000000000
00000000000001FFFF00000000000000
00000000000003FFFF00000000000000
00000000000007FFFF80000000000000
00000000000007FFFF80000000000000
0000000000000FFFFFC0000000000000
0000000000000FFFFFE0000000000000
0000000000001FFFFFE0000000000000
0000000000003FFFFFF0000000000000
0000000000003FFFFFF0000000000000
0000000000007FFFFFF8000000000000
0000000000007FFFFFFC000000000000
000000000000FFFFFFFC000000000000
000000000001FFFFFFFE000000000000
000000000001FFFFFFFE000000000000
000000000003FFFFFFFF000000000000
000000000003FFFFFFFF800000000000
000000000007FFFFFFFF800000000000
00000000000FFFFFFFFFC00000000000
00000000000FFFFFFFFFC00000000000
00000000001FFFFDFFFFE00000000000
00000000001FFFF8FFFFF00000000000
00000000003FFFF8FFFFF00000000000
00000000007FFFF07FFFF80000000000
00000000007FFFF07FFFF80000000000
0000000000FFFFE03FFFFC0000000000
0000000000FFFFC01FFFFE0000000000
0000000001FFFFC01FFFFE0000000000
0000000003FFFF800FFFFF0000000000
0000000003FFFF800FFFFF0000000000
0000000007FFFF0007FFFF8000000000
0000000007FFFF0003FFFFC000000000
000000000FFFFE0003FFFFC000000000
000000001FFFFC0001FFFFE000000000
000000001FFFFC0000FFFFE000000000
000000003FFFF80000FFFFF000000000
000000003FFFF800007FFFF800000000
000000007FFFF000007FFFF800000000
00000000FFFFE000003FFFFC00000000
00000000FFFFE000001FFFFC00000000
00000001FFFFC000001FFFFE00000000
00000001FFFFC000000FFFFF00000000
00000003FFFF8000000FFFFF00000000
00000007FFFF00000007FFFF80000000
00000007FFFF00000003FFFF80000000
0000000FFFFE00000003FFFFC0000000
0000000FFFFE00000001FFFFE0000000
0000001FFFFC00000001FFFFE0000000
0000003FFFF800000000FFFFF0000000
0000003FFFF8000000007FFFF0000000
0000007FFFF0000000007FFFF8000000
0000007FFFF0000000003FFFFC000000
000000FFFFE0000000003FFFFC000000
000001FFFFC0000000001FFFFE000000
000001FFFFC0000000000FFFFE000000
000003FFFF8003FFFFFFFFFFFF000000
000003FFFF8003FFFFFFFFFFFF800000
000007FFFF0007FFFFFFFFFFFF800000
000007FFFE0007FFFFFFFFFFFFC00000
00000FFFFE000FFFFFFFFFFFFFC00000
00001FFFFC001FFFFFFFFFFFFFE00000
00001FFFFC001FFFFFFFFFFFFFF00000
00003FFFF8003FFFFFFFFFFFFFF00000
00003FFFF8003FFFFFFFFFFFFFF80000
00007FFFF0007FFFFFFFFFFFFFF80000
0000FFFFE0007FFFFFFFFFFFFFFC0000
0000FFFFE000FFFFFFFFFFFFFFFE0000
0001FFFFC001FFFFFFFFFFFFFFFE0000
0001FFFFC001FFFFFFFFFFFFFFFF0000
0003FFFF800000000000000FFFFF0000
0007FFFF0000000000000007FFFF8000
0007FFFF0000000000000007FFFFC000
000FFFFE0000000000000003FFFFC000
000FFFFE0000000000000001FFFFE000
001FFFFC0000000000000001FFFFE000
003FFFF80000000000000000FFFFF000
003FFFF80000000000000000FFFFF800
007FFFF000000000000000007FFFF800
007FFFF000000000000000003FFFFC00
00FFFFE000000000000000003FFFFC00
01FFFFC000000000000000001FFFFE00
01FFFFC000000000000000001FFFFF00
03FFFF8000000000000000000FFFFF00
03FFFF80000000000000000007FFFF80
07FFFF00000000000000000007FFFF80
0FFFFE00000000000000000003FFFFC0
0FFFFE00000000000000000003FFFFE0
1FFFFC00000000000000000001FFFFE0
1FFFFC00000000000000000000FFFFF0
3FFFF800000000000000000000FFFFF0
7FFFF0000000000000000000007FFFF8
7FFFF0000000000000000000007FFFFC
FFFFE0000000000000000000003FFFFE
ENDCHAR
STARTCHAR B
ENCODING 66
SWIDTH 891 0
DWIDTH 118 0
BBX 103 96 8 0
BITMAP
FFFFFFFFFFFFFFFFFFFC000000
FFFFFFFFFFFFFFFFFFFFE00000
FFFFFFFFFFFFFFFFFFFFFC0000
FFFFFFFFFFFFFFFFFFFFFF0000
FFFFFFFFFFFFFFFFFFFFFFC000
FFFFFFFFFFFFFFFFFFFFFFF000
FFFFFFFFFFFFFFFFFFFFFFF800
FFFFFFFFFFFFFFFFFFFFFFFC00
FFFFFFFFFFFFFFFFFFFFFFFF00
FFFFFFFFFFFFFFFFFFFFFFFF00
FFFFFFFFFFFFFFFFFFFFFFFF80
FFFFFFFFFFFFFFFFFFFFFFFFC0
FFFFFFFFFFFFFFFFFFFFFFFFC0
FFFFFFFFFFFFFFFFFFFFFFFFE0
FFFFFFFFFFFFFFFFFFFFFFFFF0
FFFFFFFFFFFFFFFFFFFFFFFFF0
FFFFFFFFFFFFFFFFFFFFFFFFF0
FFFF800000000000001FFFFFF8
FFFF8000000000000003FFFFF8
FFFF8000000000000000FFFFF8
FFFF80000000000000003FFFF8
FFFF80000000000000003FFFF8
FFFF80000000000000001FFFF8
FFFF80000000000000000FFFFC
FFFF80000000000000000FFFFC
FFFF80000000000000000FFFFC
FFFF80000000000000000FFFFC
FFFF80000000000000000FFFF8
FFFF800000000000000007FFF8
FFFF80000000000000000FFFF8
FFFF80000000000000000FFFF8
FFFF80000000000000000FFFF8
FFFF80000000000000000FFFF8
FFFF80000000000000000FFFF0
FFFF80000000000000001FFFF0
FFFF80000000000000001FFFE0
FFFF80000000000000003FFFE0
FFFF80000000000000007FFFC0
FFFF8000000000000001FFFFC0
FFFF800000000000000FFFFF80
FFFF8007FFFFFFFFFFFFFFFF00
FFFF8007FFFFFFFFFFFFFFFE00
FFFF8007FFFFFFFFFFFFFFFC00
FFFF8007FFFFFFFFFFFFFFF000
FFFF8007FFFFFFFFFFFFFFC000
FFFF8007FFFFFFFFFFFFFF8000
FFFF8007FFFFFFFFFFFFFFE000
FFFF8007FFFFFFFFFFFFFFF800
FFFF8007FFFFFFFFFFFFFFFE00
FFFF8007FFFFFFFFFFFFFFFF00
FFFF8007FFFFFFFFFFFFFFFF80
FFFF8007FFFFFFFFFFFFFFFFC0
FFFF8007FFFFFFFFFFFFFFFFE0
FFFF8007FFFFFFFFFFFFFFFFF0
FFFF8000000000000007FFFFF0
FFFF8000000000000000FFFFF8
FFFF80000000000000003FFFF8
FFFF80000000000000001FFFFC
FFFF80000000000000000FFFFC
FFFF80000000000000000FFFFC
FFFF800000000000000007FFFE
FFFF800000000000000007FFFE
FFFF800000000000000003FFFE
FFFF800000000000000003FFFE
FFFF800000000000000003FFFE
FFFF800000000000000003FFFE
FFFF800000000000000003FFFE
FFFF800000000000000003FFFE
FFFF800000000000000003FFFE
FFFF800000000000000003FFFE
FFFF800000000000000003FFFE
FFFF800000000000000007FFFE
FFFF800000000000000007FFFE
FFFF80000000000000000FFFFE
FFFF80000000000000001FFFFC
FFFF80000000000000003FFFFC
FFFF8000000000000000FFFFFC
FFFF8000000000000003FFFFFC
FFFF800000000000003FFFFFF8
FFFFFFFFFFFFFFFFFFFFFFFFF8
FFFFFFFFFFFFFFFFFFFFFFFFF0
FFFFFFFFFFFFFFFFFFFFFFFFF0
FFFFFFFFFFFFFFFFFFFFFFFFE0
FFFFFFFFFFFFFFFFFFFFFFFFE0
FFFFFFFFFFFFFFFFFFFFFFFFC0
FFFFFFFFFFFFFFFFFFFFFFFF80
FFFFFFFFFFFFFFFFFFFFFFFF00
FFFFFFFFFFFFFFFFFFFFFFFE00
FFFFFFFFFFFFFFFFFFFFFFFC00
FFFFFFFFFFFFFFFFFFFFFFF800
FFFFFFFFFFFFFFFFFFFFFFF000
FFFFFFFFFFFFFFFFFFFFFFC000
FFFFFFFFFFFFFFFFFFFFFF0000
FFFFFFFFFFFFFFFFFFFFFC0000
FFFFFFFFFFFFFFFFFFFFF00000
FFFFFFFFFFFFFFFFFFFE000000
ENDCHAR
STARTCHAR C
ENCODING 67
SWIDTH 829 0
DWIDTH 109 0
BBX 98 96 6 0
BITMAP
0000000001FFFFFFFFFFFFFFC0
000000007FFFFFFFFFFFFFFFC0
00000003FFFFFFFFFFFFFFFFC0
0000001FFFFFFFFFFFFFFFFFC0
0000007FFFFFFFFFFFFFFFFFC0
000001FFFFFFFFFFFFFFFFFFC0
000007FFFFFFFFFFFFFFFFFFC0
00000FFFFFFFFFFFFFFFFFFFC0
00003FFFFFFFFFFFFFFFFFFFC0
00007FFFFFFFFFFFFFFFFFFFC0
0001FFFFFFFFFFFFFFFFFFFFC0
0003FFFFFFFFFFFFFFFFFFFFC0
0007FFFFFFFFFFFFFFFFFFFFC0
000FFFFFFFFFFFFFFFFFFFFFC0
001FFFFFFFFFFFFFFFFFFFFFC0
003FFFFFFFFFFFFFFFFFFFFFC0
003FFFFFFFFFFFFFFFFFFFFFC0
007FFFFFFE0000000000000000
00FFFFFFF00000000000000000
01FFFFFF800000000000000000
01FFFFFE000000000000000000
03FFFFFC000000000000000000
03FFFFF0000000000000000000
07FFFFE0000000000000000000
0FFFFFC0000000000000000000
0FFFFF80000000000000000000
0FFFFF00000000000000000000
1FFFFE00000000000000000000
1FFFFC00000000000000000000
3FFFFC00000000000000000000
3FFFF800000000000000000000
3FFFF000000000000000000000
7FFFF000000000000000000000
7FFFE000000000000000000000
7FFFE000000000000000000000
7FFFC000000000000000000000
FFFFC000000000000000000000
FFFFC000000000000000000000
FFFFC000000000000000000000
FFFF8000000000000000000000
FFFF8000000000000000000000
FFFF8000000000000000000000
FFFF8000000000000000000000
FFFF8000000000000000000000
FFFF0000000000000000000000
FFFF0000000000000000000000
FFFF0000000000000000000000
FFFF0000000000000000000000
FFFF0000000000000000000000
FFFF0000000000000000000000
FFFF0000000000000000000000
FFFF0000000000000000000000
FFFF8000000000000000000000
FFFF8000000000000000000000
FFFF8000000000000000000000
FFFF8000000000000000000000
FFFF8000000000000000000000
FFFFC000000000000000000000
7FFFC000000000000000000000
7FFFC000000000000000000000
7FFFE000000000000000000000
7FFFE000000000000000000000
3FFFE000000000000000000000
3FFFF000000000000000000000
3FFFF000000000000000000000
1FFFF800000000000000000000
1FFFFC00000000000000000000
1FFFFC00000000000000000000
0FFFFE00000000000000000000
0FFFFF00000000000000000000
07FFFF80000000000000000000
07FFFFC0000000000000000000
03FFFFE0000000000000000000
03FFFFF0000000000000000000
01FFFFFC000000000000000000
00FFFFFE000000000000000000
00FFFFFF800000000000000000
007FFFFFF00000000000000000
003FFFFFFE0000000000000000
001FFFFFFFFFFFFFFFFFFFFFC0
001FFFFFFFFFFFFFFFFFFFFFC0
000FFFFFFFFFFFFFFFFFFFFFC0
0007FFFFFFFFFFFFFFFFFFFFC0
0003FFFFFFFFFFFFFFFFFFFFC0
0001FFFFFFFFFFFFFFFFFFFFC0
00007FFFFFFFFFFFFFFFFFFFC0
00003FFFFFFFFFFFFFFFFFFFC0
00001FFFFFFFFFFFFFFFFFFFC0
000007FFFFFFFFFFFFFFFFFFC0
000003FFFFFFFFFFFFFFFFFFC0
000000FFFFFFFFFFFFFFFFFFC0
0000003FFFFFFFFFFFFFFFFFC0
0000000FFFFFFFFFFFFFFFFFC0
00000001FFFFFFFFFFFFFFFFC0
000000003FFFFFFFFFFFFFFFC0
0000000001FFFFFFFFFFFFFFC0
ENDCHAR
STARTCHAR D
ENCODING 68
SWIDTH 879 0
DWIDTH 116 0
BBX 103 96 8 0
BITMAP
FFFFFFFFFFFFFFFE0000000000
FFFFFFFFFFFFFFFFF800000000
FFFFFFFFFFFFFFFFFF00000000
FFFFFFFFFFFFFFFFFFE0000000
FFFFFFFFFFFFFFFFFFF8000000
FFFFFFFFFFFFFFFFFFFE000000
FFFFFFFFFFFFFFFFFFFF800000
FFFFFFFFFFFFFFFFFFFFE00000
FFFFFFFFFFFFFFFFFFFFF00000
FFFFFFFFFFFFFFFFFFFFF80000
FFFFFFFFFFFFFFFFFFFFFE0000
FFFFFFFFFFFFFFFFFFFFFF0000
FFFFFFFFFFFFFFFFFFFFFF8000
FFFFFFFFFFFFFFFFFFFFFFC000
FFFFFFFFFFFFFFFFFFFFFFE000
FFFFFFFFFFFFFFFFFFFFFFF000
FFFFFFFFFFFFFFFFFFFFFFF000
FFFF800000000001FFFFFFF800
FFFF8000000000003FFFFFFC00
FFFF80000000000007FFFFFE00
FFFF80000000000001FFFFFE00
FFFF80000000000000FFFFFF00
FFFF800000000000003FFFFF00
FFFF800000000000001FFFFF80
FFFF800000000000000FFFFFC0
FFFF8000000000000007FFFFC0
FFFF8000000000000003FFFFC0
FFFF8000000000000001FFFFE0
FFFF8000000000000000FFFFE0
FFFF80000000000000007FFFF0
FFFF80000000000000007FFFF0
FFFF80000000000000003FFFF0
FFFF80000000000000003FFFF8
FFFF80000000000000001FFFF8
FFFF80000000000000001FFFF8
FFFF80000000000000000FFFF8
FFFF80000000000000000FFFFC
FFFF80000000000000000FFFFC
FFFF800000000000000007FFFC
FFFF800000000000000007FFFC
FFFF800000000000000007FFFC
FFFF800000000000000007FFFC
FFFF800000000000000007FFFC
FFFF800000000000000003FFFE
FFFF800000000000000003FFFE
FFFF800000000000000003FFFE
FFFF800000000000000003FFFE
FFFF800000000000000003FFFE
FFFF800000000000000003FFFE
FFFF800000000000000003FFFE
FFFF800000000000000003FFFE
FFFF800000000000000003FFFC
FFFF800000000000000003FFFC
FFFF800000000000000007FFFC
FFFF800000000000000007FFFC
FFFF800000000000000007FFFC
FFFF800000000000000007FFFC
FFFF800000000000000007FFFC
FFFF80000000000000000FFFF8
FFFF80000000000000000FFFF8
FFFF80000000000000000FFFF8
FFFF80000000000000001FFFF8
FFFF80000000000000001FFFF0
FFFF80000000000000003FFFF0
FFFF80000000000000003FFFF0
FFFF80000000000000007FFFE0
FFFF8000000000000000FFFFE0
FFFF8000000000000000FFFFE0
FFFF8000000000000001FFFFC0
FFFF8000000000000003FFFFC0
FFFF8000000000000007FFFF80
FFFF800000000000000FFFFF80
FFFF800000000000001FFFFF00
FFFF800000000000003FFFFF00
FFFF80000000000000FFFFFE00
FFFF80000000000001FFFFFC00
FFFF80000000000007FFFFFC00
FFFF8000000000003FFFFFF800
FFFF800000000001FFFFFFF000
FFFFFFFFFFFFFFFFFFFFFFF000
FFFFFFFFFFFFFFFFFFFFFFE000
FFFFFFFFFFFFFFFFFFFFFFC000
FFFFFFFFFFFFFFFFFFFFFF8000
FFFFFFFFFFFFFFFFFFFFFF0000
FFFFFFFFFFFFFFFFFFFFFE0000
FFFFFFFFFFFFFFFFFFFFFC0000
FFFFFFFFFFFFFFFFFFFFF00000
FFFFFFFFFFFFFFFFFFFFE00000
FFFFFFFFFFFFFFFFFFFFC00000
FFFFFFFFFFFFFFFFFFFF000000
FFFFFFFFFFFFFFFFFFFC000000
FFFFFFFFFFFFFFFFFFF0000000
FFFFFFFFFFFFFFFFFFC0000000
FFFFFFFFFFFFFFFFFE00000000
FFFFFFFFFFFFFFFFF000000000
FFFFFFFFFFFFFFFE0000000000
ENDCHAR
STARTCHAR E
ENCODING 69
SWIDTH 759 0
DWIDTH 100 0
BBX 86 96 8 0
BITMAP
FFFFFFFFFFFFFFFFFFFFFC
FFFFFFFFFFFFFFFFFFFFFC
FFFFFFFFFFFFFFFFFFFFFC
FFFFFFFFFFFFFFFFFFFFFC
FFFFFFFFFFFFFFFFFFFFFC
FFFFFFFFFFFFFFFFFFFFFC
FFFFFFFFFFFFFFFFFFFFFC
FFFFFFFFFFFFFFFFFFFFFC
FFFFFFFFFFFFFFFFFFFFFC
FFFFFFFFFFFFFFFFFFFFFC
FFFFFFFFFFFFFFFFFFFFFC
FFFFFFFFFFFFFFFFFFFFFC
FFFFFFFFFFFFFFFFFFFFFC
FFFFFFFFFFFFFFFFFFFFFC
FFFFFFFFFFFFFFFFFFFFFC
FFFFFFFFFFFFFFFFFFFFFC
FFFFFFFFFFFFFFFFFFFFFC
FFFF800000000000000000
FFFF800000000000000000
FFFF800000000000000000
FFFF800000000000000000
FFFF800000000000000000
FFFF800000000000000000
FFFF800000000000000000
FFFF800000000000000000
FFFF800000000000000000
FFFF800000000000000000
FFFF800000000000000000
FFFF800000000000000000
FFFF800000000000000000
FFFF800000000000000000
FFFF800000000000000000
FFFF800000000000000000
FFFF800000000000000000
FFFF800000000000000000
FFFF800000000000000000
FFFF800000000000000000
FFFF800000000000000000
FFFF800000000000000000
FFFF800000000000000000
FFFF8007FFFFFFFFFFFFC0
FFFF8007FFFFFFFFFFFFC0
FFFF8007FFFFFFFFFFFFC0
FFFF8007FFFFFFFFFFFFC0
FFFF8007FFFFFFFFFFFFC0
FFFF8007FFFFFFFFFFFFC0
FFFF8007FFFFFFFFFFFFC0
FFFF8007FFFFFFFFFFFFC0
FFFF8007FFFFFFFFFFFFC0
FFFF8007FFFFFFFFFFFFC0
FFFF8007FFFFFFFFFFFFC0
FFFF8007FFFFFFFFFFFFC0
FFFF8007FFFFFFFFFFFFC0
FFFF8007FFFFFFFFFFFFC0
FFFF800000000000000000
FFFF800000000000000000
FFFF800000000000000000
FFFF800000000000000000
FFFF800000000000000000
FFFF800000000000000000
FFFF800000000000000000
FFFF800000000000000000
FFFF800000000000000000
FFFF800000000000000000
FFFF800000000000000000
FFFF800000000000000000
FFFF800000000000000000
FFFF800000000000000000
FFFF800000000000000000
FFFF800000000000000000
FFFF800000000000000000
FFFF800000000000000000
FFFF800000000000000000
FFFF800000000000000000
FFFF800000000000000000
FFFF800000000000000000
FFFF800000000000000000
FFFF800000000000000000
FFFF800000000000000000
FFFFFFFFFFFFFFFFFFFFFC
FFFFFFFFFFFFFFFFFFFFFC
FFFFFFFFFFFFFFFFFFFFFC
FFFFFFFFFFFFFFFFFFFFFC
FFFFFFFFFFFFFFFFFFFFFC
FFFFFFFFFFFFFFFFFFFFFC
FFFFFFFFFFFFFFFFFFFFFC
FFFFFFFFFFFFFFFFFFFFFC
FFFFFFFFFFFFFFFFFFFFFC
FFFFFFFFFFFFFFFFFFFFFC
FFFFFFFFFFFFFFFFFFFFFC
FFFFFFFFFFFFFFFFFFFFFC
FFFFFFFFFFFFFFFFFFFFFC
FFFFFFFFFFFFFFFFFFFFFC
FFFFFFFFFFFFFFFFFFFFFC
FFFFFFFFFFFFFFFFFFFFFC
FFFFFFFFFFFFFFFFFFFFFC
ENDCHAR
STARTCHAR F
ENCODING 70
SWIDTH 705 0
DWIDTH 93 0
BBX 82 96 8 0
BITMAP
FFFFFFFFFFFFFFFFFFFFC0
FFFFFFFFFFFFFFFFFFFFC0
FFFFFFFFFFFFFFFFFFFFC0
FFFFFFFFFFFFFFFFFFFFC0
FFFFFFFFFFFFFFFFFFFFC0
FFFFFFFFFFFFFFFFFFFFC0
FFFFFFFFFFFFFFFFFFFFC0
FFFFFFFFFFFFFFFFFFFFC0
FFFFFFFFFFFFFFFFFFFFC0
FFFFFFFFFFFFFFFFFFFFC0
FFFFFFFFFFFFFFFFFFFFC0
FFFFFFFFFFFFFFFFFFFFC0
FFFFFFFFFFFFFFFFFFFFC0
FFFFFFFFFFFFFFFFFFFFC0
FFFFFFFFFFFFFFFFFFFFC0
FFFFFFFFFFFFFFFFFFFFC0
FFFFFFFFFFFFFFFFFFFFC0
FFFF800000000000000000
FFFF800000000000000000
FFFF800000000000000000
FFFF800000000000000000
FFFF800000000000000000
FFFF800000000000000000
FFFF800000000000000000
FFFF800000000000000000
FFFF800000000000000000
FFFF800000000000000000
FFFF800000000000000000
FFFF800000000000000000
FFFF800000000000000000
FFFF800000000000000000
FFFF800000000000000000
FFFF800000000000000000
FFFF800000000000000000
FFFF800000000000000000
FFFF800000000000000000
FFFF800000000000000000
FFFF800000000000000000
FFFF800000000000000000
FFFF800000000000000000
FFFF800000000000000000
FFFF8007FFFFFFFFFFFC00
FFFF8007FFFFFFFFFFFC00
FFFF8007FFFFFFFFFFFC00
FFFF8007FFFFFFFFFFFC00
FFFF8007FFFFFFFFFFFC00
FFFF8007FFFFFFFFFFFC00
FFFF8007FFFFFFFFFFFC00
FFFF8007FFFFFFFFFFFC00
FFFF8007FFFFFFFFFFFC00
FFFF8007FFFFFFFFFFFC00
FFFF8007FFFFFFFFFFFC00
FFFF8007FFFFFFFFFFFC00
FFFF8007FFFFFFFFFFFC00
FFFF8007FFFFFFFFFFFC00
FFFF8007FFFFFFFFFFFC00
FFFF800000000000000000
FFFF800000000000000000
FFFF800000000000000000
FFFF800000000000000000
FFFF800000000000000000
FFFF800000000000000000
FFFF800000000000000000
FFFF800000000000000000
FFFF800000000000000000
FFFF800000000000000000
FFFF800000000000000000
FFFF800000000000000000
FFFF800000000000000000
FFFF800000000000000000
FFFF800000000000000000
FFFF800000000000000000
FFFF800000000000000000
FFFF800000000000000000
FFFF800000000000000000
FFFF800000000000000000
FFFF800000000000000000
FFFF800000000000000000
FFFF800000000000000000
FFFF800000000000000000
FFFF800000000000000000
FFFF800000000000000000
FFFF800000000000000000
FFFF800000000000000000
FFFF800000000000000000
FFFF800000000000000000
FFFF800000000000000000
FFFF800000000000000000
FFFF800000000000000000
FFFF800000000000000000
FFFF800000000000000000
FFFF800000000000000000
FFFF800000000000000000
FFFF800000000000000000
FFFF800000000000000000
FFFF800000000000000000
ENDCHAR
STARTCHAR G
ENCODING 71
SWIDTH 888 0
DWIDTH 117 0
BBX 104 96 6 0
BITMAP
0000000001FFFFFFFFFFFFFFC0
000000007FFFFFFFFFFFFFFFC0
00000003FFFFFFFFFFFFFFFFC0
0000001FFFFFFFFFFFFFFFFFC0
0000007FFFFFFFFFFFFFFFFFC0
000001FFFFFFFFFFFFFFFFFFC0
000007FFFFFFFFFFFFFFFFFFC0
00000FFFFFFFFFFFFFFFFFFFC0
00003FFFFFFFFFFFFFFFFFFFC0
00007FFFFFFFFFFFFFFFFFFFC0
0001FFFFFFFFFFFFFFFFFFFFC0
0003FFFFFFFFFFFFFFFFFFFFC0
0007FFFFFFFFFFFFFFFFFFFFC0
000FFFFFFFFFFFFFFFFFFFFFC0
001FFFFFFFFFFFFFFFFFFFFFC0
003FFFFFFFFFFFFFFFFFFFFFC0
003FFFFFFFFFFFFFFFFFFFFFC0
007FFFFFFE0000000000000000
00FFFFFFF00000000000000000
01FFFFFF800000000000000000
01FFFFFE000000000000000000
03FFFFFC000000000000000000
03FFFFF0000000000000000000
07FFFFE0000000000000000000
0FFFFFC0000000000000000000
0FFFFF80000000000000000000
0FFFFF00000000000000000000
1FFFFE00000000000000000000
1FFFFC00000000000000000000
3FFFFC00000000000000000000
3FFFF800000000000000000000
3FFFF000000000000000000000
7FFFF000000000000000000000
7FFFE000000000000000000000
7FFFE000000000000000000000
7FFFC000000000000000000000
FFFFC000000000000000000000
FFFFC000000000000000000000
FFFFC000000000000000000000
FFFF8000000000000000000000
FFFF8000000FFFFFFFFFFFFFFF
FFFF8000000FFFFFFFFFFFFFFF
FFFF8000000FFFFFFFFFFFFFFF
FFFF8000000FFFFFFFFFFFFFFF
FFFF0000000FFFFFFFFFFFFFFF
FFFF0000000FFFFFFFFFFFFFFF
FFFF0000000FFFFFFFFFFFFFFF
FFFF0000000FFFFFFFFFFFFFFF
FFFF0000000FFFFFFFFFFFFFFF
FFFF0000000FFFFFFFFFFFFFFF
FFFF0000000FFFFFFFFFFFFFFF
FFFF0000000FFFFFFFFFFFFFFF
FFFF8000000FFFFFFFFFFFFFFF
FFFF8000000FFFFFFFFFFFFFFF
FFFF800000000000000001FFFF
FFFF800000000000000001FFFF
FFFF800000000000000001FFFF
FFFFC00000000000000001FFFF
7FFFC00000000000000001FFFF
7FFFC00000000000000001FFFF
7FFFE00000000000000001FFFF
7FFFE00000000000000001FFFF
3FFFE00000000000000001FFFF
3FFFF00000000000000001FFFF
3FFFF00000000000000001FFFF
1FFFF80000000000000001FFFF
1FFFFC0000000000000001FFFF
1FFFFC0000000000000001FFFF
0FFFFE0000000000000001FFFF
0FFFFF0000000000000001FFFF
07FFFF8000000000000001FFFF
07FFFFC000000000000001FFFF
03FFFFE000000000000001FFFF
03FFFFF000000000000001FFFF
01FFFFFC00000000000001FFFF
00FFFFFE00000000000001FFFF
00FFFFFF80000000000001FFFF
007FFFFFF0000000000001FFFF
003FFFFFFE000000000001FFFF
001FFFFFFFFFFFFFFFFFFFFFFF
001FFFFFFFFFFFFFFFFFFFFFFF
000FFFFFFFFFFFFFFFFFFFFFFF
0007FFFFFFFFFFFFFFFFFFFFFF
0003FFFFFFFFFFFFFFFFFFFFFF
0001FFFFFFFFFFFFFFFFFFFFFF
00007FFFFFFFFFFFFFFFFFFFFF
00003FFFFFFFFFFFFFFFFFFFFF
00001FFFFFFFFFFFFFFFFFFFFF
000007FFFFFFFFFFFFFFFFFFFF
000003FFFFFFFFFFFFFFFFFFFF
000000FFFFFFFFFFFFFFFFFFFF
0000003FFFFFFFFFFFFFFFFFFF
0000000FFFFFFFFFFFFFFFFFFF
00000001FFFFFFFFFFFFFFFFFF
000000003FFFFFFFFFFFFFFFFF
0000000001FFFFFFFFFFFFFFFF
ENDCHAR
STARTCHAR H
ENCODING 72
SWIDTH 838 0
DWIDTH 111 0
BBX 94 96 8 0
BITMAP
FFFF8000000000000003FFFC
FFFF8000000000000003FFFC
FFFF8000000000000003FFFC
FFFF8000000000000003FFFC
FFFF8000000000000003FFFC
FFFF8000000000000003FFFC
FFFF8000000000000003FFFC
FFFF8000000000000003FFFC
FFFF8000000000000003FFFC
FFFF8000000000000003FFFC
FFFF8000000000000003FFFC
FFFF8000000000000003FFFC
FFFF8000000000000003FFFC
FFFF8000000000000003FFFC
FFFF8000000000000003FFFC
FFFF8000000000000003FFFC
FFFF8000000000000003FFFC
FFFF8000000000000003FFFC
FFFF8000000000000003FFFC
FFFF8000000000000003FFFC
FFFF8000000000000003FFFC
FFFF8000000000000003FFFC
FFFF8000000000000003FFFC
FFFF8000000000000003FFFC
FFFF8000000000000003FFFC
FFFF8000000000000003FFFC
FFFF8000000000000003FFFC
FFFF8000000000000003FFFC
FFFF8000000000000003FFFC
FFFF8000000000000003FFFC
FFFF8000000000000003FFFC
FFFF8000000000000003FFFC
FFFF8000000000000003FFFC
FFFF8000000000000003FFFC
FFFF8000000000000003FFFC
FFFF8000000000000003FFFC
FFFF8000000000000003FFFC
FFFF8000000000000003FFFC
FFFF8000000000000003FFFC
FFFF8007FFFFFFFFFFFFFFFC
FFFF8007FFFFFFFFFFFFFFFC
FFFF8007FFFFFFFFFFFFFFFC
FFFF8007FFFFFFFFFFFFFFFC
FFFF8007FFFFFFFFFFFFFFFC
FFFF8007FFFFFFFFFFFFFFFC
FFFF8007FFFFFFFFFFFFFFFC
FFFF8007FFFFFFFFFFFFFFFC
FFFF8007FFFFFFFFFFFFFFFC
FFFF8007FFFFFFFFFFFFFFFC
FFFF8007FFFFFFFFFFFFFFFC
FFFF8007FFFFFFFFFFFFFFFC
FFFF8007FFFFFFFFFFFFFFFC
FFFF8007FFFFFFFFFFFFFFFC
FFFF8007FFFFFFFFFFFFFFFC
FFFF8000000000000003FFFC
FFFF8000000000000003FFFC
FFFF8000000000000003FFFC
FFFF8000000000000003FFFC
FFFF8000000000000003FFFC
FFFF8000000000000003FFFC
FFFF8000000000000003FFFC
FFFF8000000000000003FFFC
FFFF8000000000000003FFFC
FFFF8000000000000003FFFC
FFFF8000000000000003FFFC
FFFF8000000000000003FFFC
FFFF8000000000000003FFFC
FFFF8000000000000003FFFC
FFFF8000000000000003FFFC
FFFF8000000000000003FFFC
FFFF8000000000000003FFFC
FFFF8000000000000003FFFC
FFFF8000000000000003FFFC
FFFF8000000000000003FFFC
FFFF8000000000000003FFFC
FFFF8000000000000003FFFC
FFFF8000000000000003FFFC
FFFF8000000000000003FFFC
FFFF8000000000000003FFFC
FFFF8000000000000003FFFC
FFFF8000000000000003FFFC
FFFF8000000000000003FFFC
FFFF8000000000000003FFFC
FFFF8000000000000003FFFC
FFFF8000000000000003FFFC
FFFF8000000000000003FFFC
FFFF8000000000000003FFFC
FFFF8000000000000003FFFC
FFFF8000000000000003FFFC
FFFF8000000000000003FFFC
FFFF8000000000000003FFFC
FFFF8000000000000003FFFC
FFFF8000000000000003FFFC
FFFF8000000000000003FFFC
FFFF8000000000000003FFFC
FFFF8000000000000003FFFC
ENDCHAR
STARTCHAR I
ENCODING 73
SWIDTH 267 0
DWIDTH 35 0
BBX 17 96 9 0
BITMAP
FFFF80
FFFF80
FFFF80
FFFF80
FFFF80
FFFF80
FFFF80
FFFF80
FFFF80
FFFF80
FFFF80
FFFF80
FFFF80
FFFF80
FFFF80
FFFF80
FFFF80
FFFF80
FFFF80
FFFF80
FFFF80
FFFF80
FFFF80
FFFF80
FFFF80
FFFF80
FFFF80
FFFF80
FFFF80
FFFF80
FFFF80
FFFF80
FFFF80
FFFF80
FFFF80
FFFF80
FFFF80
FFFF80
FFFF80
FFFF80
FFFF80
FFFF80
FFFF80
FFFF80
FFFF80
FFFF80
FFFF80
FFFF80
FFFF80
FFFF80
FFFF80
FFFF80
FFFF80
FFFF80
FFFF80
FFFF80
FFFF80
FFFF80
FFFF80
FFFF80
FFFF80
FFFF80
FFFF80
FFFF80
FFFF80
FFFF80
FFFF80
FFFF80
FFFF80
FFFF80
FFFF80
FFFF80
FFFF80
FFFF80
FFFF80
FFFF80
FFFF80
FFFF80
FFFF80
FFFF80
FFFF80
FFFF80
FFFF80
FFFF80
FFFF80
FFFF80
FFFF80
FFFF80
FFFF80
FFFF80
FFFF80
FFFF80
FFFF80
FFFF80
FFFF80
FFFF80
ENDCHAR
STARTCHAR J
ENCODING 74
SWIDTH 708 0
DWIDTH 93 0
BBX 84 96 3 0
BITMAP
00000000000000001FFFF0
00000000000000001FFFF0
00000000000000001FFFF0
00000000000000001FFFF0
00000000000000001FFFF0
00000000000000001FFFF0
00000000000000001FFFF0
00000000000000001FFFF0
00000000000000001FFFF0
00000000000000001FFFF0
00000000000000001FFFF0
00000000000000001FFFF0
00000000000000001FFFF0
00000000000000001FFFF0
00000000000000001FFFF0
00000000000000001FFFF0
00000000000000001FFFF0
00000000000000001FFFF0
00000000000000001FFFF0
00000000000000001FFFF0
00000000000000001FFFF0
00000000000000001FFFF0
00000000000000001FFFF0
00000000000000001FFFF0
00000000000000001FFFF0
00000000000000001FFFF0
00000000000000001FFFF0
00000000000000001FFFF0
00000000000000001FFFF0
00000000000000001FFFF0
00000000000000001FFFF0
00000000000000001FFFF0
00000000000000001FFFF0
00000000000000001FFFF0
00000000000000001FFFF0
00000000000000001FFFF0
00000000000000001FFFF0
00000000000000001FFFF0
00000000000000001FFFF0
00000000000000001FFFF0
00000000000000001FFFF0
00000000000000001FFFF0
00000000000000001FFFF0
00000000000000001FFFF0
00000000000000001FFFF0
00000000000000001FFFF0
00000000000000001FFFF0
00000000000000001FFFF0
00000000000000001FFFF0
00000000000000001FFFF0
00000000000000001FFFF0
00000000000000001FFFF0
00000000000000001FFFF0
00000000000000001FFFF0
00000000000000001FFFF0
00000000000000001FFFF0
00000000000000001FFFE0
00000000000000001FFFE0
00000000000000003FFFE0
00000000000000003FFFE0
00000000000000003FFFE0
00000000000000003FFFE0
00000000000000003FFFE0
00000000000000007FFFE0
00000000000000007FFFE0
00000000000000007FFFC0
0000000000000000FFFFC0
0000000000000000FFFFC0
0000000000000001FFFFC0
0000000000000003FFFF80
0000000000000003FFFF80
0000000000000007FFFF80
000000000000000FFFFF00
000000000000001FFFFF00
000000000000007FFFFF00
00000000000001FFFFFE00
00000000000007FFFFFE00
0000000000003FFFFFFC00
000000000003FFFFFFF800
FFFFFFFFFFFFFFFFFFF800
FFFFFFFFFFFFFFFFFFF000
FFFFFFFFFFFFFFFFFFE000
FFFFFFFFFFFFFFFFFFE000
FFFFFFFFFFFFFFFFFFC000
FFFFFFFFFFFFFFFFFF8000
FFFFFFFFFFFFFFFFFF0000
FFFFFFFFFFFFFFFFFE0000
FFFFFFFFFFFFFFFFF80000
FFFFFFFFFFFFFFFFF00000
FFFFFFFFFFFFFFFFC00000
FFFFFFFFFFFFFFFF000000
FFFFFFFFFFFFFFFC000000
FFFFFFFFFFFFFFF0000000
FFFFFFFFFFFFFF00000000
FFFFFFFFFFFFF000000000
FFFFFFFFFFF80000000000
ENDCHAR
STARTCHAR K
ENCODING 75
SWIDTH 875 0
DWIDTH 116 0
BBX 105 96 8 0
BITMAP
FFFF8000000000000007FFFFFE00
FFFF800000000000001FFFFFF800
FFFF800000000000003FFFFFF000
FFFF800000000000007FFFFFC000
FFFF80000000000001FFFFFF8000
FFFF80000000000003FFFFFF0000
FFFF80000000000007FFFFFC0000
FFFF8000000000001FFFFFF80000
FFFF8000000000003FFFFFF00000
FFFF8000000000007FFFFFC00000
FFFF800000000000FFFFFF800000
FFFF800000000003FFFFFF000000
FFFF800000000007FFFFFC000000
FFFF80000000000FFFFFF8000000
FFFF80000000003FFFFFF0000000
FFFF80000000007FFFFFC0000000
FFFF8000000000FFFFFF80000000
FFFF8000000003FFFFFF00000000
FFFF8000000007FFFFFC00000000
FFFF800000000FFFFFF800000000
FFFF800000001FFFFFF000000000
FFFF800000007FFFFFC000000000
FFFF80000000FFFFFF8000000000
FFFF80000001FFFFFF0000000000
FFFF80000007FFFFFC0000000000
FFFF8000000FFFFFF80000000000
FFFF8000001FFFFFF00000000000
FFFF8000003FFFFFC00000000000
FFFF800000FFFFFF800000000000
FFFF800001FFFFFE000000000000
FFFF800003FFFFFC000000000000
FFFF80000FFFFFF8000000000000
FFFF80001FFFFFE0000000000000
FFFF80003FFFFFC0000000000000
FFFF8000FFFFFF80000000000000
FFFF8001FFFFFE00000000000000
FFFF8003FFFFFC00000000000000
FFFF8007FFFFF800000000000000
FFFF801FFFFFE000000000000000
FFFF803FFFFFC000000000000000
FFFF807FFFFF8000000000000000
FFFF80FFFFFE0000000000000000
FFFF81FFFFFC0000000000000000
FFFF81FFFFF80000000000000000
FFFF83FFFFE00000000000000000
FFFF83FFFFC00000000000000000
FFFF83FFFF800000000000000000
FFFF83FFFF800000000000000000
FFFF83FFFFC00000000000000000
FFFF81FFFFF00000000000000000
FFFF81FFFFF80000000000000000
FFFF81FFFFFC0000000000000000
FFFF80FFFFFF0000000000000000
FFFF807FFFFF8000000000000000
FFFF801FFFFFC000000000000000
FFFF800FFFFFF000000000000000
FFFF8007FFFFF800000000000000
FFFF8003FFFFFC00000000000000
FFFF8000FFFFFF00000000000000
FFFF80007FFFFF80000000000000
FFFF80003FFFFFC0000000000000
FFFF80001FFFFFF0000000000000
FFFF800007FFFFF8000000000000
FFFF800003FFFFFC000000000000
FFFF800001FFFFFE000000000000
FFFF8000007FFFFF800000000000
FFFF8000003FFFFFC00000000000
FFFF8000001FFFFFE00000000000
FFFF8000000FFFFFF80000000000
FFFF80000003FFFFFC0000000000
FFFF80000001FFFFFE0000000000
FFFF80000000FFFFFF8000000000
FFFF800000007FFFFFC000000000
FFFF800000001FFFFFE000000000
FFFF800000000FFFFFF800000000
FFFF8000000007FFFFFC00000000
FFFF8000000001FFFFFE00000000
FFFF8000000000FFFFFF80000000
FFFF80000000007FFFFFC0000000
FFFF80000000003FFFFFE0000000
FFFF80000000000FFFFFF8000000
FFFF800000000007FFFFFC000000
FFFF800000000003FFFFFE000000
FFFF800000000001FFFFFF800000
FFFF8000000000007FFFFFC00000
FFFF8000000000003FFFFFE00000
FFFF8000000000001FFFFFF00000
FFFF80000000000007FFFFFC0000
FFFF80000000000003FFFFFE0000
FFFF80000000000001FFFFFF0000
FFFF80000000000000FFFFFFC000
FFFF800000000000003FFFFFE000
FFFF800000000000001FFFFFF000
FFFF800000000000000FFFFFFC00
FFFF8000000000000007FFFFFE00
FFFF8000000000000001FFFFFF80
ENDCHAR
STARTCHAR L
ENCODING 76
SWIDTH 707 0
DWIDTH 93 0
BBX 82 96 8 0
BITMAP
FFFF800000000000000000
FFFF800000000000000000
FFFF800000000000000000
FFFF800000000000000000
FFFF800000000000000000
FFFF800000000000000000
FFFF800000000000000000
FFFF800000000000000000
FFFF800000000000000000
FFFF800000000000000000
FFFF800000000000000000
FFFF800000000000000000
FFFF800000000000000000
FFFF800000000000000000
FFFF800000000000000000
FFFF800000000000000000
FFFF800000000000000000
FFFF800000000000000000
FFFF800000000000000000
FFFF800000000000000000
FFFF800000000000000000
FFFF800000000000000000
FFFF800000000000000000
FFFF800000000000000000
FFFF800000000000000000
FFFF800000000000000000
FFFF800000000000000000
FFFF800000000000000000
FFFF800000000000000000
FFFF800000000000000000
FFFF800000000000000000
FFFF800000000000000000
FFFF800000000000000000
FFFF800000000000000000
FFFF800000000000000000
FFFF800000000000000000
FFFF800000000000000000
FFFF800000000000000000
FFFF800000000000000000
FFFF800000000000000000
FFFF800000000000000000
FFFF800000000000000000
FFFF800000000000000000
FFFF800000000000000000
FFFF800000000000000000
FFFF800000000000000000
FFFF800000000000000000
FFFF800000000000000000
FFFF800000000000000000
FFFF800000000000000000
FFFF800000000000000000
FFFF800000000000000000
FFFF800000000000000000
FFFF800000000000000000
FFFF800000000000000000
FFFF800000000000000000
FFFF800000000000000000
FFFF800000000000000000
FFFF800000000000000000
FFFF800000000000000000
FFFF800000000000000000
FFFF800000000000000000
FFFF800000000000000000
FFFF800000000000000000
FFFF800000000000000000
FFFF800000000000000000
FFFF800000000000000000
FFFF800000000000000000
FFFF800000000000000000
FFFF800000000000000000
FFFF800000000000000000
FFFF800000000000000000
FFFF800000000000000000
FFFF800000000000000000
FFFF800000000000000000
FFFF800000000000000000
FFFF800000000000000000
FFFF800000000000000000
FFFF800000000000000000
FFFFFFFFFFFFFFFFFFFFC0
FFFFFFFFFFFFFFFFFFFFC0
FFFFFFFFFFFFFFFFFFFFC0
FFFFFFFFFFFFFFFFFFFFC0
FFFFFFFFFFFFFFFFFFFFC0
FFFFFFFFFFFFFFFFFFFFC0
FFFFFFFFFFFFFFFFFFFFC0
FFFFFFFFFFFFFFFFFFFFC0
FFFFFFFFFFFFFFFFFFFFC0
FFFFFFFFFFFFFFFFFFFFC0
FFFFFFFFFFFFFFFFFFFFC0
FFFFFFFFFFFFFFFFFFFFC0
FFFFFFFFFFFFFFFFFFFFC0
FFFFFFFFFFFFFFFFFFFFC0
FFFFFFFFFFFFFFFFFFFFC0
FFFFFFFFFFFFFFFFFFFFC0
FFFFFFFFFFFFFFFFFFFFC0
ENDCHAR
STARTCHAR M
ENCODING 77
SWIDTH 1115 0
DWIDTH 147 0
BBX 141 98 3 -2
BITMAP
00000003F000000000000000003F00000000
0000000FFC0000000000000000FFC0000000
0000001FFE0000000000000001FFE0000000
0000003FFF0000000000000003FFE0000000
0000003FFF8000000000000007FFF0000000
0000007FFFC000000000000007FFF0000000
0000007FFFC00000000000000FFFF8000000
0000007FFFC00000000000000FFFF8000000
000000FFFFE00000000000001FFFF8000000
000000FFFFE00000000000001FFFFC000000
000000FFFFF00000000000001FFFFC000000
000000FFFFF00000000000003FFFFC000000
000001FFFFF80000000000003FFFFC000000
000001FFFFF80000000000007FFFFE000000
000001FFFFFC0000000000007FFFFE000000
000003FFFFFC000000000000FFFFFE000000
000003FFFFFC000000000000FFFFFF000000
000003FFFFFE000000000001FFFFFF000000
000003FFFFFE000000000001FFFFFF000000
000007FFFFFF000000000001FFFFFF000000
000007FFFFFF000000000003FFFFFF800000
000007FFFFFF800000000003FFFFFF800000
00000FFFFFFF800000000007FFFFFF800000
00000FFFFFFFC00000000007FFFFFF800000
00000FFFFFFFC0000000000FFFFFFFC00000
00000FFFFFFFC0000000000FFFFFFFC00000
00001FFFFFFFE0000000000FFFFFFFC00000
00001FFFFFFFE0000000001FFFFFFFE00000
00001FFFFFFFF0000000001FFFFFFFE00000
00001FFFFFFFF0000000003FFFFFFFE00000
00003FFFFFFFF8000000003FFFDFFFE00000
00003FFFCFFFF8000000007FFFDFFFF00000
00003FFFCFFFF8000000007FFF9FFFF00000
00007FFFC7FFFC00000000FFFF8FFFF00000
00007FFFC7FFFC00000000FFFF0FFFF00000
00007FFF83FFFE00000000FFFF0FFFF80000
00007FFF83FFFE00000001FFFE0FFFF80000
0000FFFF83FFFF00000001FFFE07FFF80000
0000FFFF81FFFF00000003FFFE07FFFC0000
0000FFFF01FFFF80000003FFFC07FFFC0000
0000FFFF00FFFF80000007FFFC07FFFC0000
0001FFFF00FFFF80000007FFF803FFFC0000
0001FFFE007FFFC000000FFFF803FFFE0000
0001FFFE007FFFC000000FFFF003FFFE0000
0003FFFE003FFFE000000FFFF001FFFE0000
0003FFFE003FFFE000001FFFE001FFFF0000
0003FFFC003FFFF000001FFFE001FFFF0000
0003FFFC001FFFF000003FFFE001FFFF0000
0007FFFC001FFFF800003FFFC000FFFF0000
0007FFFC000FFFF800007FFFC000FFFF8000
0007FFF8000FFFF800007FFF8000FFFF8000
000FFFF80007FFFC00007FFF8000FFFF8000
000FFFF80007FFFC0000FFFF00007FFF8000
000FFFF00003FFFE0000FFFF00007FFFC000
000FFFF00003FFFE0001FFFE00007FFFC000
001FFFF00003FFFF0001FFFE00003FFFC000
001FFFF00001FFFF0003FFFE00003FFFE000
001FFFE00001FFFF0003FFFC00003FFFE000
001FFFE00000FFFF8007FFFC00003FFFE000
003FFFE00000FFFF8007FFF800001FFFE000
003FFFC000007FFFC007FFF800001FFFF000
003FFFC000007FFFC00FFFF000001FFFF000
007FFFC000007FFFE00FFFF000000FFFF000
007FFFC000003FFFE01FFFE000000FFFF000
007FFF8000003FFFF01FFFE000000FFFF800
007FFF8000001FFFF03FFFE000000FFFF800
00FFFF8000001FFFF03FFFC0000007FFF800
00FFFF8000000FFFF87FFFC0000007FFFC00
00FFFF0000000FFFF87FFF80000007FFFC00
01FFFF00000007FFFC7FFF80000007FFFC00
01FFFF00000007FFFCFFFF00000003FFFC00
01FFFE00000007FFFEFFFF00000003FFFE00
01FFFE00000003FFFFFFFF00000003FFFE00
03FFFE00000003FFFFFFFE00000001FFFE00
03FFFE00000001FFFFFFFE00000001FFFE00
03FFFC00000001FFFFFFFC00000001FFFF00
03FFFC00000000FFFFFFFC00000001FFFF00
07FFFC00000000FFFFFFF800000000FFFF00
07FFFC00000000FFFFFFF800000000FFFF80
07FFF8000000007FFFFFF000000000FFFF80
0FFFF8000000007FFFFFF000000000FFFF80
0FFFF8000000003FFFFFF0000000007FFF80
0FFFF0000000003FFFFFE0000000007FFFC0
0FFFF0000000001FFFFFE0000000007FFFC0
1FFFF0000000001FFFFFC0000000003FFFC0
1FFFF0000000000FFFFFC0000000003FFFE0
1FFFE0000000000FFFFF80000000003FFFE0
1FFFE0000000000FFFFF80000000003FFFE0
3FFFE00000000007FFFF00000000001FFFE0
3FFFC00000000007FFFF00000000001FFFF0
3FFFC00000000003FFFF00000000001FFFF0
7FFFC00000000003FFFE00000000000FFFF0
7FFFC00000000001FFFE00000000000FFFF0
7FFF800000000001FFFC00000000000FFFF8
7FFF800000000000FFF800000000000FFFF8
FFFF8000000000007FF0000000000007FFF8
00000000000000003FE00000000000000000
000000000000000002000000000000000000
ENDCHAR
STARTCHAR N
ENCODING 78
SWIDTH 873 0
DWIDTH 115 0
BBX 99 96 8 0
BITMAP
07E000000000000000001FFFE0
1FF800000000000000001FFFE0
3FFE00000000000000001FFFE0
3FFF00000000000000001FFFE0
7FFF80000000000000001FFFE0
7FFFC0000000000000001FFFE0
FFFFE0000000000000001FFFE0
FFFFF0000000000000001FFFE0
FFFFF8000000000000001FFFE0
FFFFFC000000000000001FFFE0
FFFFFE000000000000001FFFE0
FFFFFF000000000000001FFFE0
FFFFFF800000000000001FFFE0
FFFFFFC00000000000001FFFE0
FFFFFFE00000000000001FFFE0
FFFFFFF00000000000001FFFE0
FFFFFFF80000000000001FFFE0
FFFFFFFC0000000000001FFFE0
FFFFFFFE0000000000001FFFE0
FFFFFFFF0000000000001FFFE0
FFFFFFFF8000000000001FFFE0
FFFFFFFFC000000000001FFFE0
FFFFFFFFE000000000001FFFE0
FFFFFFFFF000000000001FFFE0
FFFFFFFFF800000000001FFFE0
FFFFFFFFFC00000000001FFFE0
FFFFFFFFFE00000000001FFFE0
FFFF7FFFFF00000000001FFFE0
FFFF3FFFFF80000000001FFFE0
FFFF1FFFFFC0000000001FFFE0
FFFF0FFFFFE0000000001FFFE0
FFFF07FFFFF0000000001FFFE0
FFFF03FFFFF8000000001FFFE0
FFFF01FFFFFC000000001FFFE0
FFFF00FFFFFE000000001FFFE0
FFFF007FFFFF000000001FFFE0
FFFF003FFFFF800000001FFFE0
FFFF001FFFFFC00000001FFFE0
FFFF000FFFFFE00000001FFFE0
FFFF0007FFFFF00000001FFFE0
FFFF0003FFFFF80000001FFFE0
FFFF0001FFFFFC0000001FFFE0
FFFF0000FFFFFE0000001FFFE0
FFFF00007FFFFF0000001FFFE0
FFFF00003FFFFFC000001FFFE0
FFFF00001FFFFFE000001FFFE0
FFFF00000FFFFFF000001FFFE0
FFFF000007FFFFF800001FFFE0
FFFF000003FFFFFC00001FFFE0
FFFF000001FFFFFE00001FFFE0
FFFF000000FFFFFF00001FFFE0
FFFF0000007FFFFF80001FFFE0
FFFF0000003FFFFFC0001FFFE0
FFFF0000001FFFFFE0001FFFE0
FFFF0000000FFFFFF0001FFFE0
FFFF00000007FFFFF8001FFFE0
FFFF00000003FFFFFC001FFFE0
FFFF00000001FFFFFE001FFFE0
FFFF00000000FFFFFF001FFFE0
FFFF000000007FFFFF801FFFE0
FFFF000000003FFFFFC01FFFE0
FFFF000000001FFFFFE01FFFE0
FFFF000000000FFFFFF01FFFE0
FFFF0000000003FFFFF81FFFE0
FFFF0000000001FFFFFC1FFFE0
FFFF0000000000FFFFFE1FFFE0
FFFF00000000007FFFFF1FFFE0
FFFF00000000003FFFFF9FFFE0
FFFF00000000001FFFFFDFFFE0
FFFF00000000000FFFFFFFFFE0
FFFF000000000007FFFFFFFFE0
FFFF000000000003FFFFFFFFE0
FFFF000000000001FFFFFFFFE0
FFFF000000000000FFFFFFFFE0
FFFF0000000000007FFFFFFFE0
FFFF0000000000003FFFFFFFE0
FFFF0000000000001FFFFFFFE0
FFFF0000000000000FFFFFFFE0
FFFF00000000000007FFFFFFE0
FFFF00000000000003FFFFFFE0
FFFF00000000000001FFFFFFE0
FFFF00000000000000FFFFFFE0
FFFF000000000000007FFFFFE0
FFFF000000000000003FFFFFE0
FFFF000000000000001FFFFFE0
FFFF000000000000000FFFFFE0
FFFF0000000000000007FFFFE0
FFFF0000000000000003FFFFE0
FFFF0000000000000001FFFFE0
FFFF0000000000000000FFFFE0
FFFF00000000000000007FFFE0
FFFF00000000000000003FFFC0
FFFF00000000000000001FFFC0
FFFF00000000000000000FFF80
FFFF000000000000000003FF00
FFFF000000000000000000FC00
ENDCHAR
STARTCHAR O
ENCODING 79
SWIDTH 968 0
DWIDTH 128 0
BBX 117 96 6 0
BITMAP
0000000001FFFFFFFFF80000000000
000000007FFFFFFFFFFFE000000000
00000003FFFFFFFFFFFFFC00000000
0000001FFFFFFFFFFFFFFF80000000
0000007FFFFFFFFFFFFFFFE0000000
000001FFFFFFFFFFFFFFFFF8000000
000007FFFFFFFFFFFFFFFFFE000000
00000FFFFFFFFFFFFFFFFFFF800000
00003FFFFFFFFFFFFFFFFFFFC00000
00007FFFFFFFFFFFFFFFFFFFE00000
0001FFFFFFFFFFFFFFFFFFFFF80000
0003FFFFFFFFFFFFFFFFFFFFFC0000
0007FFFFFFFFFFFFFFFFFFFFFE0000
000FFFFFFFFFFFFFFFFFFFFFFF0000
001FFFFFFFFFFFFFFFFFFFFFFF8000
003FFFFFFFFFFFFFFFFFFFFFFFC000
003FFFFFFFFFFFFFFFFFFFFFFFC000
007FFFFFFE000000000FFFFFFFE000
00FFFFFFF00000000000FFFFFFF000
01FFFFFF8000000000001FFFFFF800
01FFFFFE00000000000007FFFFF800
03FFFFFC00000000000003FFFFFC00
03FFFFF000000000000000FFFFFC00
07FFFFE0000000000000007FFFFE00
0FFFFFC0000000000000003FFFFF00
0FFFFF80000000000000001FFFFF00
0FFFFF00000000000000000FFFFF00
1FFFFE000000000000000007FFFF80
1FFFFC000000000000000003FFFF80
3FFFFC000000000000000003FFFFC0
3FFFF8000000000000000001FFFFC0
3FFFF0000000000000000000FFFFC0
7FFFF0000000000000000000FFFFE0
7FFFE00000000000000000007FFFE0
7FFFE00000000000000000007FFFE0
7FFFC00000000000000000003FFFE0
FFFFC00000000000000000003FFFF0
FFFFC00000000000000000003FFFF0
FFFFC00000000000000000001FFFF0
FFFF800000000000000000001FFFF0
FFFF800000000000000000001FFFF0
FFFF800000000000000000001FFFF0
FFFF800000000000000000001FFFF0
FFFF800000000000000000001FFFF0
FFFF000000000000000000000FFFF0
FFFF000000000000000000000FFFF0
FFFF000000000000000000000FFFF0
FFFF000000000000000000000FFFF8
FFFF000000000000000000000FFFF0
FFFF000000000000000000000FFFF0
FFFF000000000000000000000FFFF0
FFFF000000000000000000000FFFF0
FFFF800000000000000000001FFFF0
FFFF800000000000000000001FFFF0
FFFF800000000000000000001FFFF0
FFFF800000000000000000001FFFF0
FFFF800000000000000000001FFFF0
FFFFC00000000000000000003FFFF0
7FFFC00000000000000000003FFFE0
7FFFC00000000000000000003FFFE0
7FFFE00000000000000000007FFFE0
7FFFE00000000000000000007FFFE0
3FFFE00000000000000000007FFFC0
3FFFF0000000000000000000FFFFC0
3FFFF0000000000000000000FFFFC0
1FFFF8000000000000000001FFFF80
1FFFFC000000000000000003FFFF80
1FFFFC000000000000000003FFFF80
0FFFFE000000000000000007FFFF00
0FFFFF00000000000000000FFFFF00
07FFFF80000000000000001FFFFE00
07FFFFC0000000000000003FFFFE00
03FFFFE0000000000000007FFFFC00
03FFFFF000000000000000FFFFFC00
01FFFFFC00000000000003FFFFF800
00FFFFFE0000000000000FFFFFF000
00FFFFFF8000000000003FFFFFF000
007FFFFFF00000000000FFFFFFE000
003FFFFFFE000000000FFFFFFFC000
001FFFFFFFFFFFFFFFFFFFFFFF8000
001FFFFFFFFFFFFFFFFFFFFFFF8000
000FFFFFFFFFFFFFFFFFFFFFFF0000
0007FFFFFFFFFFFFFFFFFFFFFE0000
0003FFFFFFFFFFFFFFFFFFFFFC0000
0001FFFFFFFFFFFFFFFFFFFFF80000
00007FFFFFFFFFFFFFFFFFFFE00000
00003FFFFFFFFFFFFFFFFFFFC00000
00001FFFFFFFFFFFFFFFFFFF800000
000007FFFFFFFFFFFFFFFFFE000000
000003FFFFFFFFFFFFFFFFFC000000
000000FFFFFFFFFFFFFFFFF0000000
0000003FFFFFFFFFFFFFFFC0000000
0000000FFFFFFFFFFFFFFF00000000
00000001FFFFFFFFFFFFF800000000
000000003FFFFFFFFFFFC000000000
0000000001FFFFFFFFF80000000000
ENDCHAR
STARTCHAR P
ENCODING 80
SWIDTH 867 0
DWIDTH 114 0
BBX 103 96 8 0
BITMAP
FFFFFFFFFFFFFFFFFFE0000000
FFFFFFFFFFFFFFFFFFFF000000
FFFFFFFFFFFFFFFFFFFFE00000
FFFFFFFFFFFFFFFFFFFFF80000
FFFFFFFFFFFFFFFFFFFFFE0000
FFFFFFFFFFFFFFFFFFFFFF8000
FFFFFFFFFFFFFFFFFFFFFFC000
FFFFFFFFFFFFFFFFFFFFFFF000
FFFFFFFFFFFFFFFFFFFFFFF800
FFFFFFFFFFFFFFFFFFFFFFFC00
FFFFFFFFFFFFFFFFFFFFFFFE00
FFFFFFFFFFFFFFFFFFFFFFFF00
FFFFFFFFFFFFFFFFFFFFFFFF00
FFFFFFFFFFFFFFFFFFFFFFFF80
FFFFFFFFFFFFFFFFFFFFFFFFC0
FFFFFFFFFFFFFFFFFFFFFFFFC0
FFFFFFFFFFFFFFFFFFFFFFFFE0
FFFF800000000000003FFFFFE0
FFFF8000000000000007FFFFF0
FFFF8000000000000001FFFFF0
FFFF8000000000000000FFFFF8
FFFF80000000000000007FFFF8
FFFF80000000000000003FFFF8
FFFF80000000000000001FFFFC
FFFF80000000000000000FFFFC
FFFF80000000000000000FFFFC
FFFF800000000000000007FFFC
FFFF800000000000000007FFFC
FFFF800000000000000003FFFC
FFFF800000000000000003FFFE
FFFF800000000000000003FFFE
FFFF800000000000000003FFFE
FFFF800000000000000003FFFE
FFFF800000000000000003FFFE
FFFF800000000000000003FFFE
FFFF800000000000000003FFFE
FFFF800000000000000003FFFE
FFFF800000000000000003FFFE
FFFF800000000000000003FFFE
FFFF800000000000000003FFFE
FFFF800000000000000003FFFE
FFFF800000000000000007FFFC
FFFF800000000000000007FFFC
FFFF800000000000000007FFFC
FFFF80000000000000000FFFFC
FFFF80000000000000000FFFFC
FFFF80000000000000001FFFF8
FFFF80000000000000003FFFF8
FFFF80000000000000007FFFF8
FFFF8000000000000000FFFFF0
FFFF8000000000000003FFFFF0
FFFF800000000000000FFFFFE0
FFFF800000000000007FFFFFE0
FFFF8007FFFFFFFFFFFFFFFFC0
FFFF8007FFFFFFFFFFFFFFFFC0
FFFF8007FFFFFFFFFFFFFFFF80
FFFF8007FFFFFFFFFFFFFFFF00
FFFF8007FFFFFFFFFFFFFFFF00
FFFF8007FFFFFFFFFFFFFFFE00
FFFF8007FFFFFFFFFFFFFFFC00
FFFF8007FFFFFFFFFFFFFFF800
FFFF8007FFFFFFFFFFFFFFF000
FFFF8007FFFFFFFFFFFFFFE000
FFFF8007FFFFFFFFFFFFFFC000
FFFF8007FFFFFFFFFFFFFF0000
FFFF8007FFFFFFFFFFFFFC0000
FFFF8007FFFFFFFFFFFFF00000
FFFF8007FFFFFFFFFFFFC00000
FFFF8007FFFFFFFFFFFC000000
FFFF8007FFFFFFFFFF80000000
FFFF8000000000000000000000
FFFF8000000000000000000000
FFFF8000000000000000000000
FFFF8000000000000000000000
FFFF8000000000000000000000
FFFF8000000000000000000000
FFFF8000000000000000000000
FFFF8000000000000000000000
FFFF8000000000000000000000
FFFF8000000000000000000000
FFFF8000000000000000000000
FFFF8000000000000000000000
FFFF8000000000000000000000
FFFF8000000000000000000000
FFFF8000000000000000000000
FFFF8000000000000000000000
FFFF8000000000000000000000
FFFF8000000000000000000000
FFFF8000000000000000000000
FFFF8000000000000000000000
FFFF8000000000000000000000
FFFF8000000000000000000000
FFFF8000000000000000000000
FFFF8000000000000000000000
FFFF8000000000000000000000
FFFF8000000000000000000000
ENDCHAR
STARTCHAR Q
ENCODING 81
SWIDTH 968 0
DWIDTH 128 0
BBX 121 96 6 0
BITMAP
0000000001FFFFFFFFF8000000000000
000000007FFFFFFFFFFFE00000000000
00000003FFFFFFFFFFFFFC0000000000
0000001FFFFFFFFFFFFFFF8000000000
0000007FFFFFFFFFFFFFFFE000000000
000001FFFFFFFFFFFFFFFFF800000000
000007FFFFFFFFFFFFFFFFFE00000000
00000FFFFFFFFFFFFFFFFFFF80000000
00003FFFFFFFFFFFFFFFFFFFC0000000
00007FFFFFFFFFFFFFFFFFFFE0000000
0001FFFFFFFFFFFFFFFFFFFFF8000000
0003FFFFFFFFFFFFFFFFFFFFFC000000
0007FFFFFFFFFFFFFFFFFFFFFE000000
000FFFFFFFFFFFFFFFFFFFFFFF000000
001FFFFFFFFFFFFFFFFFFFFFFF800000
003FFFFFFFFFFFFFFFFFFFFFFFC00000
003FFFFFFFFFFFFFFFFFFFFFFFC00000
007FFFFFFE000000000FFFFFFFE00000
00FFFFFFF00000000000FFFFFFF00000
01FFFFFF8000000000001FFFFFF80000
01FFFFFE00000000000007FFFFF80000
03FFFFFC00000000000003FFFFFC0000
03FFFFF000000000000000FFFFFC0000
07FFFFE0000000000000007FFFFE0000
0FFFFFC0000000000000003FFFFF0000
0FFFFF80000000000000001FFFFF0000
0FFFFF00000000000000000FFFFF0000
1FFFFE000000000000000007FFFF8000
1FFFFC000000000000000003FFFF8000
3FFFFC000000000000000003FFFFC000
3FFFF8000000000000000001FFFFC000
3FFFF0000000000000000000FFFFC000
7FFFF0000000000000000000FFFFE000
7FFFE00000000000000000007FFFE000
7FFFE00000000000000000007FFFE000
7FFFC00000000000000000003FFFE000
FFFFC00000000000000000003FFFF000
FFFFC00000000000000000003FFFF000
FFFFC00000000000000000001FFFF000
FFFF800000000000000000001FFFF000
FFFF800000000000000000001FFFF000
FFFF800000000000000000001FFFF000
FFFF800000000000000000001FFFF000
FFFF800000000000000000001FFFF000
FFFF000000000000000000000FFFF000
FFFF000000000000000000000FFFF000
FFFF000000000000000000000FFFF000
FFFF000000000000000000000FFFF800
FFFF000000000000000000000FFFF000
FFFF000000000000000000000FFFF000
FFFF000000000000000000000FFFF000
FFFF000000000000000000000FFFF000
FFFF800000000000000000001FFFF000
FFFF800000000000000000001FFFF000
FFFF800000000000000000001FFFF000
FFFF800000000000000000001FFFF000
FFFF800000003FFFFF0000001FFFF000
FFFFC00000001FFFFFC000003FFFF000
7FFFC000000007FFFFE000003FFFE000
7FFFC000000003FFFFF000003FFFE000
7FFFE000000001FFFFF800007FFFE000
7FFFE0000000007FFFFC00007FFFE000
3FFFE0000000003FFFFF00007FFFC000
3FFFF0000000001FFFFF8000FFFFC000
3FFFF0000000000FFFFFC001FFFFC000
1FFFF80000000003FFFFE001FFFF8000
1FFFFC0000000001FFFFF003FFFF8000
1FFFFC0000000000FFFFF803FFFF8000
0FFFFE00000000007FFFFE07FFFF0000
0FFFFF00000000001FFFFF0FFFFF0000
07FFFF80000000000FFFFF9FFFFE0000
07FFFFC00000000007FFFFFFFFFE0000
03FFFFE00000000001FFFFFFFFFC0000
03FFFFF00000000000FFFFFFFFFC0000
01FFFFFC00000000007FFFFFFFF80000
00FFFFFE00000000003FFFFFFFF00000
00FFFFFF80000000000FFFFFFFF00000
007FFFFFF00000000007FFFFFFE00000
003FFFFFFE000000000FFFFFFFC00000
001FFFFFFFFFFFFFFFFFFFFFFF800000
001FFFFFFFFFFFFFFFFFFFFFFF800000
000FFFFFFFFFFFFFFFFFFFFFFF000000
0007FFFFFFFFFFFFFFFFFFFFFF000000
0003FFFFFFFFFFFFFFFFFFFFFF800000
0001FFFFFFFFFFFFFFFFFFFFFFC00000
00007FFFFFFFFFFFFFFFFFFFFFF00000
00003FFFFFFFFFFFFFFFFFFFFFF80000
00001FFFFFFFFFFFFFFFFFFFFFFC0000
000007FFFFFFFFFFFFFFFFFFFFFF0000
000003FFFFFFFFFFFFFFFFFFFFFF8000
000000FFFFFFFFFFFFFFFFF7FFFFC000
0000003FFFFFFFFFFFFFFFC3FFFFE000
0000000FFFFFFFFFFFFFFF01FFFFF800
00000001FFFFFFFFFFFFF800FFFFFC00
000000003FFFFFFFFFFFC0007FFFFE00
0000000001FFFFFFFFF000003FFFFF80
ENDCHAR
STARTCHAR R
ENCODING 82
SWIDTH 921 0
DWIDTH 122 0
BBX 113 96 8 0
BITMAP
FFFFFFFFFFFFFFFFFFF00000000000
FFFFFFFFFFFFFFFFFFFF8000000000
FFFFFFFFFFFFFFFFFFFFF000000000
FFFFFFFFFFFFFFFFFFFFFC00000000
FFFFFFFFFFFFFFFFFFFFFF00000000
FFFFFFFFFFFFFFFFFFFFFFC0000000
FFFFFFFFFFFFFFFFFFFFFFE0000000
FFFFFFFFFFFFFFFFFFFFFFF8000000
FFFFFFFFFFFFFFFFFFFFFFFC000000
FFFFFFFFFFFFFFFFFFFFFFFE000000
FFFFFFFFFFFFFFFFFFFFFFFF000000
FFFFFFFFFFFFFFFFFFFFFFFF800000
FFFFFFFFFFFFFFFFFFFFFFFF800000
FFFFFFFFFFFFFFFFFFFFFFFFC00000
FFFFFFFFFFFFFFFFFFFFFFFFE00000
FFFFFFFFFFFFFFFFFFFFFFFFE00000
FFFFFFFFFFFFFFFFFFFFFFFFF00000
FFFF800000000000000FFFFFF00000
FFFF8000000000000003FFFFF80000
FFFF8000000000000000FFFFF80000
FFFF80000000000000003FFFFC0000
FFFF80000000000000001FFFFC0000
FFFF80000000000000000FFFFC0000
FFFF800000000000000007FFFE0000
FFFF800000000000000007FFFE0000
FFFF800000000000000003FFFE0000
FFFF800000000000000003FFFE0000
FFFF800000000000000001FFFF0000
FFFF800000000000000001FFFF0000
FFFF800000000000000001FFFF0000
FFFF800000000000000001FFFF0000
FFFF800000000000000001FFFF0000
FFFF800000000000000001FFFF0000
FFFF800000000000000000FFFF0000
FFFF800000000000000000FFFF0000
FFFF800000000000000000FFFF0000
FFFF800000000000000001FFFF0000
FFFF800000000000000001FFFF0000
FFFF800000000000000001FFFF0000
FFFF800000000000000001FFFF0000
FFFF800000000000000001FFFF0000
FFFF800000000000000001FFFF0000
FFFF800000000000000001FFFE0000
FFFF800000000000000003FFFE0000
FFFF800000000000000003FFFE0000
FFFF800000000000000007FFFE0000
FFFF800000000000000007FFFE0000
FFFF80000000000000000FFFFC0000
FFFF80000000000000001FFFFC0000
FFFF80000000000000001FFFFC0000
FFFF80000000000000007FFFF80000
FFFF8000000000000000FFFFF80000
FFFF8000000000000003FFFFF00000
FFFF800000000000001FFFFFF00000
FFFF8007FFFFFFFFFFFFFFFFE00000
FFFF8007FFFFFFFFFFFFFFFFC00000
FFFF8007FFFFFFFFFFFFFFFFC00000
FFFF8007FFFFFFFFFFFFFFFF800000
FFFF8007FFFFFFFFFFFFFFFF000000
FFFF8007FFFFFFFFFFFFFFFE000000
FFFF8007FFFFFFFFFFFFFFFC000000
FFFF8007FFFFFFFFFFFFFFF8000000
FFFF8007FFFFFFFFFFFFFFF0000000
FFFF8007FFFFFFFFFFFFFFC0000000
FFFF8007FFFFFFFFFFFFFF80000000
FFFF8007FFFFFFFFFFFFFE00000000
FFFF8007FFFFFFFFFFFFF000000000
FFFF8007FFFFFFFFFFFFF800000000
FFFF8007FFFFFFFFFFFFFC00000000
FFFF8000000000003FFFFE00000000
FFFF8000000000003FFFFF00000000
FFFF8000000000001FFFFF80000000
FFFF8000000000000FFFFFC0000000
FFFF80000000000007FFFFE0000000
FFFF80000000000003FFFFF0000000
FFFF80000000000001FFFFF8000000
FFFF80000000000000FFFFFC000000
FFFF800000000000007FFFFE000000
FFFF800000000000003FFFFF000000
FFFF800000000000001FFFFF800000
FFFF800000000000001FFFFFC00000
FFFF800000000000000FFFFFE00000
FFFF8000000000000007FFFFF00000
FFFF8000000000000003FFFFF80000
FFFF8000000000000001FFFFFC0000
FFFF8000000000000000FFFFFE0000
FFFF80000000000000007FFFFF0000
FFFF80000000000000003FFFFF8000
FFFF80000000000000001FFFFFC000
FFFF80000000000000000FFFFFE000
FFFF80000000000000000FFFFFF000
FFFF800000000000000007FFFFF800
FFFF800000000000000003FFFFFC00
FFFF800000000000000001FFFFFE00
FFFF800000000000000000FFFFFF00
FFFF8000000000000000007FFFFF80
ENDCHAR
STARTCHAR S
ENCODING 83
SWIDTH 880 0
DWIDTH 116 0
BBX 103 96 7 0
BITMAP
000001FFFFFFFFFFFFFFFFFFC0
00003FFFFFFFFFFFFFFFFFFFC0
0000FFFFFFFFFFFFFFFFFFFFC0
0007FFFFFFFFFFFFFFFFFFFFC0
000FFFFFFFFFFFFFFFFFFFFFC0
003FFFFFFFFFFFFFFFFFFFFFC0
007FFFFFFFFFFFFFFFFFFFFFC0
00FFFFFFFFFFFFFFFFFFFFFFC0
01FFFFFFFFFFFFFFFFFFFFFFC0
03FFFFFFFFFFFFFFFFFFFFFFC0
07FFFFFFFFFFFFFFFFFFFFFFC0
0FFFFFFFFFFFFFFFFFFFFFFFC0
0FFFFFFFFFFFFFFFFFFFFFFFC0
1FFFFFFFFFFFFFFFFFFFFFFFC0
3FFFFFFFFFFFFFFFFFFFFFFFC0
3FFFFFFFFFFFFFFFFFFFFFFFC0
3FFFFFFFFFFFFFFFFFFFFFFFC0
7FFFFF00000000000000000000
7FFFFC00000000000000000000
7FFFF800000000000000000000
FFFFF000000000000000000000
FFFFE000000000000000000000
FFFFE000000000000000000000
FFFFC000000000000000000000
FFFFC000000000000000000000
FFFFC000000000000000000000
FFFF8000000000000000000000
FFFF8000000000000000000000
FFFF8000000000000000000000
FFFF8000000000000000000000
FFFF8000000000000000000000
FFFFC000000000000000000000
FFFFC000000000000000000000
7FFFC000000000000000000000
7FFFE000000000000000000000
7FFFE000000000000000000000
7FFFF000000000000000000000
3FFFF800000000000000000000
3FFFFE00000000000000000000
1FFFFF80000000000000000000
1FFFFFFFFFFFFFFFFFFF800000
0FFFFFFFFFFFFFFFFFFFF80000
0FFFFFFFFFFFFFFFFFFFFF0000
07FFFFFFFFFFFFFFFFFFFFE000
03FFFFFFFFFFFFFFFFFFFFF000
01FFFFFFFFFFFFFFFFFFFFFC00
00FFFFFFFFFFFFFFFFFFFFFE00
007FFFFFFFFFFFFFFFFFFFFF00
003FFFFFFFFFFFFFFFFFFFFF80
000FFFFFFFFFFFFFFFFFFFFFC0
0003FFFFFFFFFFFFFFFFFFFFE0
0000FFFFFFFFFFFFFFFFFFFFE0
00003FFFFFFFFFFFFFFFFFFFF0
000001FFFFFFFFFFFFFFFFFFF0
00000000000000000003FFFFF8
000000000000000000007FFFF8
000000000000000000001FFFFC
000000000000000000000FFFFC
0000000000000000000007FFFC
0000000000000000000003FFFC
0000000000000000000003FFFC
0000000000000000000003FFFE
0000000000000000000001FFFE
0000000000000000000001FFFE
0000000000000000000001FFFE
0000000000000000000001FFFE
0000000000000000000001FFFE
0000000000000000000001FFFE
0000000000000000000001FFFE
0000000000000000000001FFFE
0000000000000000000001FFFE
0000000000000000000003FFFE
0000000000000000000003FFFE
0000000000000000000007FFFE
0000000000000000000007FFFC
000000000000000000000FFFFC
000000000000000000001FFFFC
000000000000000000007FFFFC
00000000000000000001FFFFF8
7FFFFFFFFFFFFFFFFFFFFFFFF8
7FFFFFFFFFFFFFFFFFFFFFFFF8
7FFFFFFFFFFFFFFFFFFFFFFFF0
7FFFFFFFFFFFFFFFFFFFFFFFF0
7FFFFFFFFFFFFFFFFFFFFFFFE0
7FFFFFFFFFFFFFFFFFFFFFFFC0
7FFFFFFFFFFFFFFFFFFFFFFFC0
7FFFFFFFFFFFFFFFFFFFFFFF80
7FFFFFFFFFFFFFFFFFFFFFFF00
7FFFFFFFFFFFFFFFFFFFFFFE00
7FFFFFFFFFFFFFFFFFFFFFFC00
7FFFFFFFFFFFFFFFFFFFFFF800
7FFFFFFFFFFFFFFFFFFFFFE000
7FFFFFFFFFFFFFFFFFFFFF8000
7FFFFFFFFFFFFFFFFFFFFE0000
7FFFFFFFFFFFFFFFFFFFF80000
7FFFFFFFFFFFFFFFFFFF000000
ENDCHAR
STARTCHAR T
ENCODING 84
SWIDTH 720 0
DWIDTH 95 0
BBX 89 96 3 0
BITMAP
FFFFFFFFFFFFFFFFFFFFFF80
FFFFFFFFFFFFFFFFFFFFFF80
FFFFFFFFFFFFFFFFFFFFFF80
FFFFFFFFFFFFFFFFFFFFFF80
FFFFFFFFFFFFFFFFFFFFFF80
FFFFFFFFFFFFFFFFFFFFFF80
FFFFFFFFFFFFFFFFFFFFFF80
FFFFFFFFFFFFFFFFFFFFFF80
FFFFFFFFFFFFFFFFFFFFFF80
FFFFFFFFFFFFFFFFFFFFFF80
FFFFFFFFFFFFFFFFFFFFFF80
FFFFFFFFFFFFFFFFFFFFFF80
FFFFFFFFFFFFFFFFFFFFFF80
FFFFFFFFFFFFFFFFFFFFFF80
FFFFFFFFFFFFFFFFFFFFFF80
FFFFFFFFFFFFFFFFFFFFFF80
FFFFFFFFFFFFFFFFFFFFFF80
000000000FFFF80000000000
000000000FFFF80000000000
000000000FFFF80000000000
000000000FFFF80000000000
000000000FFFF80000000000
000000000FFFF80000000000
000000000FFFF80000000000
000000000FFFF80000000000
000000000FFFF80000000000
000000000FFFF80000000000
000000000FFFF80000000000
000000000FFFF80000000000
000000000FFFF80000000000
000000000FFFF80000000000
000000000FFFF80000000000
000000000FFFF80000000000
000000000FFFF80000000000
000000000FFFF80000000000
000000000FFFF80000000000
000000000FFFF80000000000
000000000FFFF80000000000
000000000FFFF80000000000
000000000FFFF80000000000
000000000FFFF80000000000
000000000FFFF80000000000
000000000FFFF80000000000
000000000FFFF80000000000
000000000FFFF80000000000
000000000FFFF80000000000
000000000FFFF80000000000
000000000FFFF80000000000
000000000FFFF80000000000
000000000FFFF80000000000
000000000FFFF80000000000
000000000FFFF80000000000
000000000FFFF80000000000
000000000FFFF80000000000
000000000FFFF80000000000
000000000FFFF80000000000
000000000FFFF80000000000
000000000FFFF80000000000
000000000FFFF80000000000
000000000FFFF80000000000
000000000FFFF80000000000
000000000FFFF80000000000
000000000FFFF80000000000
000000000FFFF80000000000
000000000FFFF80000000000
000000000FFFF80000000000
000000000FFFF80000000000
000000000FFFF80000000000
000000000FFFF80000000000
000000000FFFF80000000000
000000000FFFF80000000000
000000000FFFF80000000000
000000000FFFF80000000000
000000000FFFF80000000000
000000000FFFF80000000000
000000000FFFF80000000000
000000000FFFF80000000000
000000000FFFF80000000000
000000000FFFF80000000000
000000000FFFF80000000000
000000000FFFF80000000000
000000000FFFF80000000000
000000000FFFF80000000000
000000000FFFF80000000000
000000000FFFF80000000000
000000000FFFF80000000000
000000000FFFF80000000000
000000000FFFF80000000000
000000000FFFF80000000000
000000000FFFF80000000000
000000000FFFF80000000000
000000000FFFF80000000000
000000000FFFF80000000000
000000000FFFF80000000000
000000000FFFF80000000000
000000000FFFF80000000000
ENDCHAR
STARTCHAR U
ENCODING 85
SWIDTH 889 0
DWIDTH 117 0
BBX 103 98 7 -2
BITMAP
FFFF800000000000000001FFFE
FFFF800000000000000001FFFE
FFFF800000000000000001FFFE
FFFF800000000000000001FFFE
FFFF800000000000000001FFFE
FFFF800000000000000001FFFE
FFFF800000000000000001FFFE
FFFF800000000000000001FFFE
FFFF800000000000000001FFFE
FFFF800000000000000001FFFE
FFFF800000000000000001FFFE
FFFF800000000000000001FFFE
FFFF800000000000000001FFFE
FFFF800000000000000001FFFE
FFFF800000000000000001FFFE
FFFF800000000000000001FFFE
FFFF800000000000000001FFFE
FFFF800000000000000001FFFE
FFFF800000000000000001FFFE
FFFF800000000000000001FFFE
FFFF800000000000000001FFFE
FFFF800000000000000001FFFE
FFFF800000000000000001FFFE
FFFF800000000000000001FFFE
FFFF800000000000000001FFFE
FFFF800000000000000001FFFE
FFFF800000000000000001FFFE
FFFF800000000000000001FFFE
FFFF800000000000000001FFFE
FFFF800000000000000001FFFE
FFFF800000000000000001FFFE
FFFF800000000000000001FFFE
FFFF800000000000000001FFFE
FFFF800000000000000001FFFE
FFFF800000000000000001FFFE
FFFF800000000000000001FFFE
FFFF800000000000000001FFFE
FFFF800000000000000001FFFE
FFFF800000000000000001FFFE
FFFF800000000000000001FFFE
FFFF800000000000000001FFFE
FFFF800000000000000001FFFE
FFFF800000000000000001FFFE
FFFF800000000000000001FFFE
FFFF800000000000000001FFFE
FFFF800000000000000001FFFE
FFFF800000000000000001FFFE
FFFF800000000000000001FFFE
FFFF800000000000000001FFFE
FFFF800000000000000001FFFE
FFFF800000000000000001FFFE
FFFF800000000000000001FFFE
FFFF800000000000000001FFFE
FFFF800000000000000001FFFE
FFFF800000000000000001FFFE
FFFF800000000000000001FFFE
FFFF800000000000000001FFFE
FFFF800000000000000001FFFE
FFFF800000000000000001FFFE
FFFF800000000000000001FFFE
FFFFC00000000000000001FFFE
FFFFC00000000000000003FFFE
FFFFC00000000000000003FFFE
FFFFC00000000000000003FFFE
7FFFC00000000000000003FFFE
7FFFE00000000000000003FFFE
7FFFE00000000000000007FFFC
7FFFE00000000000000007FFFC
7FFFF0000000000000000FFFFC
3FFFF0000000000000000FFFFC
3FFFF8000000000000001FFFF8
3FFFFC000000000000001FFFF8
3FFFFE000000000000003FFFF8
1FFFFE000000000000007FFFF8
1FFFFF80000000000000FFFFF0
0FFFFFC0000000000003FFFFF0
0FFFFFE0000000000007FFFFE0
07FFFFF800000000001FFFFFE0
07FFFFFF0000000000FFFFFFC0
03FFFFFFF000000007FFFFFFC0
03FFFFFFFFC00003FFFFFFFF80
01FFFFFFFFFFFFFFFFFFFFFF00
00FFFFFFFFFFFFFFFFFFFFFF00
00FFFFFFFFFFFFFFFFFFFFFE00
007FFFFFFFFFFFFFFFFFFFFC00
003FFFFFFFFFFFFFFFFFFFF800
001FFFFFFFFFFFFFFFFFFFF000
000FFFFFFFFFFFFFFFFFFFE000
0003FFFFFFFFFFFFFFFFFFC000
0001FFFFFFFFFFFFFFFFFF0000
00007FFFFFFFFFFFFFFFFE0000
00003FFFFFFFFFFFFFFFF80000
00000FFFFFFFFFFFFFFFE00000
000001FFFFFFFFFFFFFF000000
0000003FFFFFFFFFFFFC000000
00000007FFFFFFFFFFC0000000
000000003FFFFFFFF800000000
00000000001FFFF00000000000
ENDCHAR
STARTCHAR V
ENCODING 86
SWIDTH 989 0
DWIDTH 131 0
BBX 127 98 2 -2
BITMAP
FFFFF8000000000000000000001FFFFE
7FFFF8000000000000000000003FFFFC
7FFFFC000000000000000000003FFFF8
3FFFFC000000000000000000007FFFF0
1FFFFE000000000000000000007FFFF0
1FFFFF00000000000000000000FFFFE0
0FFFFF00000000000000000001FFFFE0
0FFFFF80000000000000000001FFFFC0
07FFFF80000000000000000003FFFF80
03FFFFC0000000000000000003FFFF80
03FFFFC0000000000000000007FFFF00
01FFFFE0000000000000000007FFFF00
01FFFFF000000000000000000FFFFE00
00FFFFF000000000000000001FFFFC00
007FFFF800000000000000001FFFFC00
007FFFF800000000000000003FFFF800
003FFFFC00000000000000003FFFF800
003FFFFE00000000000000007FFFF000
001FFFFE0000000000000000FFFFE000
000FFFFF0000000000000000FFFFE000
000FFFFF0000000000000001FFFFC000
0007FFFF8000000000000001FFFFC000
0007FFFFC000000000000003FFFF8000
0003FFFFC000000000000003FFFF0000
0001FFFFE000000000000007FFFF0000
0001FFFFE00000000000000FFFFE0000
0000FFFFF00000000000000FFFFE0000
0000FFFFF00000000000001FFFFC0000
00007FFFF80000000000001FFFF80000
00003FFFFC0000000000003FFFF80000
00003FFFFC0000000000007FFFF00000
00001FFFFE0000000000007FFFF00000
00001FFFFE000000000000FFFFE00000
00000FFFFF000000000000FFFFC00000
000007FFFF800000000001FFFFC00000
000007FFFF800000000003FFFF800000
000003FFFFC00000000003FFFF800000
000003FFFFC00000000007FFFF000000
000001FFFFE00000000007FFFE000000
000000FFFFF0000000000FFFFE000000
000000FFFFF0000000000FFFFC000000
0000007FFFF8000000001FFFFC000000
0000007FFFF8000000003FFFF8000000
0000003FFFFC000000003FFFF0000000
0000001FFFFC000000007FFFF0000000
0000001FFFFE000000007FFFE0000000
0000000FFFFF00000000FFFFE0000000
0000000FFFFF00000001FFFFC0000000
00000007FFFF80000001FFFF80000000
00000003FFFF80000003FFFF80000000
00000003FFFFC0000003FFFF00000000
00000001FFFFE0000007FFFF00000000
00000001FFFFE0000007FFFE00000000
00000000FFFFF000000FFFFC00000000
000000007FFFF000001FFFFC00000000
000000007FFFF800001FFFF800000000
000000003FFFFC00003FFFF800000000
000000003FFFFC00003FFFF000000000
000000001FFFFE00007FFFE000000000
000000001FFFFE0000FFFFE000000000
000000000FFFFF0000FFFFC000000000
0000000007FFFF0001FFFFC000000000
0000000007FFFF8001FFFF8000000000
0000000003FFFFC003FFFF0000000000
0000000003FFFFC003FFFF0000000000
0000000001FFFFE007FFFE0000000000
0000000000FFFFE00FFFFE0000000000
0000000000FFFFF00FFFFC0000000000
00000000007FFFF81FFFF80000000000
00000000007FFFF81FFFF80000000000
00000000003FFFFC3FFFF00000000000
00000000001FFFFC7FFFF00000000000
00000000001FFFFE7FFFE00000000000
00000000000FFFFFFFFFC00000000000
00000000000FFFFFFFFFC00000000000
000000000007FFFFFFFF800000000000
000000000003FFFFFFFF800000000000
000000000003FFFFFFFF000000000000
000000000001FFFFFFFE000000000000
000000000001FFFFFFFE000000000000
000000000000FFFFFFFC000000000000
0000000000007FFFFFFC000000000000
0000000000007FFFFFF8000000000000
0000000000003FFFFFF0000000000000
0000000000003FFFFFF0000000000000
0000000000001FFFFFE0000000000000
0000000000000FFFFFE0000000000000
0000000000000FFFFFC0000000000000
00000000000007FFFF80000000000000
00000000000007FFFF80000000000000
00000000000003FFFF00000000000000
00000000000001FFFF00000000000000
00000000000001FFFE00000000000000
00000000000000FFFC00000000000000
000000000000007FFC00000000000000
000000000000003FF000000000000000
000000000000001FE000000000000000
00000000000000010000000000000000
ENDCHAR
STARTCHAR W
ENCODING 87
SWIDTH 1268 0
DWIDTH 167 0
BBX 163 97 2 -1
BITMAP
FFFFF0000000FFFFF8000000000000000000FFFFE0
7FFFF80000007FFFF8000000000000000000FFFFE0
7FFFF80000003FFFFC000000000000000001FFFFC0
3FFFFC0000003FFFFC000000000000000001FFFFC0
3FFFFC0000001FFFFE000000000000000003FFFF80
1FFFFE0000001FFFFE000000000000000003FFFF00
1FFFFE0000000FFFFF000000000000000007FFFF00
0FFFFF0000000FFFFF000000000000000007FFFE00
0FFFFF00000007FFFF80000000000000000FFFFE00
07FFFF80000007FFFF80000000000000000FFFFC00
03FFFF80000003FFFFC0000000000000001FFFFC00
03FFFFC0000003FFFFC0000000000000001FFFF800
01FFFFC0000001FFFFE0000000000000003FFFF800
01FFFFE0000001FFFFE0000000000000003FFFF000
00FFFFF0000000FFFFF0000000000000007FFFF000
00FFFFF0000000FFFFF000000000000000FFFFE000
007FFFF80000007FFFF800000000000000FFFFC000
007FFFF80000007FFFF800000000000001FFFFC000
003FFFFC0000003FFFFC00000000000001FFFF8000
003FFFFC0000003FFFFC00000000000003FFFF8000
001FFFFE0000001FFFFE00000000000003FFFF0000
001FFFFE0000001FFFFE00000000000007FFFF0000
000FFFFF0000000FFFFF00000000000007FFFE0000
0007FFFF0000000FFFFF0000000000000FFFFE0000
0007FFFF80000007FFFF8000000000000FFFFC0000
0003FFFF80000003FFFF8000000000001FFFFC0000
0003FFFFC0000003FFFFC000000000001FFFF80000
0001FFFFC0000001FFFFC000000000003FFFF80000
0001FFFFE0000001FFFFE000000000003FFFF00000
0000FFFFE0000000FFFFE000000000007FFFE00000
0000FFFFF0000000FFFFF000000000007FFFE00000
00007FFFF00000007FFFF00000000000FFFFC00000
00007FFFF80000007FFFF80000000001FFFFC00000
00003FFFFC0000003FFFF80000000001FFFF800000
00001FFFFC0000003FFFFC0000000003FFFF800000
00001FFFFE0000001FFFFC0000000003FFFF000000
00000FFFFE0000001FFFFE0000000007FFFF000000
00000FFFFF0000000FFFFE0000000007FFFE000000
000007FFFF0000000FFFFF000000000FFFFE000000
000007FFFF80000007FFFF000000000FFFFC000000
000003FFFF80000007FFFF800000001FFFFC000000
000003FFFFC0000003FFFF800000001FFFF8000000
000001FFFFC0000003FFFFC00000003FFFF0000000
000001FFFFE0000001FFFFC00000003FFFF0000000
000000FFFFE0000001FFFFE00000007FFFE0000000
000000FFFFF0000000FFFFE00000007FFFE0000000
0000007FFFF0000000FFFFF0000000FFFFC0000000
0000003FFFF80000007FFFF0000000FFFFC0000000
0000003FFFF80000007FFFF8000001FFFF80000000
0000001FFFFC000000FFFFF8000003FFFF80000000
0000001FFFFC000000FFFFFC000003FFFF00000000
0000000FFFFE000001FFFFFC000007FFFF00000000
0000000FFFFE000001FFFFFE000007FFFE00000000
00000007FFFF000003FFFFFE00000FFFFC00000000
00000007FFFF800003FFFFFF00000FFFFC00000000
00000003FFFF800007FFFFFF00001FFFF800000000
00000003FFFFC00007FFFFFF80001FFFF800000000
00000001FFFFC0000FFFFFFF80003FFFF000000000
00000000FFFFE0001FFFFFFFC0003FFFF000000000
00000000FFFFE0001FFFFFFFC0007FFFE000000000
000000007FFFF0003FFFFFFFE0007FFFE000000000
000000007FFFF0003FFFFFFFE000FFFFC000000000
000000003FFFF8007FFFFFFFF000FFFFC000000000
000000003FFFF8007FFFFFFFF001FFFF8000000000
000000001FFFFC00FFFFBFFFF801FFFF8000000000
000000001FFFFC01FFFFBFFFF803FFFF0000000000
000000000FFFFE01FFFF1FFFFC07FFFE0000000000
000000000FFFFE03FFFF1FFFFC07FFFE0000000000
0000000007FFFF03FFFE0FFFFE0FFFFC0000000000
0000000007FFFF07FFFE07FFFE0FFFFC0000000000
0000000003FFFF87FFFC07FFFF1FFFF80000000000
0000000001FFFF8FFFFC03FFFF1FFFF80000000000
0000000001FFFFDFFFF803FFFFBFFFF00000000000
0000000000FFFFFFFFF801FFFFBFFFF00000000000
0000000000FFFFFFFFF001FFFFFFFFE00000000000
00000000007FFFFFFFF000FFFFFFFFE00000000000
00000000007FFFFFFFE000FFFFFFFFC00000000000
00000000003FFFFFFFC0007FFFFFFF800000000000
00000000003FFFFFFFC0007FFFFFFF800000000000
00000000001FFFFFFF80003FFFFFFF000000000000
00000000001FFFFFFF80003FFFFFFF000000000000
00000000000FFFFFFF00001FFFFFFE000000000000
00000000000FFFFFFF00001FFFFFFE000000000000
000000000007FFFFFE00000FFFFFFC000000000000
000000000003FFFFFE000007FFFFFC000000000000
000000000003FFFFFC000007FFFFF8000000000000
000000000001FFFFFC000003FFFFF8000000000000
000000000001FFFFF8000003FFFFF0000000000000
000000000000FFFFF8000001FFFFF0000000000000
000000000000FFFFF0000001FFFFE0000000000000
0000000000007FFFE0000000FFFFC0000000000000
0000000000007FFFE0000000FFFFC0000000000000
0000000000003FFFC00000007FFF80000000000000
0000000000001FFFC00000003FFF80000000000000
0000000000000FFF800000001FFF00000000000000
00000000000007FE000000000FFC00000000000000
00000000000001F80000000003F000000000000000
ENDCHAR
STARTCHAR X
ENCODING 88
SWIDTH 1000 0
DWIDTH 132 0
BBX 125 96 3 0
BITMAP
0FFFFFE000000000000000001FFFFF80
07FFFFF000000000000000003FFFFF00
03FFFFF800000000000000007FFFFE00
01FFFFFC0000000000000000FFFFF800
00FFFFFE0000000000000001FFFFF000
007FFFFF0000000000000003FFFFE000
003FFFFF8000000000000007FFFFC000
001FFFFFC00000000000000FFFFF8000
000FFFFFE00000000000001FFFFF0000
0007FFFFF00000000000003FFFFE0000
0003FFFFFC0000000000007FFFFC0000
0000FFFFFE000000000000FFFFF80000
00007FFFFF000000000001FFFFF00000
00003FFFFF800000000003FFFFE00000
00001FFFFFC00000000007FFFFC00000
00000FFFFFE0000000000FFFFF800000
000007FFFFF0000000001FFFFF000000
000003FFFFF8000000003FFFFE000000
000001FFFFFC000000007FFFFC000000
000000FFFFFE00000000FFFFF8000000
0000007FFFFF00000003FFFFF0000000
0000003FFFFF80000007FFFFE0000000
0000001FFFFFC000000FFFFFC0000000
0000000FFFFFE000001FFFFF80000000
00000007FFFFF000003FFFFF00000000
00000003FFFFF800007FFFFE00000000
00000001FFFFFC0000FFFFFC00000000
00000000FFFFFE0001FFFFF800000000
000000007FFFFF0003FFFFF000000000
000000003FFFFF8007FFFFE000000000
000000001FFFFFC00FFFFF8000000000
000000000FFFFFE01FFFFF0000000000
0000000007FFFFF03FFFFE0000000000
0000000003FFFFF87FFFFC0000000000
0000000001FFFFFCFFFFF80000000000
0000000000FFFFFFFFFFF00000000000
00000000007FFFFFFFFFE00000000000
00000000003FFFFFFFFFC00000000000
00000000000FFFFFFFFF800000000000
000000000007FFFFFFFF000000000000
000000000003FFFFFFFE000000000000
000000000001FFFFFFFC000000000000
000000000000FFFFFFF8000000000000
0000000000007FFFFFF0000000000000
0000000000003FFFFFE0000000000000
0000000000001FFFFFC0000000000000
0000000000001FFFFFC0000000000000
0000000000003FFFFFE0000000000000
0000000000007FFFFFF0000000000000
000000000000FFFFFFF8000000000000
000000000001FFFFFFFC000000000000
000000000003FFFFFFFE000000000000
000000000007FFFFFFFF000000000000
00000000000FFFFFFFFF800000000000
00000000001FFFFFFFFFC00000000000
00000000003FFFFFFFFFE00000000000
00000000007FFFFFFFFFF00000000000
0000000000FFFFFBFFFFF80000000000
0000000001FFFFF1FFFFFC0000000000
0000000003FFFFE0FFFFFE0000000000
0000000007FFFFC07FFFFF0000000000
000000001FFFFF803FFFFF8000000000
000000003FFFFF001FFFFFC000000000
000000007FFFFE000FFFFFE000000000
00000000FFFFFC0007FFFFF000000000
00000001FFFFF80003FFFFFC00000000
00000003FFFFF00000FFFFFE00000000
00000007FFFFE000007FFFFF00000000
0000000FFFFFC000003FFFFF80000000
0000001FFFFF8000001FFFFFC0000000
0000003FFFFF0000000FFFFFE0000000
0000007FFFFE00000007FFFFF0000000
000000FFFFFC00000003FFFFF8000000
000001FFFFF800000001FFFFFC000000
000003FFFFF000000000FFFFFE000000
000007FFFFE0000000007FFFFF000000
00000FFFFFC0000000003FFFFF800000
00001FFFFF80000000001FFFFFC00000
00003FFFFE00000000000FFFFFE00000
00007FFFFC000000000007FFFFF00000
0000FFFFF8000000000003FFFFF80000
0001FFFFF0000000000001FFFFFC0000
0003FFFFE0000000000000FFFFFE0000
0007FFFFC00000000000007FFFFF0000
000FFFFF800000000000003FFFFF8000
001FFFFF000000000000001FFFFFC000
003FFFFE000000000000000FFFFFE000
007FFFFC0000000000000007FFFFF000
00FFFFF80000000000000003FFFFFC00
01FFFFF00000000000000001FFFFFE00
03FFFFE00000000000000000FFFFFF00
07FFFFC000000000000000007FFFFF80
0FFFFF8000000000000000003FFFFFC0
3FFFFF0000000000000000001FFFFFE0
7FFFFE0000000000000000000FFFFFF0
FFFFFC00000000000000000007FFFFF8
ENDCHAR
STARTCHAR Y
ENCODING 89
SWIDTH 926 0
DWIDTH 122 0
BBX 119 96 2 0
BITMAP
FFFFFE0000000000000000007FFFFE
7FFFFF000000000000000000FFFFF8
3FFFFF000000000000000001FFFFF0
1FFFFF800000000000000003FFFFF0
0FFFFFC00000000000000007FFFFE0
0FFFFFE0000000000000000FFFFFC0
07FFFFF0000000000000000FFFFF80
03FFFFF8000000000000001FFFFF00
01FFFFF8000000000000003FFFFE00
00FFFFFC000000000000007FFFFC00
007FFFFE00000000000000FFFFFC00
003FFFFF00000000000001FFFFF800
003FFFFF80000000000001FFFFF000
001FFFFFC0000000000003FFFFE000
000FFFFFE0000000000007FFFFC000
0007FFFFE000000000000FFFFF8000
0003FFFFF000000000001FFFFF0000
0001FFFFF800000000003FFFFF0000
0000FFFFFC00000000007FFFFE0000
0000FFFFFE00000000007FFFFC0000
00007FFFFF0000000000FFFFF80000
00003FFFFF0000000001FFFFF00000
00001FFFFF8000000003FFFFE00000
00000FFFFFC000000007FFFFC00000
000007FFFFE00000000FFFFFC00000
000003FFFFF00000000FFFFF800000
000003FFFFF80000001FFFFF000000
000001FFFFFC0000003FFFFE000000
000000FFFFFC0000007FFFFC000000
0000007FFFFE000000FFFFF8000000
0000003FFFFF000001FFFFF0000000
0000001FFFFF800003FFFFF0000000
0000000FFFFFC00003FFFFE0000000
0000000FFFFFE00007FFFFC0000000
00000007FFFFE0000FFFFF80000000
00000003FFFFF0001FFFFF00000000
00000001FFFFF8003FFFFE00000000
00000000FFFFFC007FFFFC00000000
000000007FFFFE00FFFFFC00000000
000000003FFFFF00FFFFF800000000
000000003FFFFF01FFFFF000000000
000000001FFFFF83FFFFE000000000
000000000FFFFFC7FFFFC000000000
0000000007FFFFEFFFFF8000000000
0000000003FFFFFFFFFF0000000000
0000000001FFFFFFFFFF0000000000
0000000001FFFFFFFFFE0000000000
0000000000FFFFFFFFFC0000000000
00000000007FFFFFFFF80000000000
00000000003FFFFFFFF00000000000
00000000001FFFFFFFE00000000000
00000000000FFFFFFFC00000000000
000000000007FFFFFFC00000000000
000000000007FFFFFF800000000000
000000000003FFFFFF000000000000
000000000001FFFFFE000000000000
000000000000FFFFFC000000000000
0000000000007FFFF8000000000000
0000000000003FFFF0000000000000
0000000000001FFFF0000000000000
0000000000001FFFE0000000000000
0000000000001FFFE0000000000000
0000000000001FFFE0000000000000
0000000000001FFFE0000000000000
0000000000001FFFE0000000000000
0000000000001FFFE0000000000000
0000000000001FFFE0000000000000
0000000000001FFFE0000000000000
0000000000001FFFE0000000000000
0000000000001FFFE0000000000000
0000000000001FFFE0000000000000
0000000000001FFFE0000000000000
0000000000001FFFE0000000000000
0000000000001FFFE0000000000000
0000000000001FFFE0000000000000
0000000000001FFFE0000000000000
0000000000001FFFE0000000000000
0000000000001FFFE0000000000000
0000000000001FFFE0000000000000
0000000000001FFFE0000000000000
0000000000001FFFE0000000000000
0000000000001FFFE0000000000000
0000000000001FFFE0000000000000
0000000000001FFFE0000000000000
0000000000001FFFE0000000000000
0000000000001FFFE0000000000000
0000000000001FFFE0000000000000
0000000000001FFFE0000000000000
0000000000001FFFE0000000000000
0000000000001FFFE0000000000000
0000000000001FFFE0000000000000
0000000000001FFFE0000000000000
0000000000001FFFE0000000000000
0000000000001FFFE0000000000000
0000000000001FFFE0000000000000
0000000000001FFFE0000000000000
ENDCHAR
STARTCHAR Z
ENCODING 90
SWIDTH 802 0
DWIDTH 106 0
BBX 95 96 5 0
BITMAP
7FFFFFFFFFFFFFFFFFFFFF80
7FFFFFFFFFFFFFFFFFFFFFE0
7FFFFFFFFFFFFFFFFFFFFFF0
7FFFFFFFFFFFFFFFFFFFFFF8
7FFFFFFFFFFFFFFFFFFFFFFC
7FFFFFFFFFFFFFFFFFFFFFFC
7FFFFFFFFFFFFFFFFFFFFFFE
7FFFFFFFFFFFFFFFFFFFFFFE
7FFFFFFFFFFFFFFFFFFFFFFE
7FFFFFFFFFFFFFFFFFFFFFFE
7FFFFFFFFFFFFFFFFFFFFFFE
7FFFFFFFFFFFFFFFFFFFFFFC
7FFFFFFFFFFFFFFFFFFFFFFC
7FFFFFFFFFFFFFFFFFFFFFF8
7FFFFFFFFFFFFFFFFFFFFFF8
7FFFFFFFFFFFFFFFFFFFFFF0
00000000000000001FFFFFE0
00000000000000003FFFFFC0
00000000000000007FFFFF80
0000000000000000FFFFFF00
0000000000000001FFFFFE00
0000000000000003FFFFFC00
0000000000000007FFFFF800
000000000000000FFFFFF000
000000000000001FFFFFE000
000000000000003FFFFFC000
000000000000007FFFFF8000
00000000000000FFFFFF0000
00000000000001FFFFFE0000
00000000000003FFFFFC0000
00000000000007FFFFF80000
0000000000000FFFFFF00000
0000000000001FFFFFE00000
0000000000003FFFFFC00000
0000000000007FFFFF800000
000000000000FFFFFF000000
000000000001FFFFFE000000
000000000003FFFFFC000000
000000000007FFFFF8000000
00000000000FFFFFF0000000
00000000001FFFFFE0000000
00000000003FFFFFC0000000
00000000007FFFFF80000000
0000000000FFFFFF00000000
0000000001FFFFFE00000000
0000000003FFFFFC00000000
0000000007FFFFF800000000
000000000FFFFFF000000000
000000001FFFFFE000000000
000000003FFFFFC000000000
000000007FFFFF8000000000
00000000FFFFFF0000000000
00000001FFFFFE0000000000
00000003FFFFFC0000000000
00000007FFFFF80000000000
0000000FFFFFF00000000000
0000001FFFFFE00000000000
0000003FFFFFC00000000000
0000007FFFFF800000000000
000000FFFFFF000000000000
000001FFFFFE000000000000
000003FFFFFC000000000000
000007FFFFF8000000000000
00000FFFFFF0000000000000
00001FFFFFE0000000000000
00003FFFFFC0000000000000
00007FFFFF80000000000000
0000FFFFFF00000000000000
0001FFFFFE00000000000000
0003FFFFFC00000000000000
0007FFFFF800000000000000
000FFFFFF000000000000000
001FFFFFE000000000000000
003FFFFFC000000000000000
007FFFFF8000000000000000
00FFFFFF0000000000000000
01FFFFFE0000000000000000
03FFFFFC0000000000000000
07FFFFF80000000000000000
07FFFFF00000000000000000
0FFFFFFFFFFFFFFFFFFFFFFE
1FFFFFFFFFFFFFFFFFFFFFFE
3FFFFFFFFFFFFFFFFFFFFFFE
7FFFFFFFFFFFFFFFFFFFFFFE
7FFFFFFFFFFFFFFFFFFFFFFE
FFFFFFFFFFFFFFFFFFFFFFFE
FFFFFFFFFFFFFFFFFFFFFFFE
FFFFFFFFFFFFFFFFFFFFFFFE
FFFFFFFFFFFFFFFFFFFFFFFE
FFFFFFFFFFFFFFFFFFFFFFFE
7FFFFFFFFFFFFFFFFFFFFFFE
7FFFFFFFFFFFFFFFFFFFFFFE
3FFFFFFFFFFFFFFFFFFFFFFE
1FFFFFFFFFFFFFFFFFFFFFFE
0FFFFFFFFFFFFFFFFFFFFFFE
03FFFFFFFFFFFFFFFFFFFFFE
ENDCHAR
STARTCHAR bracketleft
ENCODING 91
SWIDTH 333 0
DWIDTH 44 0
BBX 23 121 13 -12
BITMAP
FFFFFE
FFFFFE
FFFFFE
FFFFFE
FFFFFE
FFFFFE
FFFFFE
FFFFFE
FFFFFE
FFFFFE
FFFFFE
FFE000
FFE000
FFE000
FFE000
FFE000
FFE000
FFE000
FFE000
FFE000
FFE000
FFE000
FFE000
FFE000
FFE000
FFE000
FFE000
FFE000
FFE000
FFE000
FFE000
FFE000
FFE000
FFE000
FFE000
FFE000
FFE000
FFE000
FFE000
FFE000
FFE000
FFE000
FFE000
FFE000
FFE000
FFE000
FFE000
FFE000
FFE000
FFE000
FFE000
FFE000
FFE000
FFE000
FFE000
FFE000
FFE000
FFE000
FFE000
FFE000
FFE000
FFE000
FFE000
FFE000
FFE000
FFE000
FFE000
FFE000
FFE000
FFE000
FFE000
FFE000
FFE000
FFE000
FFE000
FFE000
FFE000
FFE000
FFE000
FFE000
FFE000
FFE000
FFE000
FFE000
FFE000
FFE000
FFE000
FFE000
FFE000
FFE000
FFE000
FFE000
FFE000
FFE000
FFE000
FFE000
FFE000
FFE000
FFE000
FFE000
FFE000
FFE000
FFE000
FFE000
FFE000
FFE000
FFE000
FFE000
FFE000
FFE000
FFFFFE
FFFFFE
FFFFFE
FFFFFE
FFFFFE
FFFFFE
FFFFFE
FFFFFE
FFFFFE
FFFFFE
FFFFFE
ENDCHAR
STARTCHAR backslash
ENCODING 92
SWIDTH 445 0
DWIDTH 59 0
BBX 56 96 1 0
BITMAP
FFF00000000000
7FF00000000000
7FF80000000000
3FF80000000000
3FFC0000000000
1FFC0000000000
1FFC0000000000
0FFE0000000000
0FFE0000000000
07FF0000000000
07FF0000000000
03FF8000000000
03FF8000000000
01FFC000000000
01FFC000000000
01FFE000000000
00FFE000000000
00FFF000000000
007FF000000000
007FF800000000
003FF800000000
003FF800000000
001FFC00000000
001FFC00000000
000FFE00000000
000FFE00000000
0007FF00000000
0007FF00000000
0003FF80000000
0003FF80000000
0003FFC0000000
0001FFC0000000
0001FFE0000000
0000FFE0000000
0000FFF0000000
00007FF0000000
00007FF8000000
00003FF8000000
00003FF8000000
00001FFC000000
00001FFC000000
00000FFE000000
00000FFE000000
00000FFF000000
000007FF000000
000007FF800000
000003FF800000
000003FFC00000
000001FFC00000
000001FFE00000
000000FFE00000
000000FFF00000
0000007FF00000
0000007FF00000
0000003FF80000
0000003FF80000
0000003FFC0000
0000001FFC0000
0000001FFE0000
0000000FFE0000
0000000FFF0000
00000007FF0000
00000007FF8000
00000003FF8000
00000003FFC000
00000001FFC000
00000001FFE000
00000000FFE000
00000000FFF000
000000007FF000
000000007FF000
000000007FF800
000000003FF800
000000003FFC00
000000001FFC00
000000001FFE00
000000000FFE00
000000000FFF00
0000000007FF00
0000000007FF80
0000000003FF80
0000000003FFC0
0000000001FFC0
0000000001FFE0
0000000001FFE0
0000000000FFF0
0000000000FFF0
00000000007FF0
00000000007FF8
00000000003FF8
00000000003FFC
00000000001FFC
00000000001FFE
00000000000FFE
00000000000FFF
000000000007FF
ENDCHAR
STARTCHAR bracketright
ENCODING 93
SWIDTH 333 0
DWIDTH 44 0
BBX 23 121 8 -12
BITMAP
FFFFFE
FFFFFE
FFFFFE
FFFFFE
FFFFFE
FFFFFE
FFFFFE
FFFFFE
FFFFFE
FFFFFE
FFFFFE
000FFE
000FFE
000FFE
000FFE
000FFE
000FFE
000FFE
000FFE
000FFE
000FFE
000FFE
000FFE
000FFE
000FFE
000FFE
000FFE
000FFE
000FFE
000FFE
000FFE
000FFE
000FFE
000FFE
000FFE
000FFE
000FFE
000FFE
000FFE
000FFE
000FFE
000FFE
000FFE
000FFE
000FFE
000FFE
000FFE
000FFE
000FFE
000FFE
000FFE
000FFE
000FFE
000FFE
000FFE
000FFE
000FFE
000FFE
000FFE
000FFE
000FFE
000FFE
000FFE
000FFE
000FFE
000FFE
000FFE
000FFE
000FFE
000FFE
000FFE
000FFE
000FFE
000FFE
000FFE
000FFE
000FFE
000FFE
000FFE
000FFE
000FFE
000FFE
000FFE
000FFE
000FFE
000FFE
000FFE
000FFE
000FFE
000FFE
000FFE
000FFE
000FFE
000FFE
000FFE
000FFE
000FFE
000FFE
000FFE
000FFE
000FFE
000FFE
000FFE
000FFE
000FFE
000FFE
000FFE
000FFE
000FFE
000FFE
FFFFFE
FFFFFE
FFFFFE
FFFFFE
FFFFFE
FFFFFE
FFFFFE
FFFFFE
FFFFFE
FFFFFE
FFFFFE
ENDCHAR
STARTCHAR asciicircum
ENCODING 94
SWIDTH 559 0
DWIDTH 74 0
BBX 57 58 8 38
BITMAP
0000003E00000000
0000007F80000000
000000FFC0000000
000001FFE0000000
000001FFE0000000
000003FFF0000000
000003FFF0000000
000003FFF8000000
000007FFF8000000
000007FFF8000000
00000FFFFC000000
00000FFFFC000000
00001FFFFE000000
00001FFFFE000000
00001FFFFE000000
00003FFFFF000000
00003FF3FF000000
00007FF3FF800000
00007FE3FF800000
0000FFE1FFC00000
0000FFE1FFC00000
0000FFC0FFC00000
0001FFC0FFE00000
0001FF80FFE00000
0003FF807FF00000
0003FF807FF00000
0007FF003FF00000
0007FF003FF80000
0007FE003FF80000
000FFE001FFC0000
000FFE001FFC0000
001FFC000FFE0000
001FFC000FFE0000
001FF8000FFE0000
003FF80007FF0000
003FF80007FF0000
007FF00003FF8000
007FF00003FF8000
00FFE00003FFC000
00FFE00001FFC000
00FFC00001FFC000
01FFC00000FFE000
01FFC00000FFE000
03FF8000007FF000
03FF8000007FF000
07FF0000007FF000
07FF0000003FF800
07FF0000003FF800
0FFE0000001FFC00
0FFE0000001FFC00
1FFC0000001FFE00
1FFC0000000FFE00
3FFC0000000FFE00
3FF800000007FF00
3FF800000007FF00
7FF000000007FF80
7FF000000003FF80
FFF000000003FF80
ENDCHAR
STARTCHAR underscore
ENCODING 95
SWIDTH 668 0
DWIDTH 88 0
BBX 89 8 0 -21
BITMAP
FFFFFFFFFFFFFFFFFFFFFF80
FFFFFFFFFFFFFFFFFFFFFF80
FFFFFFFFFFFFFFFFFFFFFF80
FFFFFFFFFFFFFFFFFFFFFF80
FFFFFFFFFFFFFFFFFFFFFF80
FFFFFFFFFFFFFFFFFFFFFF80
FFFFFFFFFFFFFFFFFFFFFF80
FFFFFFFFFFFFFFFFFFFFFF80
ENDCHAR
STARTCHAR grave
ENCODING 96
SWIDTH 362 0
DWIDTH 48 0
BBX 34 18 7 102
BITMAP
8000000000
F000000000
FE00000000
FFC0000000
FFFC000000
FFFF800000
FFFFF00000
FFFFFF0000
FFFFFFE000
FFFFFFFC00
FFFFFFFFC0
1FFFFFFFC0
00FFFFFFC0
0007FFFFC0
00007FFFC0
000003FFC0
0000001FC0
00000001C0
ENDCHAR
STARTCHAR a
ENCODING 97
SWIDTH 989 0
DWIDTH 131 0
BBX 127 98 2 0
BITMAP
00000000000000010000000000000000
000000000000001FE000000000000000
000000000000003FF800000000000000
000000000000007FFC00000000000000
00000000000000FFFC00000000000000
00000000000001FFFE00000000000000
00000000000001FFFF00000000000000
00000000000003FFFF00000000000000
00000000000007FFFF80000000000000
00000000000007FFFF80000000000000
0000000000000FFFFFC0000000000000
0000000000000FFFFFE0000000000000
0000000000001FFFFFE0000000000000
0000000000003FFFFFF0000000000000
0000000000003FFFFFF0000000000000
0000000000007FFFFFF8000000000000
0000000000007FFFFFFC000000000000
000000000000FFFFFFFC000000000000
000000000001FFFFFFFE000000000000
000000000001FFFFFFFE000000000000
000000000003FFFFFFFF000000000000
000000000003FFFFFFFF800000000000
000000000007FFFFFFFF800000000000
00000000000FFFFFFFFFC00000000000
00000000000FFFFFFFFFC00000000000
00000000001FFFFDFFFFE00000000000
00000000001FFFF8FFFFF00000000000
00000000003FFFF8FFFFF00000000000
00000000007FFFF07FFFF80000000000
00000000007FFFF07FFFF80000000000
0000000000FFFFE03FFFFC0000000000
0000000000FFFFC01FFFFE0000000000
0000000001FFFFC01FFFFE0000000000
0000000003FFFF800FFFFF0000000000
0000000003FFFF800FFFFF0000000000
0000000007FFFF0007FFFF8000000000
0000000007FFFF0003FFFFC000000000
000000000FFFFE0003FFFFC000000000
000000001FFFFC0001FFFFE000000000
000000001FFFFC0000FFFFE000000000
000000003FFFF80000FFFFF000000000
000000003FFFF800007FFFF800000000
000000007FFFF000007FFFF800000000
00000000FFFFE000003FFFFC00000000
00000000FFFFE000001FFFFC00000000
00000001FFFFC000001FFFFE00000000
00000001FFFFC000000FFFFF00000000
00000003FFFF8000000FFFFF00000000
00000007FFFF00000007FFFF80000000
00000007FFFF00000003FFFF80000000
0000000FFFFE00000003FFFFC0000000
0000000FFFFE00000001FFFFE0000000
0000001FFFFC00000001FFFFE0000000
0000003FFFF800000000FFFFF0000000
0000003FFFF8000000007FFFF0000000
0000007FFFF0000000007FFFF8000000
0000007FFFF0000000003FFFFC000000
000000FFFFE0000000003FFFFC000000
000001FFFFC0000000001FFFFE000000
000001FFFFC0000000000FFFFE000000
000003FFFF8003FFFFFFFFFFFF000000
000003FFFF8003FFFFFFFFFFFF800000
000007FFFF0007FFFFFFFFFFFF800000
000007FFFE0007FFFFFFFFFFFFC00000
00000FFFFE000FFFFFFFFFFFFFC00000
00001FFFFC001FFFFFFFFFFFFFE00000
00001FFFFC001FFFFFFFFFFFFFF00000
00003FFFF8003FFFFFFFFFFFFFF00000
00003FFFF8003FFFFFFFFFFFFFF80000
00007FFFF0007FFFFFFFFFFFFFF80000
0000FFFFE0007FFFFFFFFFFFFFFC0000
0000FFFFE000FFFFFFFFFFFFFFFE0000
0001FFFFC001FFFFFFFFFFFFFFFE0000
0001FFFFC001FFFFFFFFFFFFFFFF0000
0003FFFF800000000000000FFFFF0000
0007FFFF0000000000000007FFFF8000
0007FFFF0000000000000007FFFFC000
000FFFFE0000000000000003FFFFC000
000FFFFE0000000000000001FFFFE000
001FFFFC0000000000000001FFFFE000
003FFFF80000000000000000FFFFF000
003FFFF80000000000000000FFFFF800
007FFFF000000000000000007FFFF800
007FFFF000000000000000003FFFFC00
00FFFFE000000000000000003FFFFC00
01FFFFC000000000000000001FFFFE00
01FFFFC000000000000000001FFFFF00
03FFFF8000000000000000000FFFFF00
03FFFF80000000000000000007FFFF80
07FFFF00000000000000000007FFFF80
0FFFFE00000000000000000003FFFFC0
0FFFFE00000000000000000003FFFFE0
1FFFFC00000000000000000001FFFFE0
1FFFFC00000000000000000000FFFFF0
3FFFF800000000000000000000FFFFF0
7FFFF0000000000000000000007FFFF8
7FFFF0000000000000000000007FFFFC
FFFFE0000000000000000000003FFFFE
ENDCHAR
STARTCHAR b
ENCODING 98
SWIDTH 891 0
DWIDTH 118 0
BBX 103 96 8 0
BITMAP
FFFFFFFFFFFFFFFFFFFC000000
FFFFFFFFFFFFFFFFFFFFE00000
FFFFFFFFFFFFFFFFFFFFFC0000
FFFFFFFFFFFFFFFFFFFFFF0000
FFFFFFFFFFFFFFFFFFFFFFC000
FFFFFFFFFFFFFFFFFFFFFFF000
FFFFFFFFFFFFFFFFFFFFFFF800
FFFFFFFFFFFFFFFFFFFFFFFC00
FFFFFFFFFFFFFFFFFFFFFFFF00
FFFFFFFFFFFFFFFFFFFFFFFF00
FFFFFFFFFFFFFFFFFFFFFFFF80
FFFFFFFFFFFFFFFFFFFFFFFFC0
FFFFFFFFFFFFFFFFFFFFFFFFC0
FFFFFFFFFFFFFFFFFFFFFFFFE0
FFFFFFFFFFFFFFFFFFFFFFFFF0
FFFFFFFFFFFFFFFFFFFFFFFFF0
FFFFFFFFFFFFFFFFFFFFFFFFF0
FFFF800000000000001FFFFFF8
FFFF8000000000000003FFFFF8
FFFF8000000000000000FFFFF8
FFFF80000000000000003FFFF8
FFFF80000000000000003FFFF8
FFFF80000000000000001FFFF8
FFFF80000000000000000FFFFC
FFFF80000000000000000FFFFC
FFFF80000000000000000FFFFC
FFFF80000000000000000FFFFC
FFFF80000000000000000FFFF8
FFFF800000000000000007FFF8
FFFF80000000000000000FFFF8
FFFF80000000000000000FFFF8
FFFF80000000000000000FFFF8
FFFF80000000000000000FFFF8
FFFF80000000000000000FFFF0
FFFF80000000000000001FFFF0
FFFF80000000000000001FFFE0
FFFF80000000000000003FFFE0
FFFF80000000000000007FFFC0
FFFF8000000000000001FFFFC0
FFFF800000000000000FFFFF80
FFFF8007FFFFFFFFFFFFFFFF00
FFFF8007FFFFFFFFFFFFFFFE00
FFFF8007FFFFFFFFFFFFFFFC00
FFFF8007FFFFFFFFFFFFFFF000
FFFF8007FFFFFFFFFFFFFFC000
FFFF8007FFFFFFFFFFFFFF8000
FFFF8007FFFFFFFFFFFFFFE000
FFFF8007FFFFFFFFFFFFFFF800
FFFF8007FFFFFFFFFFFFFFFE00
FFFF8007FFFFFFFFFFFFFFFF00
FFFF8007FFFFFFFFFFFFFFFF80
FFFF8007FFFFFFFFFFFFFFFFC0
FFFF8007FFFFFFFFFFFFFFFFE0
FFFF8007FFFFFFFFFFFFFFFFF0
FFFF8000000000000007FFFFF0
FFFF8000000000000000FFFFF8
FFFF80000000000000003FFFF8
FFFF80000000000000001FFFFC
FFFF80000000000000000FFFFC
FFFF80000000000000000FFFFC
FFFF800000000000000007FFFE
FFFF800000000000000007FFFE
FFFF800000000000000003FFFE
FFFF800000000000000003FFFE
FFFF800000000000000003FFFE
FFFF800000000000000003FFFE
FFFF800000000000000003FFFE
FFFF800000000000000003FFFE
FFFF800000000000000003FFFE
FFFF800000000000000003FFFE
FFFF800000000000000003FFFE
FFFF800000000000000007FFFE
FFFF800000000000000007FFFE
FFFF80000000000000000FFFFE
FFFF80000000000000001FFFFC
FFFF80000000000000003FFFFC
FFFF8000000000000000FFFFFC
FFFF8000000000000003FFFFFC
FFFF800000000000003FFFFFF8
FFFFFFFFFFFFFFFFFFFFFFFFF8
FFFFFFFFFFFFFFFFFFFFFFFFF0
FFFFFFFFFFFFFFFFFFFFFFFFF0
FFFFFFFFFFFFFFFFFFFFFFFFE0
FFFFFFFFFFFFFFFFFFFFFFFFE0
FFFFFFFFFFFFFFFFFFFFFFFFC0
FFFFFFFFFFFFFFFFFFFFFFFF80
FFFFFFFFFFFFFFFFFFFFFFFF00
FFFFFFFFFFFFFFFFFFFFFFFE00
FFFFFFFFFFFFFFFFFFFFFFFC00
FFFFFFFFFFFFFFFFFFFFFFF800
FFFFFFFFFFFFFFFFFFFFFFF000
FFFFFFFFFFFFFFFFFFFFFFC000
FFFFFFFFFFFFFFFFFFFFFF0000
FFFFFFFFFFFFFFFFFFFFFC0000
FFFFFFFFFFFFFFFFFFFFF00000
FFFFFFFFFFFFFFFFFFFE000000
ENDCHAR
STARTCHAR c
ENCODING 99
SWIDTH 829 0
DWIDTH 109 0
BBX 98 96 6 0
BITMAP
0000000001FFFFFFFFFFFFFFC0
000000007FFFFFFFFFFFFFFFC0
00000003FFFFFFFFFFFFFFFFC0
0000001FFFFFFFFFFFFFFFFFC0
0000007FFFFFFFFFFFFFFFFFC0
000001FFFFFFFFFFFFFFFFFFC0
000007FFFFFFFFFFFFFFFFFFC0
00000FFFFFFFFFFFFFFFFFFFC0
00003FFFFFFFFFFFFFFFFFFFC0
00007FFFFFFFFFFFFFFFFFFFC0
0001FFFFFFFFFFFFFFFFFFFFC0
0003FFFFFFFFFFFFFFFFFFFFC0
0007FFFFFFFFFFFFFFFFFFFFC0
000FFFFFFFFFFFFFFFFFFFFFC0
001FFFFFFFFFFFFFFFFFFFFFC0
003FFFFFFFFFFFFFFFFFFFFFC0
003FFFFFFFFFFFFFFFFFFFFFC0
007FFFFFFE0000000000000000
00FFFFFFF00000000000000000
01FFFFFF800000000000000000
01FFFFFE000000000000000000
03FFFFFC000000000000000000
03FFFFF0000000000000000000
07FFFFE0000000000000000000
0FFFFFC0000000000000000000
0FFFFF80000000000000000000
0FFFFF00000000000000000000
1FFFFE00000000000000000000
1FFFFC00000000000000000000
3FFFFC00000000000000000000
3FFFF800000000000000000000
3FFFF000000000000000000000
7FFFF000000000000000000000
7FFFE000000000000000000000
7FFFE000000000000000000000
7FFFC000000000000000000000
FFFFC000000000000000000000
FFFFC000000000000000000000
FFFFC000000000000000000000
FFFF8000000000000000000000
FFFF8000000000000000000000
FFFF8000000000000000000000
FFFF8000000000000000000000
FFFF8000000000000000000000
FFFF0000000000000000000000
FFFF0000000000000000000000
FFFF0000000000000000000000
FFFF0000000000000000000000
FFFF0000000000000000000000
FFFF0000000000000000000000
FFFF0000000000000000000000
FFFF0000000000000000000000
FFFF8000000000000000000000
FFFF8000000000000000000000
FFFF8000000000000000000000
FFFF8000000000000000000000
FFFF8000000000000000000000
FFFFC000000000000000000000
7FFFC000000000000000000000
7FFFC000000000000000000000
7FFFE000000000000000000000
7FFFE000000000000000000000
3FFFE000000000000000000000
3FFFF000000000000000000000
3FFFF000000000000000000000
1FFFF800000000000000000000
1FFFFC00000000000000000000
1FFFFC00000000000000000000
0FFFFE00000000000000000000
0FFFFF00000000000000000000
07FFFF80000000000000000000
07FFFFC0000000000000000000
03FFFFE0000000000000000000
03FFFFF0000000000000000000
01FFFFFC000000000000000000
00FFFFFE000000000000000000
00FFFFFF800000000000000000
007FFFFFF00000000000000000
003FFFFFFE0000000000000000
001FFFFFFFFFFFFFFFFFFFFFC0
001FFFFFFFFFFFFFFFFFFFFFC0
000FFFFFFFFFFFFFFFFFFFFFC0
0007FFFFFFFFFFFFFFFFFFFFC0
0003FFFFFFFFFFFFFFFFFFFFC0
0001FFFFFFFFFFFFFFFFFFFFC0
00007FFFFFFFFFFFFFFFFFFFC0
00003FFFFFFFFFFFFFFFFFFFC0
00001FFFFFFFFFFFFFFFFFFFC0
000007FFFFFFFFFFFFFFFFFFC0
000003FFFFFFFFFFFFFFFFFFC0
000000FFFFFFFFFFFFFFFFFFC0
0000003FFFFFFFFFFFFFFFFFC0
0000000FFFFFFFFFFFFFFFFFC0
00000001FFFFFFFFFFFFFFFFC0
000000003FFFFFFFFFFFFFFFC0
0000000001FFFFFFFFFFFFFFC0
ENDCHAR
STARTCHAR d
ENCODING 100
SWIDTH 879 0
DWIDTH 116 0
BBX 103 96 8 0
BITMAP
FFFFFFFFFFFFFFFE0000000000
FFFFFFFFFFFFFFFFF800000000
FFFFFFFFFFFFFFFFFF00000000
FFFFFFFFFFFFFFFFFFE0000000
FFFFFFFFFFFFFFFFFFF8000000
FFFFFFFFFFFFFFFFFFFE000000
FFFFFFFFFFFFFFFFFFFF800000
FFFFFFFFFFFFFFFFFFFFE00000
FFFFFFFFFFFFFFFFFFFFF00000
FFFFFFFFFFFFFFFFFFFFF80000
FFFFFFFFFFFFFFFFFFFFFE0000
FFFFFFFFFFFFFFFFFFFFFF0000
FFFFFFFFFFFFFFFFFFFFFF8000
FFFFFFFFFFFFFFFFFFFFFFC000
FFFFFFFFFFFFFFFFFFFFFFE000
FFFFFFFFFFFFFFFFFFFFFFF000
FFFFFFFFFFFFFFFFFFFFFFF000
FFFF800000000001FFFFFFF800
FFFF8000000000003FFFFFFC00
FFFF80000000000007FFFFFE00
FFFF80000000000001FFFFFE00
FFFF80000000000000FFFFFF00
FFFF800000000000003FFFFF00
FFFF800000000000001FFFFF80
FFFF800000000000000FFFFFC0
FFFF8000000000000007FFFFC0
FFFF8000000000000003FFFFC0
FFFF8000000000000001FFFFE0
FFFF8000000000000000FFFFE0
FFFF80000000000000007FFFF0
FFFF80000000000000007FFFF0
FFFF80000000000000003FFFF0
FFFF80000000000000003FFFF8
FFFF80000000000000001FFFF8
FFFF80000000000000001FFFF8
FFFF80000000000000000FFFF8
FFFF80000000000000000FFFFC
FFFF80000000000000000FFFFC
FFFF800000000000000007FFFC
FFFF800000000000000007FFFC
FFFF800000000000000007FFFC
FFFF800000000000000007FFFC
FFFF800000000000000007FFFC
FFFF800000000000000003FFFE
FFFF800000000000000003FFFE
FFFF800000000000000003FFFE
FFFF800000000000000003FFFE
FFFF800000000000000003FFFE
FFFF800000000000000003FFFE
FFFF800000000000000003FFFE
FFFF800000000000000003FFFE
FFFF800000000000000003FFFC
FFFF800000000000000003FFFC
FFFF800000000000000007FFFC
FFFF800000000000000007FFFC
FFFF800000000000000007FFFC
FFFF800000000000000007FFFC
FFFF800000000000000007FFFC
FFFF80000000000000000FFFF8
FFFF80000000000000000FFFF8
FFFF80000000000000000FFFF8
FFFF80000000000000001FFFF8
FFFF80000000000000001FFFF0
FFFF80000000000000003FFFF0
FFFF80000000000000003FFFF0
FFFF80000000000000007FFFE0
FFFF8000000000000000FFFFE0
FFFF8000000000000000FFFFE0
FFFF8000000000000001FFFFC0
FFFF8000000000000003FFFFC0
FFFF8000000000000007FFFF80
FFFF800000000000000FFFFF80
FFFF800000000000001FFFFF00
FFFF800000000000003FFFFF00
FFFF80000000000000FFFFFE00
FFFF80000000000001FFFFFC00
FFFF80000000000007FFFFFC00
FFFF8000000000003FFFFFF800
FFFF800000000001FFFFFFF000
FFFFFFFFFFFFFFFFFFFFFFF000
FFFFFFFFFFFFFFFFFFFFFFE000
FFFFFFFFFFFFFFFFFFFFFFC000
FFFFFFFFFFFFFFFFFFFFFF8000
FFFFFFFFFFFFFFFFFFFFFF0000
FFFFFFFFFFFFFFFFFFFFFE0000
FFFFFFFFFFFFFFFFFFFFFC0000
FFFFFFFFFFFFFFFFFFFFF00000
FFFFFFFFFFFFFFFFFFFFE00000
FFFFFFFFFFFFFFFFFFFFC00000
FFFFFFFFFFFFFFFFFFFF000000
FFFFFFFFFFFFFFFFFFFC000000
FFFFFFFFFFFFFFFFFFF0000000
FFFFFFFFFFFFFFFFFFC0000000
FFFFFFFFFFFFFFFFFE00000000
FFFFFFFFFFFFFFFFF000000000
FFFFFFFFFFFFFFFE0000000000
ENDCHAR
STARTCHAR e
ENCODING 101
SWIDTH 759 0
DWIDTH 100 0
BBX 86 96 8 0
BITMAP
FFFFFFFFFFFFFFFFFFFFFC
FFFFFFFFFFFFFFFFFFFFFC
FFFFFFFFFFFFFFFFFFFFFC
FFFFFFFFFFFFFFFFFFFFFC
FFFFFFFFFFFFFFFFFFFFFC
FFFFFFFFFFFFFFFFFFFFFC
FFFFFFFFFFFFFFFFFFFFFC
FFFFFFFFFFFFFFFFFFFFFC
FFFFFFFFFFFFFFFFFFFFFC
FFFFFFFFFFFFFFFFFFFFFC
FFFFFFFFFFFFFFFFFFFFFC
FFFFFFFFFFFFFFFFFFFFFC
FFFFFFFFFFFFFFFFFFFFFC
FFFFFFFFFFFFFFFFFFFFFC
FFFFFFFFFFFFFFFFFFFFFC
FFFFFFFFFFFFFFFFFFFFFC
FFFFFFFFFFFFFFFFFFFFFC
FFFF800000000000000000
FFFF800000000000000000
FFFF800000000000000000
FFFF800000000000000000
FFFF800000000000000000
FFFF800000000000000000
FFFF800000000000000000
FFFF800000000000000000
FFFF800000000000000000
FFFF800000000000000000
FFFF800000000000000000
FFFF800000000000000000
FFFF800000000000000000
FFFF800000000000000000
FFFF800000000000000000
FFFF800000000000000000
FFFF800000000000000000
FFFF800000000000000000
FFFF800000000000000000
FFFF800000000000000000
FFFF800000000000000000
FFFF800000000000000000
FFFF800000000000000000
FFFF8007FFFFFFFFFFFFC0
FFFF8007FFFFFFFFFFFFC0
FFFF8007FFFFFFFFFFFFC0
FFFF8007FFFFFFFFFFFFC0
FFFF8007FFFFFFFFFFFFC0
FFFF8007FFFFFFFFFFFFC0
FFFF8007FFFFFFFFFFFFC0
FFFF8007FFFFFFFFFFFFC0
FFFF8007FFFFFFFFFFFFC0
FFFF8007FFFFFFFFFFFFC0
FFFF8007FFFFFFFFFFFFC0
FFFF8007FFFFFFFFFFFFC0
FFFF8007FFFFFFFFFFFFC0
FFFF8007FFFFFFFFFFFFC0
FFFF800000000000000000
FFFF800000000000000000
FFFF800000000000000000
FFFF800000000000000000
FFFF800000000000000000
FFFF800000000000000000
FFFF800000000000000000
FFFF800000000000000000
FFFF800000000000000000
FFFF800000000000000000
FFFF800000000000000000
FFFF800000000000000000
FFFF800000000000000000
FFFF800000000000000000
FFFF800000000000000000
FFFF800000000000000000
FFFF800000000000000000
FFFF800000000000000000
FFFF800000000000000000
FFFF800000000000000000
FFFF800000000000000000
FFFF800000000000000000
FFFF800000000000000000
FFFF800000000000000000
FFFF800000000000000000
FFFFFFFFFFFFFFFFFFFFFC
FFFFFFFFFFFFFFFFFFFFFC
FFFFFFFFFFFFFFFFFFFFFC
FFFFFFFFFFFFFFFFFFFFFC
FFFFFFFFFFFFFFFFFFFFFC
FFFFFFFFFFFFFFFFFFFFFC
FFFFFFFFFFFFFFFFFFFFFC
FFFFFFFFFFFFFFFFFFFFFC
FFFFFFFFFFFFFFFFFFFFFC
FFFFFFFFFFFFFFFFFFFFFC
FFFFFFFFFFFFFFFFFFFFFC
FFFFFFFFFFFFFFFFFFFFFC
FFFFFFFFFFFFFFFFFFFFFC
FFFFFFFFFFFFFFFFFFFFFC
FFFFFFFFFFFFFFFFFFFFFC
FFFFFFFFFFFFFFFFFFFFFC
FFFFFFFFFFFFFFFFFFFFFC
ENDCHAR
STARTCHAR f
ENCODING 102
SWIDTH 705 0
DWIDTH 93 0
BBX 82 96 8 0
BITMAP
FFFFFFFFFFFFFFFFFFFFC0
FFFFFFFFFFFFFFFFFFFFC0
FFFFFFFFFFFFFFFFFFFFC0
FFFFFFFFFFFFFFFFFFFFC0
FFFFFFFFFFFFFFFFFFFFC0
FFFFFFFFFFFFFFFFFFFFC0
FFFFFFFFFFFFFFFFFFFFC0
FFFFFFFFFFFFFFFFFFFFC0
FFFFFFFFFFFFFFFFFFFFC0
FFFFFFFFFFFFFFFFFFFFC0
FFFFFFFFFFFFFFFFFFFFC0
FFFFFFFFFFFFFFFFFFFFC0
FFFFFFFFFFFFFFFFFFFFC0
FFFFFFFFFFFFFFFFFFFFC0
FFFFFFFFFFFFFFFFFFFFC0
FFFFFFFFFFFFFFFFFFFFC0
FFFFFFFFFFFFFFFFFFFFC0
FFFF800000000000000000
FFFF800000000000000000
FFFF800000000000000000
FFFF800000000000000000
FFFF800000000000000000
FFFF800000000000000000
FFFF800000000000000000
FFFF800000000000000000
FFFF800000000000000000
FFFF800000000000000000
FFFF800000000000000000
FFFF800000000000000000
FFFF800000000000000000
FFFF800000000000000000
FFFF800000000000000000
FFFF800000000000000000
FFFF800000000000000000
FFFF800000000000000000
FFFF800000000000000000
FFFF800000000000000000
FFFF800000000000000000
FFFF800000000000000000
FFFF800000000000000000
FFFF800000000000000000
FFFF8007FFFFFFFFFFFC00
FFFF8007FFFFFFFFFFFC00
FFFF8007FFFFFFFFFFFC00
FFFF8007FFFFFFFFFFFC00
FFFF8007FFFFFFFFFFFC00
FFFF8007FFFFFFFFFFFC00
FFFF8007FFFFFFFFFFFC00
FFFF8007FFFFFFFFFFFC00
FFFF8007FFFFFFFFFFFC00
FFFF8007FFFFFFFFFFFC00
FFFF8007FFFFFFFFFFFC00
FFFF8007FFFFFFFFFFFC00
FFFF8007FFFFFFFFFFFC00
FFFF8007FFFFFFFFFFFC00
FFFF8007FFFFFFFFFFFC00
FFFF800000000000000000
FFFF800000000000000000
FFFF800000000000000000
FFFF800000000000000000
FFFF800000000000000000
FFFF800000000000000000
FFFF800000000000000000
FFFF800000000000000000
FFFF800000000000000000
FFFF800000000000000000
FFFF800000000000000000
FFFF800000000000000000
FFFF800000000000000000
FFFF800000000000000000
FFFF800000000000000000
FFFF800000000000000000
FFFF800000000000000000
FFFF800000000000000000
FFFF800000000000000000
FFFF800000000000000000
FFFF800000000000000000
FFFF800000000000000000
FFFF800000000000000000
FFFF800000000000000000
FFFF800000000000000000
FFFF800000000000000000
FFFF800000000000000000
FFFF800000000000000000
FFFF800000000000000000
FFFF800000000000000000
FFFF800000000000000000
FFFF800000000000000000
FFFF800000000000000000
FFFF800000000000000000
FFFF800000000000000000
FFFF800000000000000000
FFFF800000000000000000
FFFF800000000000000000
FFFF800000000000000000
FFFF800000000000000000
ENDCHAR
STARTCHAR g
ENCODING 103
SWIDTH 888 0
DWIDTH 117 0
BBX 104 96 6 0
BITMAP
0000000001FFFFFFFFFFFFFFC0
000000007FFFFFFFFFFFFFFFC0
00000003FFFFFFFFFFFFFFFFC0
0000001FFFFFFFFFFFFFFFFFC0
0000007FFFFFFFFFFFFFFFFFC0
000001FFFFFFFFFFFFFFFFFFC0
000007FFFFFFFFFFFFFFFFFFC0
00000FFFFFFFFFFFFFFFFFFFC0
00003FFFFFFFFFFFFFFFFFFFC0
00007FFFFFFFFFFFFFFFFFFFC0
0001FFFFFFFFFFFFFFFFFFFFC0
0003FFFFFFFFFFFFFFFFFFFFC0
0007FFFFFFFFFFFFFFFFFFFFC0
000FFFFFFFFFFFFFFFFFFFFFC0
001FFFFFFFFFFFFFFFFFFFFFC0
003FFFFFFFFFFFFFFFFFFFFFC0
003FFFFFFFFFFFFFFFFFFFFFC0
007FFFFFFE0000000000000000
00FFFFFFF00000000000000000
01FFFFFF800000000000000000
01FFFFFE000000000000000000
03FFFFFC000000000000000000
03FFFFF0000000000000000000
07FFFFE0000000000000000000
0FFFFFC0000000000000000000
0FFFFF80000000000000000000
0FFFFF00000000000000000000
1FFFFE00000000000000000000
1FFFFC00000000000000000000
3FFFFC00000000000000000000
3FFFF800000000000000000000
3FFFF000000000000000000000
7FFFF000000000000000000000
7FFFE000000000000000000000
7FFFE000000000000000000000
7FFFC000000000000000000000
FFFFC000000000000000000000
FFFFC000000000000000000000
FFFFC000000000000000000000
FFFF8000000000000000000000
FFFF8000000FFFFFFFFFFFFFFF
FFFF8000000FFFFFFFFFFFFFFF
FFFF8000000FFFFFFFFFFFFFFF
FFFF8000000FFFFFFFFFFFFFFF
FFFF0000000FFFFFFFFFFFFFFF
FFFF0000000FFFFFFFFFFFFFFF
FFFF0000000FFFFFFFFFFFFFFF
FFFF0000000FFFFFFFFFFFFFFF
FFFF0000000FFFFFFFFFFFFFFF
FFFF0000000FFFFFFFFFFFFFFF
FFFF0000000FFFFFFFFFFFFFFF
FFFF0000000FFFFFFFFFFFFFFF
FFFF8000000FFFFFFFFFFFFFFF
FFFF8000000FFFFFFFFFFFFFFF
FFFF800000000000000001FFFF
FFFF800000000000000001FFFF
FFFF800000000000000001FFFF
FFFFC00000000000000001FFFF
7FFFC00000000000000001FFFF
7FFFC00000000000000001FFFF
7FFFE00000000000000001FFFF
7FFFE00000000000000001FFFF
3FFFE00000000000000001FFFF
3FFFF00000000000000001FFFF
3FFFF00000000000000001FFFF
1FFFF80000000000000001FFFF
1FFFFC0000000000000001FFFF
1FFFFC0000000000000001FFFF
0FFFFE0000000000000001FFFF
0FFFFF0000000000000001FFFF
07FFFF8000000000000001FFFF
07FFFFC000000000000001FFFF
03FFFFE000000000000001FFFF
03FFFFF000000000000001FFFF
01FFFFFC00000000000001FFFF
00FFFFFE00000000000001FFFF
00FFFFFF80000000000001FFFF
007FFFFFF0000000000001FFFF
003FFFFFFE000000000001FFFF
001FFFFFFFFFFFFFFFFFFFFFFF
001FFFFFFFFFFFFFFFFFFFFFFF
000FFFFFFFFFFFFFFFFFFFFFFF
0007FFFFFFFFFFFFFFFFFFFFFF
0003FFFFFFFFFFFFFFFFFFFFFF
0001FFFFFFFFFFFFFFFFFFFFFF
00007FFFFFFFFFFFFFFFFFFFFF
00003FFFFFFFFFFFFFFFFFFFFF
00001FFFFFFFFFFFFFFFFFFFFF
000007FFFFFFFFFFFFFFFFFFFF
000003FFFFFFFFFFFFFFFFFFFF
000000FFFFFFFFFFFFFFFFFFFF
0000003FFFFFFFFFFFFFFFFFFF
0000000FFFFFFFFFFFFFFFFFFF
00000001FFFFFFFFFFFFFFFFFF
000000003FFFFFFFFFFFFFFFFF
0000000001FFFFFFFFFFFFFFFF
ENDCHAR
STARTCHAR h
ENCODING 104
SWIDTH 838 0
DWIDTH 111 0
BBX 94 96 8 0
BITMAP
FFFF8000000000000003FFFC
FFFF8000000000000003FFFC
FFFF8000000000000003FFFC
FFFF8000000000000003FFFC
FFFF8000000000000003FFFC
FFFF8000000000000003FFFC
FFFF8000000000000003FFFC
FFFF8000000000000003FFFC
FFFF8000000000000003FFFC
FFFF8000000000000003FFFC
FFFF8000000000000003FFFC
FFFF8000000000000003FFFC
FFFF8000000000000003FFFC
FFFF8000000000000003FFFC
FFFF8000000000000003FFFC
FFFF8000000000000003FFFC
FFFF8000000000000003FFFC
FFFF8000000000000003FFFC
FFFF8000000000000003FFFC
FFFF8000000000000003FFFC
FFFF8000000000000003FFFC
FFFF8000000000000003FFFC
FFFF8000000000000003FFFC
FFFF8000000000000003FFFC
FFFF8000000000000003FFFC
FFFF8000000000000003FFFC
FFFF8000000000000003FFFC
FFFF8000000000000003FFFC
FFFF8000000000000003FFFC
FFFF8000000000000003FFFC
FFFF8000000000000003FFFC
FFFF8000000000000003FFFC
FFFF8000000000000003FFFC
FFFF8000000000000003FFFC
FFFF8000000000000003FFFC
FFFF8000000000000003FFFC
FFFF8000000000000003FFFC
FFFF8000000000000003FFFC
FFFF8000000000000003FFFC
FFFF8007FFFFFFFFFFFFFFFC
FFFF8007FFFFFFFFFFFFFFFC
FFFF8007FFFFFFFFFFFFFFFC
FFFF8007FFFFFFFFFFFFFFFC
FFFF8007FFFFFFFFFFFFFFFC
FFFF8007FFFFFFFFFFFFFFFC
FFFF8007FFFFFFFFFFFFFFFC
FFFF8007FFFFFFFFFFFFFFFC
FFFF8007FFFFFFFFFFFFFFFC
FFFF8007FFFFFFFFFFFFFFFC
FFFF8007FFFFFFFFFFFFFFFC
FFFF8007FFFFFFFFFFFFFFFC
FFFF8007FFFFFFFFFFFFFFFC
FFFF8007FFFFFFFFFFFFFFFC
FFFF8007FFFFFFFFFFFFFFFC
FFFF8000000000000003FFFC
FFFF8000000000000003FFFC
FFFF8000000000000003FFFC
FFFF8000000000000003FFFC
FFFF8000000000000003FFFC
FFFF8000000000000003FFFC
FFFF8000000000000003FFFC
FFFF8000000000000003FFFC
FFFF8000000000000003FFFC
FFFF8000000000000003FFFC
FFFF8000000000000003FFFC
FFFF8000000000000003FFFC
FFFF8000000000000003FFFC
FFFF8000000000000003FFFC
FFFF8000000000000003FFFC
FFFF8000000000000003FFFC
FFFF8000000000000003FFFC
FFFF8000000000000003FFFC
FFFF8000000000000003FFFC
FFFF8000000000000003FFFC
FFFF8000000000000003FFFC
FFFF8000000000000003FFFC
FFFF8000000000000003FFFC
FFFF8000000000000003FFFC
FFFF8000000000000003FFFC
FFFF8000000000000003FFFC
FFFF8000000000000003FFFC
FFFF8000000000000003FFFC
FFFF8000000000000003FFFC
FFFF8000000000000003FFFC
FFFF8000000000000003FFFC
FFFF8000000000000003FFFC
FFFF8000000000000003FFFC
FFFF8000000000000003FFFC
FFFF8000000000000003FFFC
FFFF8000000000000003FFFC
FFFF8000000000000003FFFC
FFFF8000000000000003FFFC
FFFF8000000000000003FFFC
FFFF8000000000000003FFFC
FFFF8000000000000003FFFC
FFFF8000000000000003FFFC
ENDCHAR
STARTCHAR i
ENCODING 105
SWIDTH 267 0
DWIDTH 35 0
BBX 17 96 9 0
BITMAP
FFFF80
FFFF80
FFFF80
FFFF80
FFFF80
FFFF80
FFFF80
FFFF80
FFFF80
FFFF80
FFFF80
FFFF80
FFFF80
FFFF80
FFFF80
FFFF80
FFFF80
FFFF80
FFFF80
FFFF80
FFFF80
FFFF80
FFFF80
FFFF80
FFFF80
FFFF80
FFFF80
FFFF80
FFFF80
FFFF80
FFFF80
FFFF80
FFFF80
FFFF80
FFFF80
FFFF80
FFFF80
FFFF80
FFFF80
FFFF80
FFFF80
FFFF80
FFFF80
FFFF80
FFFF80
FFFF80
FFFF80
FFFF80
FFFF80
FFFF80
FFFF80
FFFF80
FFFF80
FFFF80
FFFF80
FFFF80
FFFF80
FFFF80
FFFF80
FFFF80
FFFF80
FFFF80
FFFF80
FFFF80
FFFF80
FFFF80
FFFF80
FFFF80
FFFF80
FFFF80
FFFF80
FFFF80
FFFF80
FFFF80
FFFF80
FFFF80
FFFF80
FFFF80
FFFF80
FFFF80
FFFF80
FFFF80
FFFF80
FFFF80
FFFF80
FFFF80
FFFF80
FFFF80
FFFF80
FFFF80
FFFF80
FFFF80
FFFF80
FFFF80
FFFF80
FFFF80
ENDCHAR
STARTCHAR j
ENCODING 106
SWIDTH 708 0
DWIDTH 93 0
BBX 84 96 3 0
BITMAP
00000000000000001FFFF0
00000000000000001FFFF0
00000000000000001FFFF0
00000000000000001FFFF0
00000000000000001FFFF0
00000000000000001FFFF0
00000000000000001FFFF0
00000000000000001FFFF0
00000000000000001FFFF0
00000000000000001FFFF0
00000000000000001FFFF0
00000000000000001FFFF0
00000000000000001FFFF0
00000000000000001FFFF0
00000000000000001FFFF0
00000000000000001FFFF0
00000000000000001FFFF0
00000000000000001FFFF0
00000000000000001FFFF0
00000000000000001FFFF0
00000000000000001FFFF0
00000000000000001FFFF0
00000000000000001FFFF0
00000000000000001FFFF0
00000000000000001FFFF0
00000000000000001FFFF0
00000000000000001FFFF0
00000000000000001FFFF0
00000000000000001FFFF0
00000000000000001FFFF0
00000000000000001FFFF0
00000000000000001FFFF0
00000000000000001FFFF0
00000000000000001FFFF0
00000000000000001FFFF0
00000000000000001FFFF0
00000000000000001FFFF0
00000000000000001FFFF0
00000000000000001FFFF0
00000000000000001FFFF0
00000000000000001FFFF0
00000000000000001FFFF0
00000000000000001FFFF0
00000000000000001FFFF0
00000000000000001FFFF0
00000000000000001FFFF0
00000000000000001FFFF0
00000000000000001FFFF0
00000000000000001FFFF0
00000000000000001FFFF0
00000000000000001FFFF0
00000000000000001FFFF0
00000000000000001FFFF0
00000000000000001FFFF0
00000000000000001FFFF0
00000000000000001FFFF0
00000000000000001FFFE0
00000000000000001FFFE0
00000000000000003FFFE0
00000000000000003FFFE0
00000000000000003FFFE0
00000000000000003FFFE0
00000000000000003FFFE0
00000000000000007FFFE0
00000000000000007FFFE0
00000000000000007FFFC0
0000000000000000FFFFC0
0000000000000000FFFFC0
0000000000000001FFFFC0
0000000000000003FFFF80
0000000000000003FFFF80
0000000000000007FFFF80
000000000000000FFFFF00
000000000000001FFFFF00
000000000000007FFFFF00
00000000000001FFFFFE00
00000000000007FFFFFE00
0000000000003FFFFFFC00
000000000003FFFFFFF800
FFFFFFFFFFFFFFFFFFF800
FFFFFFFFFFFFFFFFFFF000
FFFFFFFFFFFFFFFFFFE000
FFFFFFFFFFFFFFFFFFE000
FFFFFFFFFFFFFFFFFFC000
FFFFFFFFFFFFFFFFFF8000
FFFFFFFFFFFFFFFFFF0000
FFFFFFFFFFFFFFFFFE0000
FFFFFFFFFFFFFFFFF80000
FFFFFFFFFFFFFFFFF00000
FFFFFFFFFFFFFFFFC00000
FFFFFFFFFFFFFFFF000000
FFFFFFFFFFFFFFFC000000
FFFFFFFFFFFFFFF0000000
FFFFFFFFFFFFFF00000000
FFFFFFFFFFFFF000000000
FFFFFFFFFFF80000000000
ENDCHAR
STARTCHAR k
ENCODING 107
SWIDTH 875 0
DWIDTH 116 0
BBX 105 96 8 0
BITMAP
FFFF8000000000000007FFFFFE00
FFFF800000000000001FFFFFF800
FFFF800000000000003FFFFFF000
FFFF800000000000007FFFFFC000
FFFF80000000000001FFFFFF8000
FFFF80000000000003FFFFFF0000
FFFF80000000000007FFFFFC0000
FFFF8000000000001FFFFFF80000
FFFF8000000000003FFFFFF00000
FFFF8000000000007FFFFFC00000
FFFF800000000000FFFFFF800000
FFFF800000000003FFFFFF000000
FFFF800000000007FFFFFC000000
FFFF80000000000FFFFFF8000000
FFFF80000000003FFFFFF0000000
FFFF80000000007FFFFFC0000000
FFFF8000000000FFFFFF80000000
FFFF8000000003FFFFFF00000000
FFFF8000000007FFFFFC00000000
FFFF800000000FFFFFF800000000
FFFF800000001FFFFFF000000000
FFFF800000007FFFFFC000000000
FFFF80000000FFFFFF8000000000
FFFF80000001FFFFFF0000000000
FFFF80000007FFFFFC0000000000
FFFF8000000FFFFFF80000000000
FFFF8000001FFFFFF00000000000
FFFF8000003FFFFFC00000000000
FFFF800000FFFFFF800000000000
FFFF800001FFFFFE000000000000
FFFF800003FFFFFC000000000000
FFFF80000FFFFFF8000000000000
FFFF80001FFFFFE0000000000000
FFFF80003FFFFFC0000000000000
FFFF8000FFFFFF80000000000000
FFFF8001FFFFFE00000000000000
FFFF8003FFFFFC00000000000000
FFFF8007FFFFF800000000000000
FFFF801FFFFFE000000000000000
FFFF803FFFFFC000000000000000
FFFF807FFFFF8000000000000000
FFFF80FFFFFE0000000000000000
FFFF81FFFFFC0000000000000000
FFFF81FFFFF80000000000000000
FFFF83FFFFE00000000000000000
FFFF83FFFFC00000000000000000
FFFF83FFFF800000000000000000
FFFF83FFFF800000000000000000
FFFF83FFFFC00000000000000000
FFFF81FFFFF00000000000000000
FFFF81FFFFF80000000000000000
FFFF81FFFFFC0000000000000000
FFFF80FFFFFF0000000000000000
FFFF807FFFFF8000000000000000
FFFF801FFFFFC000000000000000
FFFF800FFFFFF000000000000000
FFFF8007FFFFF800000000000000
FFFF8003FFFFFC00000000000000
FFFF8000FFFFFF00000000000000
FFFF80007FFFFF80000000000000
FFFF80003FFFFFC0000000000000
FFFF80001FFFFFF0000000000000
FFFF800007FFFFF8000000000000
FFFF800003FFFFFC000000000000
FFFF800001FFFFFE000000000000
FFFF8000007FFFFF800000000000
FFFF8000003FFFFFC00000000000
FFFF8000001FFFFFE00000000000
FFFF8000000FFFFFF80000000000
FFFF80000003FFFFFC0000000000
FFFF80000001FFFFFE0000000000
FFFF80000000FFFFFF8000000000
FFFF800000007FFFFFC000000000
FFFF800000001FFFFFE000000000
FFFF800000000FFFFFF800000000
FFFF8000000007FFFFFC00000000
FFFF8000000001FFFFFE00000000
FFFF8000000000FFFFFF80000000
FFFF80000000007FFFFFC0000000
FFFF80000000003FFFFFE0000000
FFFF80000000000FFFFFF8000000
FFFF800000000007FFFFFC000000
FFFF800000000003FFFFFE000000
FFFF800000000001FFFFFF800000
FFFF8000000000007FFFFFC00000
FFFF8000000000003FFFFFE00000
FFFF8000000000001FFFFFF00000
FFFF80000000000007FFFFFC0000
FFFF80000000000003FFFFFE0000
FFFF80000000000001FFFFFF0000
FFFF80000000000000FFFFFFC000
FFFF800000000000003FFFFFE000
FFFF800000000000001FFFFFF000
FFFF800000000000000FFFFFFC00
FFFF8000000000000007FFFFFE00
FFFF8000000000000001FFFFFF80
ENDCHAR
STARTCHAR l
ENCODING 108
SWIDTH 707 0
DWIDTH 93 0
BBX 82 96 8 0
BITMAP
FFFF800000000000000000
FFFF800000000000000000
FFFF800000000000000000
FFFF800000000000000000
FFFF800000000000000000
FFFF800000000000000000
FFFF800000000000000000
FFFF800000000000000000
FFFF800000000000000000
FFFF800000000000000000
FFFF800000000000000000
FFFF800000000000000000
FFFF800000000000000000
FFFF800000000000000000
FFFF800000000000000000
FFFF800000000000000000
FFFF800000000000000000
FFFF800000000000000000
FFFF800000000000000000
FFFF800000000000000000
FFFF800000000000000000
FFFF800000000000000000
FFFF800000000000000000
FFFF800000000000000000
FFFF800000000000000000
FFFF800000000000000000
FFFF800000000000000000
FFFF800000000000000000
FFFF800000000000000000
FFFF800000000000000000
FFFF800000000000000000
FFFF800000000000000000
FFFF800000000000000000
FFFF800000000000000000
FFFF800000000000000000
FFFF800000000000000000
FFFF800000000000000000
FFFF800000000000000000
FFFF800000000000000000
FFFF800000000000000000
FFFF800000000000000000
FFFF800000000000000000
FFFF800000000000000000
FFFF800000000000000000
FFFF800000000000000000
FFFF800000000000000000
FFFF800000000000000000
FFFF800000000000000000
FFFF800000000000000000
FFFF800000000000000000
FFFF800000000000000000
FFFF800000000000000000
FFFF800000000000000000
FFFF800000000000000000
FFFF800000000000000000
FFFF800000000000000000
FFFF800000000000000000
FFFF800000000000000000
FFFF800000000000000000
FFFF800000000000000000
FFFF800000000000000000
FFFF800000000000000000
FFFF800000000000000000
FFFF800000000000000000
FFFF800000000000000000
FFFF800000000000000000
FFFF800000000000000000
FFFF800000000000000000
FFFF800000000000000000
FFFF800000000000000000
FFFF800000000000000000
FFFF800000000000000000
FFFF800000000000000000
FFFF800000000000000000
FFFF800000000000000000
FFFF800000000000000000
FFFF800000000000000000
FFFF800000000000000000
FFFF800000000000000000
FFFFFFFFFFFFFFFFFFFFC0
FFFFFFFFFFFFFFFFFFFFC0
FFFFFFFFFFFFFFFFFFFFC0
FFFFFFFFFFFFFFFFFFFFC0
FFFFFFFFFFFFFFFFFFFFC0
FFFFFFFFFFFFFFFFFFFFC0
FFFFFFFFFFFFFFFFFFFFC0
FFFFFFFFFFFFFFFFFFFFC0
FFFFFFFFFFFFFFFFFFFFC0
FFFFFFFFFFFFFFFFFFFFC0
FFFFFFFFFFFFFFFFFFFFC0
FFFFFFFFFFFFFFFFFFFFC0
FFFFFFFFFFFFFFFFFFFFC0
FFFFFFFFFFFFFFFFFFFFC0
FFFFFFFFFFFFFFFFFFFFC0
FFFFFFFFFFFFFFFFFFFFC0
FFFFFFFFFFFFFFFFFFFFC0
ENDCHAR
STARTCHAR m
ENCODING 109
SWIDTH 1115 0
DWIDTH 147 0
BBX 141 98 3 -2
BITMAP
00000003F000000000000000003F00000000
0000000FFC0000000000000000FFC0000000
0000001FFE0000000000000001FFE0000000
0000003FFF0000000000000003FFE0000000
0000003FFF8000000000000007FFF0000000
0000007FFFC000000000000007FFF0000000
0000007FFFC00000000000000FFFF8000000
0000007FFFC00000000000000FFFF8000000
000000FFFFE00000000000001FFFF8000000
000000FFFFE00000000000001FFFFC000000
000000FFFFF00000000000001FFFFC000000
000000FFFFF00000000000003FFFFC000000
000001FFFFF80000000000003FFFFC000000
000001FFFFF80000000000007FFFFE000000
000001FFFFFC0000000000007FFFFE000000
000003FFFFFC000000000000FFFFFE000000
000003FFFFFC000000000000FFFFFF000000
000003FFFFFE000000000001FFFFFF000000
000003FFFFFE000000000001FFFFFF000000
000007FFFFFF000000000001FFFFFF000000
000007FFFFFF000000000003FFFFFF800000
000007FFFFFF800000000003FFFFFF800000
00000FFFFFFF800000000007FFFFFF800000
00000FFFFFFFC00000000007FFFFFF800000
00000FFFFFFFC0000000000FFFFFFFC00000
00000FFFFFFFC0000000000FFFFFFFC00000
00001FFFFFFFE0000000000FFFFFFFC00000
00001FFFFFFFE0000000001FFFFFFFE00000
00001FFFFFFFF0000000001FFFFFFFE00000
00001FFFFFFFF0000000003FFFFFFFE00000
00003FFFFFFFF8000000003FFFDFFFE00000
00003FFFCFFFF8000000007FFFDFFFF00000
00003FFFCFFFF8000000007FFF9FFFF00000
00007FFFC7FFFC00000000FFFF8FFFF00000
00007FFFC7FFFC00000000FFFF0FFFF00000
00007FFF83FFFE00000000FFFF0FFFF80000
00007FFF83FFFE00000001FFFE0FFFF80000
0000FFFF83FFFF00000001FFFE07FFF80000
0000FFFF81FFFF00000003FFFE07FFFC0000
0000FFFF01FFFF80000003FFFC07FFFC0000
0000FFFF00FFFF80000007FFFC07FFFC0000
0001FFFF00FFFF80000007FFF803FFFC0000
0001FFFE007FFFC000000FFFF803FFFE0000
0001FFFE007FFFC000000FFFF003FFFE0000
0003FFFE003FFFE000000FFFF001FFFE0000
0003FFFE003FFFE000001FFFE001FFFF0000
0003FFFC003FFFF000001FFFE001FFFF0000
0003FFFC001FFFF000003FFFE001FFFF0000
0007FFFC001FFFF800003FFFC000FFFF0000
0007FFFC000FFFF800007FFFC000FFFF8000
0007FFF8000FFFF800007FFF8000FFFF8000
000FFFF80007FFFC00007FFF8000FFFF8000
000FFFF80007FFFC0000FFFF00007FFF8000
000FFFF00003FFFE0000FFFF00007FFFC000
000FFFF00003FFFE0001FFFE00007FFFC000
001FFFF00003FFFF0001FFFE00003FFFC000
001FFFF00001FFFF0003FFFE00003FFFE000
001FFFE00001FFFF0003FFFC00003FFFE000
001FFFE00000FFFF8007FFFC00003FFFE000
003FFFE00000FFFF8007FFF800001FFFE000
003FFFC000007FFFC007FFF800001FFFF000
003FFFC000007FFFC00FFFF000001FFFF000
007FFFC000007FFFE00FFFF000000FFFF000
007FFFC000003FFFE01FFFE000000FFFF000
007FFF8000003FFFF01FFFE000000FFFF800
007FFF8000001FFFF03FFFE000000FFFF800
00FFFF8000001FFFF03FFFC0000007FFF800
00FFFF8000000FFFF87FFFC0000007FFFC00
00FFFF0000000FFFF87FFF80000007FFFC00
01FFFF00000007FFFC7FFF80000007FFFC00
01FFFF00000007FFFCFFFF00000003FFFC00
01FFFE00000007FFFEFFFF00000003FFFE00
01FFFE00000003FFFFFFFF00000003FFFE00
03FFFE00000003FFFFFFFE00000001FFFE00
03FFFE00000001FFFFFFFE00000001FFFE00
03FFFC00000001FFFFFFFC00000001FFFF00
03FFFC00000000FFFFFFFC00000001FFFF00
07FFFC00000000FFFFFFF800000000FFFF00
07FFFC00000000FFFFFFF800000000FFFF80
07FFF8000000007FFFFFF000000000FFFF80
0FFFF8000000007FFFFFF000000000FFFF80
0FFFF8000000003FFFFFF0000000007FFF80
0FFFF0000000003FFFFFE0000000007FFFC0
0FFFF0000000001FFFFFE0000000007FFFC0
1FFFF0000000001FFFFFC0000000003FFFC0
1FFFF0000000000FFFFFC0000000003FFFE0
1FFFE0000000000FFFFF80000000003FFFE0
1FFFE0000000000FFFFF80000000003FFFE0
3FFFE00000000007FFFF00000000001FFFE0
3FFFC00000000007FFFF00000000001FFFF0
3FFFC00000000003FFFF00000000001FFFF0
7FFFC00000000003FFFE00000000000FFFF0
7FFFC00000000001FFFE00000000000FFFF0
7FFF800000000001FFFC00000000000FFFF8
7FFF800000000000FFF800000000000FFFF8
FFFF8000000000007FF0000000000007FFF8
00000000000000003FE00000000000000000
000000000000000002000000000000000000
ENDCHAR
STARTCHAR n
ENCODING 110
SWIDTH 873 0
DWIDTH 115 0
BBX 99 96 8 0
BITMAP
07E000000000000000001FFFE0
1FF800000000000000001FFFE0
3FFE00000000000000001FFFE0
3FFF00000000000000001FFFE0
7FFF80000000000000001FFFE0
7FFFC0000000000000001FFFE0
FFFFE0000000000000001FFFE0
FFFFF0000000000000001FFFE0
FFFFF8000000000000001FFFE0
FFFFFC000000000000001FFFE0
FFFFFE000000000000001FFFE0
FFFFFF000000000000001FFFE0
FFFFFF800000000000001FFFE0
FFFFFFC00000000000001FFFE0
FFFFFFE00000000000001FFFE0
FFFFFFF00000000000001FFFE0
FFFFFFF80000000000001FFFE0
FFFFFFFC0000000000001FFFE0
FFFFFFFE0000000000001FFFE0
FFFFFFFF0000000000001FFFE0
FFFFFFFF8000000000001FFFE0
FFFFFFFFC000000000001FFFE0
FFFFFFFFE000000000001FFFE0
FFFFFFFFF000000000001FFFE0
FFFFFFFFF800000000001FFFE0
FFFFFFFFFC00000000001FFFE0
FFFFFFFFFE00000000001FFFE0
FFFF7FFFFF00000000001FFFE0
FFFF3FFFFF80000000001FFFE0
FFFF1FFFFFC0000000001FFFE0
FFFF0FFFFFE0000000001FFFE0
FFFF07FFFFF0000000001FFFE0
FFFF03FFFFF8000000001FFFE0
FFFF01FFFFFC000000001FFFE0
FFFF00FFFFFE000000001FFFE0
FFFF007FFFFF000000001FFFE0
FFFF003FFFFF800000001FFFE0
FFFF001FFFFFC00000001FFFE0
FFFF000FFFFFE00000001FFFE0
FFFF0007FFFFF00000001FFFE0
FFFF0003FFFFF80000001FFFE0
FFFF0001FFFFFC0000001FFFE0
FFFF0000FFFFFE0000001FFFE0
FFFF00007FFFFF0000001FFFE0
FFFF00003FFFFFC000001FFFE0
FFFF00001FFFFFE000001FFFE0
FFFF00000FFFFFF000001FFFE0
FFFF000007FFFFF800001FFFE0
FFFF000003FFFFFC00001FFFE0
FFFF000001FFFFFE00001FFFE0
FFFF000000FFFFFF00001FFFE0
FFFF0000007FFFFF80001FFFE0
FFFF0000003FFFFFC0001FFFE0
FFFF0000001FFFFFE0001FFFE0
FFFF0000000FFFFFF0001FFFE0
FFFF00000007FFFFF8001FFFE0
FFFF00000003FFFFFC001FFFE0
FFFF00000001FFFFFE001FFFE0
FFFF00000000FFFFFF001FFFE0
FFFF000000007FFFFF801FFFE0
FFFF000000003FFFFFC01FFFE0
FFFF000000001FFFFFE01FFFE0
FFFF000000000FFFFFF01FFFE0
FFFF0000000003FFFFF81FFFE0
FFFF0000000001FFFFFC1FFFE0
FFFF0000000000FFFFFE1FFFE0
FFFF00000000007FFFFF1FFFE0
FFFF00000000003FFFFF9FFFE0
FFFF00000000001FFFFFDFFFE0
FFFF00000000000FFFFFFFFFE0
FFFF000000000007FFFFFFFFE0
FFFF000000000003FFFFFFFFE0
FFFF000000000001FFFFFFFFE0
FFFF000000000000FFFFFFFFE0
FFFF0000000000007FFFFFFFE0
FFFF0000000000003FFFFFFFE0
FFFF0000000000001FFFFFFFE0
FFFF0000000000000FFFFFFFE0
FFFF00000000000007FFFFFFE0
FFFF00000000000003FFFFFFE0
FFFF00000000000001FFFFFFE0
FFFF00000000000000FFFFFFE0
FFFF000000000000007FFFFFE0
FFFF000000000000003FFFFFE0
FFFF000000000000001FFFFFE0
FFFF000000000000000FFFFFE0
FFFF0000000000000007FFFFE0
FFFF0000000000000003FFFFE0
FFFF0000000000000001FFFFE0
FFFF0000000000000000FFFFE0
FFFF00000000000000007FFFE0
FFFF00000000000000003FFFC0
FFFF00000000000000001FFFC0
FFFF00000000000000000FFF80
FFFF000000000000000003FF00
FFFF000000000000000000FC00
ENDCHAR
STARTCHAR o
ENCODING 111
SWIDTH 968 0
DWIDTH 128 0
BBX 117 96 6 0
BITMAP
0000000001FFFFFFFFF80000000000
000000007FFFFFFFFFFFE000000000
00000003FFFFFFFFFFFFFC00000000
0000001FFFFFFFFFFFFFFF80000000
0000007FFFFFFFFFFFFFFFE0000000
000001FFFFFFFFFFFFFFFFF8000000
000007FFFFFFFFFFFFFFFFFE000000
00000FFFFFFFFFFFFFFFFFFF800000
00003FFFFFFFFFFFFFFFFFFFC00000
00007FFFFFFFFFFFFFFFFFFFE00000
0001FFFFFFFFFFFFFFFFFFFFF80000
0003FFFFFFFFFFFFFFFFFFFFFC0000
0007FFFFFFFFFFFFFFFFFFFFFE0000
000FFFFFFFFFFFFFFFFFFFFFFF0000
001FFFFFFFFFFFFFFFFFFFFFFF8000
003FFFFFFFFFFFFFFFFFFFFFFFC000
003FFFFFFFFFFFFFFFFFFFFFFFC000
007FFFFFFE000000000FFFFFFFE000
00FFFFFFF00000000000FFFFFFF000
01FFFFFF8000000000001FFFFFF800
01FFFFFE00000000000007FFFFF800
03FFFFFC00000000000003FFFFFC00
03FFFFF000000000000000FFFFFC00
07FFFFE0000000000000007FFFFE00
0FFFFFC0000000000000003FFFFF00
0FFFFF80000000000000001FFFFF00
0FFFFF00000000000000000FFFFF00
1FFFFE000000000000000007FFFF80
1FFFFC000000000000000003FFFF80
3FFFFC000000000000000003FFFFC0
3FFFF8000000000000000001FFFFC0
3FFFF0000000000000000000FFFFC0
7FFFF0000000000000000000FFFFE0
7FFFE00000000000000000007FFFE0
7FFFE00000000000000000007FFFE0
7FFFC00000000000000000003FFFE0
FFFFC00000000000000000003FFFF0
FFFFC00000000000000000003FFFF0
FFFFC00000000000000000001FFFF0
FFFF800000000000000000001FFFF0
FFFF800000000000000000001FFFF0
FFFF800000000000000000001FFFF0
FFFF800000000000000000001FFFF0
FFFF800000000000000000001FFFF0
FFFF000000000000000000000FFFF0
FFFF000000000000000000000FFFF0
FFFF000000000000000000000FFFF0
FFFF000000000000000000000FFFF8
FFFF000000000000000000000FFFF0
FFFF000000000000000000000FFFF0
FFFF000000000000000000000FFFF0
FFFF000000000000000000000FFFF0
FFFF800000000000000000001FFFF0
FFFF800000000000000000001FFFF0
FFFF800000000000000000001FFFF0
FFFF800000000000000000001FFFF0
FFFF800000000000000000001FFFF0
FFFFC00000000000000000003FFFF0
7FFFC00000000000000000003FFFE0
7FFFC00000000000000000003FFFE0
7FFFE00000000000000000007FFFE0
7FFFE00000000000000000007FFFE0
3FFFE00000000000000000007FFFC0
3FFFF0000000000000000000FFFFC0
3FFFF0000000000000000000FFFFC0
1FFFF8000000000000000001FFFF80
1FFFFC000000000000000003FFFF80
1FFFFC000000000000000003FFFF80
0FFFFE000000000000000007FFFF00
0FFFFF00000000000000000FFFFF00
07FFFF80000000000000001FFFFE00
07FFFFC0000000000000003FFFFE00
03FFFFE0000000000000007FFFFC00
03FFFFF000000000000000FFFFFC00
01FFFFFC00000000000003FFFFF800
00FFFFFE0000000000000FFFFFF000
00FFFFFF8000000000003FFFFFF000
007FFFFFF00000000000FFFFFFE000
003FFFFFFE000000000FFFFFFFC000
001FFFFFFFFFFFFFFFFFFFFFFF8000
001FFFFFFFFFFFFFFFFFFFFFFF8000
000FFFFFFFFFFFFFFFFFFFFFFF0000
0007FFFFFFFFFFFFFFFFFFFFFE0000
0003FFFFFFFFFFFFFFFFFFFFFC0000
0001FFFFFFFFFFFFFFFFFFFFF80000
00007FFFFFFFFFFFFFFFFFFFE00000
00003FFFFFFFFFFFFFFFFFFFC00000
00001FFFFFFFFFFFFFFFFFFF800000
000007FFFFFFFFFFFFFFFFFE000000
000003FFFFFFFFFFFFFFFFFC000000
000000FFFFFFFFFFFFFFFFF0000000
0000003FFFFFFFFFFFFFFFC0000000
0000000FFFFFFFFFFFFFFF00000000
00000001FFFFFFFFFFFFF800000000
000000003FFFFFFFFFFFC000000000
0000000001FFFFFFFFF80000000000
ENDCHAR
STARTCHAR p
ENCODING 112
SWIDTH 867 0
DWIDTH 114 0
BBX 103 96 8 0
BITMAP
FFFFFFFFFFFFFFFFFFE0000000
FFFFFFFFFFFFFFFFFFFF000000
FFFFFFFFFFFFFFFFFFFFE00000
FFFFFFFFFFFFFFFFFFFFF80000
FFFFFFFFFFFFFFFFFFFFFE0000
FFFFFFFFFFFFFFFFFFFFFF8000
FFFFFFFFFFFFFFFFFFFFFFC000
FFFFFFFFFFFFFFFFFFFFFFF000
FFFFFFFFFFFFFFFFFFFFFFF800
FFFFFFFFFFFFFFFFFFFFFFFC00
FFFFFFFFFFFFFFFFFFFFFFFE00
FFFFFFFFFFFFFFFFFFFFFFFF00
FFFFFFFFFFFFFFFFFFFFFFFF00
FFFFFFFFFFFFFFFFFFFFFFFF80
FFFFFFFFFFFFFFFFFFFFFFFFC0
FFFFFFFFFFFFFFFFFFFFFFFFC0
FFFFFFFFFFFFFFFFFFFFFFFFE0
FFFF800000000000003FFFFFE0
FFFF8000000000000007FFFFF0
FFFF8000000000000001FFFFF0
FFFF8000000000000000FFFFF8
FFFF80000000000000007FFFF8
FFFF80000000000000003FFFF8
FFFF80000000000000001FFFFC
FFFF80000000000000000FFFFC
FFFF80000000000000000FFFFC
FFFF800000000000000007FFFC
FFFF800000000000000007FFFC
FFFF800000000000000003FFFC
FFFF800000000000000003FFFE
FFFF800000000000000003FFFE
FFFF800000000000000003FFFE
FFFF800000000000000003FFFE
FFFF800000000000000003FFFE
FFFF800000000000000003FFFE
FFFF800000000000000003FFFE
FFFF800000000000000003FFFE
FFFF800000000000000003FFFE
FFFF800000000000000003FFFE
FFFF800000000000000003FFFE
FFFF800000000000000003FFFE
FFFF800000000000000007FFFC
FFFF800000000000000007FFFC
FFFF800000000000000007FFFC
FFFF80000000000000000FFFFC
FFFF80000000000000000FFFFC
FFFF80000000000000001FFFF8
FFFF80000000000000003FFFF8
FFFF80000000000000007FFFF8
FFFF8000000000000000FFFFF0
FFFF8000000000000003FFFFF0
FFFF800000000000000FFFFFE0
FFFF800000000000007FFFFFE0
FFFF8007FFFFFFFFFFFFFFFFC0
FFFF8007FFFFFFFFFFFFFFFFC0
FFFF8007FFFFFFFFFFFFFFFF80
FFFF8007FFFFFFFFFFFFFFFF00
FFFF8007FFFFFFFFFFFFFFFF00
FFFF8007FFFFFFFFFFFFFFFE00
FFFF8007FFFFFFFFFFFFFFFC00
FFFF8007FFFFFFFFFFFFFFF800
FFFF8007FFFFFFFFFFFFFFF000
FFFF8007FFFFFFFFFFFFFFE000
FFFF8007FFFFFFFFFFFFFFC000
FFFF8007FFFFFFFFFFFFFF0000
FFFF8007FFFFFFFFFFFFFC0000
FFFF8007FFFFFFFFFFFFF00000
FFFF8007FFFFFFFFFFFFC00000
FFFF8007FFFFFFFFFFFC000000
FFFF8007FFFFFFFFFF80000000
FFFF8000000000000000000000
FFFF8000000000000000000000
FFFF8000000000000000000000
FFFF8000000000000000000000
FFFF8000000000000000000000
FFFF8000000000000000000000
FFFF8000000000000000000000
FFFF8000000000000000000000
FFFF8000000000000000000000
FFFF8000000000000000000000
FFFF8000000000000000000000
FFFF8000000000000000000000
FFFF8000000000000000000000
FFFF8000000000000000000000
FFFF8000000000000000000000
FFFF8000000000000000000000
FFFF8000000000000000000000
FFFF8000000000000000000000
FFFF8000000000000000000000
FFFF8000000000000000000000
FFFF8000000000000000000000
FFFF8000000000000000000000
FFFF8000000000000000000000
FFFF8000000000000000000000
FFFF8000000000000000000000
FFFF8000000000000000000000
ENDCHAR
STARTCHAR q
ENCODING 113
SWIDTH 968 0
DWIDTH 128 0
BBX 121 96 6 0
BITMAP
0000000001FFFFFFFFF8000000000000
000000007FFFFFFFFFFFE00000000000
00000003FFFFFFFFFFFFFC0000000000
0000001FFFFFFFFFFFFFFF8000000000
0000007FFFFFFFFFFFFFFFE000000000
000001FFFFFFFFFFFFFFFFF800000000
000007FFFFFFFFFFFFFFFFFE00000000
00000FFFFFFFFFFFFFFFFFFF80000000
00003FFFFFFFFFFFFFFFFFFFC0000000
00007FFFFFFFFFFFFFFFFFFFE0000000
0001FFFFFFFFFFFFFFFFFFFFF8000000
0003FFFFFFFFFFFFFFFFFFFFFC000000
0007FFFFFFFFFFFFFFFFFFFFFE000000
000FFFFFFFFFFFFFFFFFFFFFFF000000
001FFFFFFFFFFFFFFFFFFFFFFF800000
003FFFFFFFFFFFFFFFFFFFFFFFC00000
003FFFFFFFFFFFFFFFFFFFFFFFC00000
007FFFFFFE000000000FFFFFFFE00000
00FFFFFFF00000000000FFFFFFF00000
01FFFFFF8000000000001FFFFFF80000
01FFFFFE00000000000007FFFFF80000
03FFFFFC00000000000003FFFFFC0000
03FFFFF000000000000000FFFFFC0000
07FFFFE0000000000000007FFFFE0000
0FFFFFC0000000000000003FFFFF0000
0FFFFF80000000000000001FFFFF0000
0FFFFF00000000000000000FFFFF0000
1FFFFE000000000000000007FFFF8000
1FFFFC000000000000000003FFFF8000
3FFFFC000000000000000003FFFFC000
3FFFF8000000000000000001FFFFC000
3FFFF0000000000000000000FFFFC000
7FFFF0000000000000000000FFFFE000
7FFFE00000000000000000007FFFE000
7FFFE00000000000000000007FFFE000
7FFFC00000000000000000003FFFE000
FFFFC00000000000000000003FFFF000
FFFFC00000000000000000003FFFF000
FFFFC00000000000000000001FFFF000
FFFF800000000000000000001FFFF000
FFFF800000000000000000001FFFF000
FFFF800000000000000000001FFFF000
FFFF800000000000000000001FFFF000
FFFF800000000000000000001FFFF000
FFFF000000000000000000000FFFF000
FFFF000000000000000000000FFFF000
FFFF000000000000000000000FFFF000
FFFF000000000000000000000FFFF800
FFFF000000000000000000000FFFF000
FFFF000000000000000000000FFFF000
FFFF000000000000000000000FFFF000
FFFF000000000000000000000FFFF000
FFFF800000000000000000001FFFF000
FFFF800000000000000000001FFFF000
FFFF800000000000000000001FFFF000
FFFF800000000000000000001FFFF000
FFFF800000003FFFFF0000001FFFF000
FFFFC00000001FFFFFC000003FFFF000
7FFFC000000007FFFFE000003FFFE000
7FFFC000000003FFFFF000003FFFE000
7FFFE000000001FFFFF800007FFFE000
7FFFE0000000007FFFFC00007FFFE000
3FFFE0000000003FFFFF00007FFFC000
3FFFF0000000001FFFFF8000FFFFC000
3FFFF0000000000FFFFFC001FFFFC000
1FFFF80000000003FFFFE001FFFF8000
1FFFFC0000000001FFFFF003FFFF8000
1FFFFC0000000000FFFFF803FFFF8000
0FFFFE00000000007FFFFE07FFFF0000
0FFFFF00000000001FFFFF0FFFFF0000
07FFFF80000000000FFFFF9FFFFE0000
07FFFFC00000000007FFFFFFFFFE0000
03FFFFE00000000001FFFFFFFFFC0000
03FFFFF00000000000FFFFFFFFFC0000
01FFFFFC00000000007FFFFFFFF80000
00FFFFFE00000000003FFFFFFFF00000
00FFFFFF80000000000FFFFFFFF00000
007FFFFFF00000000007FFFFFFE00000
003FFFFFFE000000000FFFFFFFC00000
001FFFFFFFFFFFFFFFFFFFFFFF800000
001FFFFFFFFFFFFFFFFFFFFFFF800000
000FFFFFFFFFFFFFFFFFFFFFFF000000
0007FFFFFFFFFFFFFFFFFFFFFF000000
0003FFFFFFFFFFFFFFFFFFFFFF800000
0001FFFFFFFFFFFFFFFFFFFFFFC00000
00007FFFFFFFFFFFFFFFFFFFFFF00000
00003FFFFFFFFFFFFFFFFFFFFFF80000
00001FFFFFFFFFFFFFFFFFFFFFFC0000
000007FFFFFFFFFFFFFFFFFFFFFF0000
000003FFFFFFFFFFFFFFFFFFFFFF8000
000000FFFFFFFFFFFFFFFFF7FFFFC000
0000003FFFFFFFFFFFFFFFC3FFFFE000
0000000FFFFFFFFFFFFFFF01FFFFF800
00000001FFFFFFFFFFFFF800FFFFFC00
000000003FFFFFFFFFFFC0007FFFFE00
0000000001FFFFFFFFF000003FFFFF80
ENDCHAR
STARTCHAR r
ENCODING 114
SWIDTH 921 0
DWIDTH 122 0
BBX 113 96 8 0
BITMAP
FFFFFFFFFFFFFFFFFFF00000000000
FFFFFFFFFFFFFFFFFFFF8000000000
FFFFFFFFFFFFFFFFFFFFF000000000
FFFFFFFFFFFFFFFFFFFFFC00000000
FFFFFFFFFFFFFFFFFFFFFF00000000
FFFFFFFFFFFFFFFFFFFFFFC0000000
FFFFFFFFFFFFFFFFFFFFFFE0000000
FFFFFFFFFFFFFFFFFFFFFFF8000000
FFFFFFFFFFFFFFFFFFFFFFFC000000
FFFFFFFFFFFFFFFFFFFFFFFE000000
FFFFFFFFFFFFFFFFFFFFFFFF000000
FFFFFFFFFFFFFFFFFFFFFFFF800000
FFFFFFFFFFFFFFFFFFFFFFFF800000
FFFFFFFFFFFFFFFFFFFFFFFFC00000
FFFFFFFFFFFFFFFFFFFFFFFFE00000
FFFFFFFFFFFFFFFFFFFFFFFFE00000
FFFFFFFFFFFFFFFFFFFFFFFFF00000
FFFF800000000000000FFFFFF00000
FFFF8000000000000003FFFFF80000
FFFF8000000000000000FFFFF80000
FFFF80000000000000003FFFFC0000
FFFF80000000000000001FFFFC0000
FFFF80000000000000000FFFFC0000
FFFF800000000000000007FFFE0000
FFFF800000000000000007FFFE0000
FFFF800000000000000003FFFE0000
FFFF800000000000000003FFFE0000
FFFF800000000000000001FFFF0000
FFFF800000000000000001FFFF0000
FFFF800000000000000001FFFF0000
FFFF800000000000000001FFFF0000
FFFF800000000000000001FFFF0000
FFFF800000000000000001FFFF0000
FFFF800000000000000000FFFF0000
FFFF800000000000000000FFFF0000
FFFF800000000000000000FFFF0000
FFFF800000000000000001FFFF0000
FFFF800000000000000001FFFF0000
FFFF800000000000000001FFFF0000
FFFF800000000000000001FFFF0000
FFFF800000000000000001FFFF0000
FFFF800000000000000001FFFF0000
FFFF800000000000000001FFFE0000
FFFF800000000000000003FFFE0000
FFFF800000000000000003FFFE0000
FFFF800000000000000007FFFE0000
FFFF800000000000000007FFFE0000
FFFF80000000000000000FFFFC0000
FFFF80000000000000001FFFFC0000
FFFF80000000000000001FFFFC0000
FFFF80000000000000007FFFF80000
FFFF8000000000000000FFFFF80000
FFFF8000000000000003FFFFF00000
FFFF800000000000001FFFFFF00000
FFFF8007FFFFFFFFFFFFFFFFE00000
FFFF8007FFFFFFFFFFFFFFFFC00000
FFFF8007FFFFFFFFFFFFFFFFC00000
FFFF8007FFFFFFFFFFFFFFFF800000
FFFF8007FFFFFFFFFFFFFFFF000000
FFFF8007FFFFFFFFFFFFFFFE000000
FFFF8007FFFFFFFFFFFFFFFC000000
FFFF8007FFFFFFFFFFFFFFF8000000
FFFF8007FFFFFFFFFFFFFFF0000000
FFFF8007FFFFFFFFFFFFFFC0000000
FFFF8007FFFFFFFFFFFFFF80000000
FFFF8007FFFFFFFFFFFFFE00000000
FFFF8007FFFFFFFFFFFFF000000000
FFFF8007FFFFFFFFFFFFF800000000
FFFF8007FFFFFFFFFFFFFC00000000
FFFF8000000000003FFFFE00000000
FFFF8000000000003FFFFF00000000
FFFF8000000000001FFFFF80000000
FFFF8000000000000FFFFFC0000000
FFFF80000000000007FFFFE0000000
FFFF80000000000003FFFFF0000000
FFFF80000000000001FFFFF8000000
FFFF80000000000000FFFFFC000000
FFFF800000000000007FFFFE000000
FFFF800000000000003FFFFF000000
FFFF800000000000001FFFFF800000
FFFF800000000000001FFFFFC00000
FFFF800000000000000FFFFFE00000
FFFF8000000000000007FFFFF00000
FFFF8000000000000003FFFFF80000
FFFF8000000000000001FFFFFC0000
FFFF8000000000000000FFFFFE0000
FFFF80000000000000007FFFFF0000
FFFF80000000000000003FFFFF8000
FFFF80000000000000001FFFFFC000
FFFF80000000000000000FFFFFE000
FFFF80000000000000000FFFFFF000
FFFF800000000000000007FFFFF800
FFFF800000000000000003FFFFFC00
FFFF800000000000000001FFFFFE00
FFFF800000000000000000FFFFFF00
FFFF8000000000000000007FFFFF80
ENDCHAR
STARTCHAR s
ENCODING 115
SWIDTH 880 0
DWIDTH 116 0
BBX 103 96 7 0
BITMAP
000001FFFFFFFFFFFFFFFFFFC0
00003FFFFFFFFFFFFFFFFFFFC0
0000FFFFFFFFFFFFFFFFFFFFC0
0007FFFFFFFFFFFFFFFFFFFFC0
000FFFFFFFFFFFFFFFFFFFFFC0
003FFFFFFFFFFFFFFFFFFFFFC0
007FFFFFFFFFFFFFFFFFFFFFC0
00FFFFFFFFFFFFFFFFFFFFFFC0
01FFFFFFFFFFFFFFFFFFFFFFC0
03FFFFFFFFFFFFFFFFFFFFFFC0
07FFFFFFFFFFFFFFFFFFFFFFC0
0FFFFFFFFFFFFFFFFFFFFFFFC0
0FFFFFFFFFFFFFFFFFFFFFFFC0
1FFFFFFFFFFFFFFFFFFFFFFFC0
3FFFFFFFFFFFFFFFFFFFFFFFC0
3FFFFFFFFFFFFFFFFFFFFFFFC0
3FFFFFFFFFFFFFFFFFFFFFFFC0
7FFFFF00000000000000000000
7FFFFC00000000000000000000
7FFFF800000000000000000000
FFFFF000000000000000000000
FFFFE000000000000000000000
FFFFE000000000000000000000
FFFFC000000000000000000000
FFFFC000000000000000000000
FFFFC000000000000000000000
FFFF8000000000000000000000
FFFF8000000000000000000000
FFFF8000000000000000000000
FFFF8000000000000000000000
FFFF8000000000000000000000
FFFFC000000000000000000000
FFFFC000000000000000000000
7FFFC000000000000000000000
7FFFE000000000000000000000
7FFFE000000000000000000000
7FFFF000000000000000000000
3FFFF800000000000000000000
3FFFFE00000000000000000000
1FFFFF80000000000000000000
1FFFFFFFFFFFFFFFFFFF800000
0FFFFFFFFFFFFFFFFFFFF80000
0FFFFFFFFFFFFFFFFFFFFF0000
07FFFFFFFFFFFFFFFFFFFFE000
03FFFFFFFFFFFFFFFFFFFFF000
01FFFFFFFFFFFFFFFFFFFFFC00
00FFFFFFFFFFFFFFFFFFFFFE00
007FFFFFFFFFFFFFFFFFFFFF00
003FFFFFFFFFFFFFFFFFFFFF80
000FFFFFFFFFFFFFFFFFFFFFC0
0003FFFFFFFFFFFFFFFFFFFFE0
0000FFFFFFFFFFFFFFFFFFFFE0
00003FFFFFFFFFFFFFFFFFFFF0
000001FFFFFFFFFFFFFFFFFFF0
00000000000000000003FFFFF8
000000000000000000007FFFF8
000000000000000000001FFFFC
000000000000000000000FFFFC
0000000000000000000007FFFC
0000000000000000000003FFFC
0000000000000000000003FFFC
0000000000000000000003FFFE
0000000000000000000001FFFE
0000000000000000000001FFFE
0000000000000000000001FFFE
0000000000000000000001FFFE
0000000000000000000001FFFE
0000000000000000000001FFFE
0000000000000000000001FFFE
0000000000000000000001FFFE
0000000000000000000001FFFE
0000000000000000000003FFFE
0000000000000000000003FFFE
0000000000000000000007FFFE
0000000000000000000007FFFC
000000000000000000000FFFFC
000000000000000000001FFFFC
000000000000000000007FFFFC
00000000000000000001FFFFF8
7FFFFFFFFFFFFFFFFFFFFFFFF8
7FFFFFFFFFFFFFFFFFFFFFFFF8
7FFFFFFFFFFFFFFFFFFFFFFFF0
7FFFFFFFFFFFFFFFFFFFFFFFF0
7FFFFFFFFFFFFFFFFFFFFFFFE0
7FFFFFFFFFFFFFFFFFFFFFFFC0
7FFFFFFFFFFFFFFFFFFFFFFFC0
7FFFFFFFFFFFFFFFFFFFFFFF80
7FFFFFFFFFFFFFFFFFFFFFFF00
7FFFFFFFFFFFFFFFFFFFFFFE00
7FFFFFFFFFFFFFFFFFFFFFFC00
7FFFFFFFFFFFFFFFFFFFFFF800
7FFFFFFFFFFFFFFFFFFFFFE000
7FFFFFFFFFFFFFFFFFFFFF8000
7FFFFFFFFFFFFFFFFFFFFE0000
7FFFFFFFFFFFFFFFFFFFF80000
7FFFFFFFFFFFFFFFFFFF000000
ENDCHAR
STARTCHAR t
ENCODING 116
SWIDTH 720 0
DWIDTH 95 0
BBX 89 96 3 0
BITMAP
FFFFFFFFFFFFFFFFFFFFFF80
FFFFFFFFFFFFFFFFFFFFFF80
FFFFFFFFFFFFFFFFFFFFFF80
FFFFFFFFFFFFFFFFFFFFFF80
FFFFFFFFFFFFFFFFFFFFFF80
FFFFFFFFFFFFFFFFFFFFFF80
FFFFFFFFFFFFFFFFFFFFFF80
FFFFFFFFFFFFFFFFFFFFFF80
FFFFFFFFFFFFFFFFFFFFFF80
FFFFFFFFFFFFFFFFFFFFFF80
FFFFFFFFFFFFFFFFFFFFFF80
FFFFFFFFFFFFFFFFFFFFFF80
FFFFFFFFFFFFFFFFFFFFFF80
FFFFFFFFFFFFFFFFFFFFFF80
FFFFFFFFFFFFFFFFFFFFFF80
FFFFFFFFFFFFFFFFFFFFFF80
FFFFFFFFFFFFFFFFFFFFFF80
000000000FFFF80000000000
000000000FFFF80000000000
000000000FFFF80000000000
000000000FFFF80000000000
000000000FFFF80000000000
000000000FFFF80000000000
000000000FFFF80000000000
000000000FFFF80000000000
000000000FFFF80000000000
000000000FFFF80000000000
000000000FFFF80000000000
000000000FFFF80000000000
000000000FFFF80000000000
000000000FFFF80000000000
000000000FFFF80000000000
000000000FFFF80000000000
000000000FFFF80000000000
000000000FFFF80000000000
000000000FFFF80000000000
000000000FFFF80000000000
000000000FFFF80000000000
000000000FFFF80000000000
000000000FFFF80000000000
000000000FFFF80000000000
000000000FFFF80000000000
000000000FFFF80000000000
000000000FFFF80000000000
000000000FFFF80000000000
000000000FFFF80000000000
000000000FFFF80000000000
000000000FFFF80000000000
000000000FFFF80000000000
000000000FFFF80000000000
000000000FFFF80000000000
000000000FFFF80000000000
000000000FFFF80000000000
000000000FFFF80000000000
000000000FFFF80000000000
000000000FFFF80000000000
000000000FFFF80000000000
000000000FFFF80000000000
000000000FFFF80000000000
000000000FFFF80000000000
000000000FFFF80000000000
000000000FFFF80000000000
000000000FFFF80000000000
000000000FFFF80000000000
000000000FFFF80000000000
000000000FFFF80000000000
000000000FFFF80000000000
000000000FFFF80000000000
000000000FFFF80000000000
000000000FFFF80000000000
000000000FFFF80000000000
000000000FFFF80000000000
000000000FFFF80000000000
000000000FFFF80000000000
000000000FFFF80000000000
000000000FFFF80000000000
000000000FFFF80000000000
000000000FFFF80000000000
000000000FFFF80000000000
000000000FFFF80000000000
000000000FFFF80000000000
000000000FFFF80000000000
000000000FFFF80000000000
000000000FFFF80000000000
000000000FFFF80000000000
000000000FFFF80000000000
000000000FFFF80000000000
000000000FFFF80000000000
000000000FFFF80000000000
000000000FFFF80000000000
000000000FFFF80000000000
000000000FFFF80000000000
000000000FFFF80000000000
000000000FFFF80000000000
000000000FFFF80000000000
000000000FFFF80000000000
ENDCHAR
STARTCHAR u
ENCODING 117
SWIDTH 889 0
DWIDTH 117 0
BBX 103 98 7 -2
BITMAP
FFFF800000000000000001FFFE
FFFF800000000000000001FFFE
FFFF800000000000000001FFFE
FFFF800000000000000001FFFE
FFFF800000000000000001FFFE
FFFF800000000000000001FFFE
FFFF800000000000000001FFFE
FFFF800000000000000001FFFE
FFFF800000000000000001FFFE
FFFF800000000000000001FFFE
FFFF800000000000000001FFFE
FFFF800000000000000001FFFE
FFFF800000000000000001FFFE
FFFF800000000000000001FFFE
FFFF800000000000000001FFFE
FFFF800000000000000001FFFE
FFFF800000000000000001FFFE
FFFF800000000000000001FFFE
FFFF800000000000000001FFFE
FFFF800000000000000001FFFE
FFFF800000000000000001FFFE
FFFF800000000000000001FFFE
FFFF800000000000000001FFFE
FFFF800000000000000001FFFE
FFFF800000000000000001FFFE
FFFF800000000000000001FFFE
FFFF800000000000000001FFFE
FFFF800000000000000001FFFE
FFFF800000000000000001FFFE
FFFF800000000000000001FFFE
FFFF800000000000000001FFFE
FFFF800000000000000001FFFE
FFFF800000000000000001FFFE
FFFF800000000000000001FFFE
FFFF800000000000000001FFFE
FFFF800000000000000001FFFE
FFFF800000000000000001FFFE
FFFF800000000000000001FFFE
FFFF800000000000000001FFFE
FFFF800000000000000001FFFE
FFFF800000000000000001FFFE
FFFF800000000000000001FFFE
FFFF800000000000000001FFFE
FFFF800000000000000001FFFE
FFFF800000000000000001FFFE
FFFF800000000000000001FFFE
FFFF800000000000000001FFFE
FFFF800000000000000001FFFE
FFFF800000000000000001FFFE
FFFF800000000000000001FFFE
FFFF800000000000000001FFFE
FFFF800000000000000001FFFE
FFFF800000000000000001FFFE
FFFF800000000000000001FFFE
FFFF800000000000000001FFFE
FFFF800000000000000001FFFE
FFFF800000000000000001FFFE
FFFF800000000000000001FFFE
FFFF800000000000000001FFFE
FFFF800000000000000001FFFE
FFFFC00000000000000001FFFE
FFFFC00000000000000003FFFE
FFFFC00000000000000003FFFE
FFFFC00000000000000003FFFE
7FFFC00000000000000003FFFE
7FFFE00000000000000003FFFE
7FFFE00000000000000007FFFC
7FFFE00000000000000007FFFC
7FFFF0000000000000000FFFFC
3FFFF0000000000000000FFFFC
3FFFF8000000000000001FFFF8
3FFFFC000000000000001FFFF8
3FFFFE000000000000003FFFF8
1FFFFE000000000000007FFFF8
1FFFFF80000000000000FFFFF0
0FFFFFC0000000000003FFFFF0
0FFFFFE0000000000007FFFFE0
07FFFFF800000000001FFFFFE0
07FFFFFF0000000000FFFFFFC0
03FFFFFFF000000007FFFFFFC0
03FFFFFFFFC00003FFFFFFFF80
01FFFFFFFFFFFFFFFFFFFFFF00
00FFFFFFFFFFFFFFFFFFFFFF00
00FFFFFFFFFFFFFFFFFFFFFE00
007FFFFFFFFFFFFFFFFFFFFC00
003FFFFFFFFFFFFFFFFFFFF800
001FFFFFFFFFFFFFFFFFFFF000
000FFFFFFFFFFFFFFFFFFFE000
0003FFFFFFFFFFFFFFFFFFC000
0001FFFFFFFFFFFFFFFFFF0000
00007FFFFFFFFFFFFFFFFE0000
00003FFFFFFFFFFFFFFFF80000
00000FFFFFFFFFFFFFFFE00000
000001FFFFFFFFFFFFFF000000
0000003FFFFFFFFFFFFC000000
00000007FFFFFFFFFFC0000000
000000003FFFFFFFF800000000
00000000001FFFF00000000000
ENDCHAR
STARTCHAR v
ENCODING 118
SWIDTH 989 0
DWIDTH 131 0
BBX 127 98 2 -2
BITMAP
FFFFF8000000000000000000001FFFFE
7FFFF8000000000000000000003FFFFC
7FFFFC000000000000000000003FFFF8
3FFFFC000000000000000000007FFFF0
1FFFFE000000000000000000007FFFF0
1FFFFF00000000000000000000FFFFE0
0FFFFF00000000000000000001FFFFE0
0FFFFF80000000000000000001FFFFC0
07FFFF80000000000000000003FFFF80
03FFFFC0000000000000000003FFFF80
03FFFFC0000000000000000007FFFF00
01FFFFE0000000000000000007FFFF00
01FFFFF000000000000000000FFFFE00
00FFFFF000000000000000001FFFFC00
007FFFF800000000000000001FFFFC00
007FFFF800000000000000003FFFF800
003FFFFC00000000000000003FFFF800
003FFFFE00000000000000007FFFF000
001FFFFE0000000000000000FFFFE000
000FFFFF0000000000000000FFFFE000
000FFFFF0000000000000001FFFFC000
0007FFFF8000000000000001FFFFC000
0007FFFFC000000000000003FFFF8000
0003FFFFC000000000000003FFFF0000
0001FFFFE000000000000007FFFF0000
0001FFFFE00000000000000FFFFE0000
0000FFFFF00000000000000FFFFE0000
0000FFFFF00000000000001FFFFC0000
00007FFFF80000000000001FFFF80000
00003FFFFC0000000000003FFFF80000
00003FFFFC0000000000007FFFF00000
00001FFFFE0000000000007FFFF00000
00001FFFFE000000000000FFFFE00000
00000FFFFF000000000000FFFFC00000
000007FFFF800000000001FFFFC00000
000007FFFF800000000003FFFF800000
000003FFFFC00000000003FFFF800000
000003FFFFC00000000007FFFF000000
000001FFFFE00000000007FFFE000000
000000FFFFF0000000000FFFFE000000
000000FFFFF0000000000FFFFC000000
0000007FFFF8000000001FFFFC000000
0000007FFFF8000000003FFFF8000000
0000003FFFFC000000003FFFF0000000
0000001FFFFC000000007FFFF0000000
0000001FFFFE000000007FFFE0000000
0000000FFFFF00000000FFFFE0000000
0000000FFFFF00000001FFFFC0000000
00000007FFFF80000001FFFF80000000
00000003FFFF80000003FFFF80000000
00000003FFFFC0000003FFFF00000000
00000001FFFFE0000007FFFF00000000
00000001FFFFE0000007FFFE00000000
00000000FFFFF000000FFFFC00000000
000000007FFFF000001FFFFC00000000
000000007FFFF800001FFFF800000000
000000003FFFFC00003FFFF800000000
000000003FFFFC00003FFFF000000000
000000001FFFFE00007FFFE000000000
000000001FFFFE0000FFFFE000000000
000000000FFFFF0000FFFFC000000000
0000000007FFFF0001FFFFC000000000
0000000007FFFF8001FFFF8000000000
0000000003FFFFC003FFFF0000000000
0000000003FFFFC003FFFF0000000000
0000000001FFFFE007FFFE0000000000
0000000000FFFFE00FFFFE0000000000
0000000000FFFFF00FFFFC0000000000
00000000007FFFF81FFFF80000000000
00000000007FFFF81FFFF80000000000
00000000003FFFFC3FFFF00000000000
00000000001FFFFC7FFFF00000000000
00000000001FFFFE7FFFE00000000000
00000000000FFFFFFFFFC00000000000
00000000000FFFFFFFFFC00000000000
000000000007FFFFFFFF800000000000
000000000003FFFFFFFF800000000000
000000000003FFFFFFFF000000000000
000000000001FFFFFFFE000000000000
000000000001FFFFFFFE000000000000
000000000000FFFFFFFC000000000000
0000000000007FFFFFFC000000000000
0000000000007FFFFFF8000000000000
0000000000003FFFFFF0000000000000
0000000000003FFFFFF0000000000000
0000000000001FFFFFE0000000000000
0000000000000FFFFFE0000000000000
0000000000000FFFFFC0000000000000
00000000000007FFFF80000000000000
00000000000007FFFF80000000000000
00000000000003FFFF00000000000000
00000000000001FFFF00000000000000
00000000000001FFFE00000000000000
00000000000000FFFC00000000000000
000000000000007FFC00000000000000
000000000000003FF000000000000000
000000000000001FE000000000000000
00000000000000010000000000000000
ENDCHAR
STARTCHAR w
ENCODING 119
SWIDTH 1268 0
DWIDTH 167 0
BBX 163 97 2 -1
BITMAP
FFFFF0000000FFFFF8000000000000000000FFFFE0
7FFFF80000007FFFF8000000000000000000FFFFE0
7FFFF80000003FFFFC000000000000000001FFFFC0
3FFFFC0000003FFFFC000000000000000001FFFFC0
3FFFFC0000001FFFFE000000000000000003FFFF80
1FFFFE0000001FFFFE000000000000000003FFFF00
1FFFFE0000000FFFFF000000000000000007FFFF00
0FFFFF0000000FFFFF000000000000000007FFFE00
0FFFFF00000007FFFF80000000000000000FFFFE00
07FFFF80000007FFFF80000000000000000FFFFC00
03FFFF80000003FFFFC0000000000000001FFFFC00
03FFFFC0000003FFFFC0000000000000001FFFF800
01FFFFC0000001FFFFE0000000000000003FFFF800
01FFFFE0000001FFFFE0000000000000003FFFF000
00FFFFF0000000FFFFF0000000000000007FFFF000
00FFFFF0000000FFFFF000000000000000FFFFE000
007FFFF80000007FFFF800000000000000FFFFC000
007FFFF80000007FFFF800000000000001FFFFC000
003FFFFC0000003FFFFC00000000000001FFFF8000
003FFFFC0000003FFFFC00000000000003FFFF8000
001FFFFE0000001FFFFE00000000000003FFFF0000
001FFFFE0000001FFFFE00000000000007FFFF0000
000FFFFF0000000FFFFF00000000000007FFFE0000
0007FFFF0000000FFFFF0000000000000FFFFE0000
0007FFFF80000007FFFF8000000000000FFFFC0000
0003FFFF80000003FFFF8000000000001FFFFC0000
0003FFFFC0000003FFFFC000000000001FFFF80000
0001FFFFC0000001FFFFC000000000003FFFF80000
0001FFFFE0000001FFFFE000000000003FFFF00000
0000FFFFE0000000FFFFE000000000007FFFE00000
0000FFFFF0000000FFFFF000000000007FFFE00000
00007FFFF00000007FFFF00000000000FFFFC00000
00007FFFF80000007FFFF80000000001FFFFC00000
00003FFFFC0000003FFFF80000000001FFFF800000
00001FFFFC0000003FFFFC0000000003FFFF800000
00001FFFFE0000001FFFFC0000000003FFFF000000
00000FFFFE0000001FFFFE0000000007FFFF000000
00000FFFFF0000000FFFFE0000000007FFFE000000
000007FFFF0000000FFFFF000000000FFFFE000000
000007FFFF80000007FFFF000000000FFFFC000000
000003FFFF80000007FFFF800000001FFFFC000000
000003FFFFC0000003FFFF800000001FFFF8000000
000001FFFFC0000003FFFFC00000003FFFF0000000
000001FFFFE0000001FFFFC00000003FFFF0000000
000000FFFFE0000001FFFFE00000007FFFE0000000
000000FFFFF0000000FFFFE00000007FFFE0000000
0000007FFFF0000000FFFFF0000000FFFFC0000000
0000003FFFF80000007FFFF0000000FFFFC0000000
0000003FFFF80000007FFFF8000001FFFF80000000
0000001FFFFC000000FFFFF8000003FFFF80000000
0000001FFFFC000000FFFFFC000003FFFF00000000
0000000FFFFE000001FFFFFC000007FFFF00000000
0000000FFFFE000001FFFFFE000007FFFE00000000
00000007FFFF000003FFFFFE00000FFFFC00000000
00000007FFFF800003FFFFFF00000FFFFC00000000
00000003FFFF800007FFFFFF00001FFFF800000000
00000003FFFFC00007FFFFFF80001FFFF800000000
00000001FFFFC0000FFFFFFF80003FFFF000000000
00000000FFFFE0001FFFFFFFC0003FFFF000000000
00000000FFFFE0001FFFFFFFC0007FFFE000000000
000000007FFFF0003FFFFFFFE0007FFFE000000000
000000007FFFF0003FFFFFFFE000FFFFC000000000
000000003FFFF8007FFFFFFFF000FFFFC000000000
000000003FFFF8007FFFFFFFF001FFFF8000000000
000000001FFFFC00FFFFBFFFF801FFFF8000000000
000000001FFFFC01FFFFBFFFF803FFFF0000000000
000000000FFFFE01FFFF1FFFFC07FFFE0000000000
000000000FFFFE03FFFF1FFFFC07FFFE0000000000
0000000007FFFF03FFFE0FFFFE0FFFFC0000000000
0000000007FFFF07FFFE07FFFE0FFFFC0000000000
0000000003FFFF87FFFC07FFFF1FFFF80000000000
0000000001FFFF8FFFFC03FFFF1FFFF80000000000
0000000001FFFFDFFFF803FFFFBFFFF00000000000
0000000000FFFFFFFFF801FFFFBFFFF00000000000
0000000000FFFFFFFFF001FFFFFFFFE00000000000
00000000007FFFFFFFF000FFFFFFFFE00000000000
00000000007FFFFFFFE000FFFFFFFFC00000000000
00000000003FFFFFFFC0007FFFFFFF800000000000
00000000003FFFFFFFC0007FFFFFFF800000000000
00000000001FFFFFFF80003FFFFFFF000000000000
00000000001FFFFFFF80003FFFFFFF000000000000
00000000000FFFFFFF00001FFFFFFE000000000000
00000000000FFFFFFF00001FFFFFFE000000000000
000000000007FFFFFE00000FFFFFFC000000000000
000000000003FFFFFE000007FFFFFC000000000000
000000000003FFFFFC000007FFFFF8000000000000
000000000001FFFFFC000003FFFFF8000000000000
000000000001FFFFF8000003FFFFF0000000000000
000000000000FFFFF8000001FFFFF0000000000000
000000000000FFFFF0000001FFFFE0000000000000
0000000000007FFFE0000000FFFFC0000000000000
0000000000007FFFE0000000FFFFC0000000000000
0000000000003FFFC00000007FFF80000000000000
0000000000001FFFC00000003FFF80000000000000
0000000000000FFF800000001FFF00000000000000
00000000000007FE000000000FFC00000000000000
00000000000001F80000000003F000000000000000
ENDCHAR
STARTCHAR x
ENCODING 120
SWIDTH 1000 0
DWIDTH 132 0
BBX 125 96 3 0
BITMAP
0FFFFFE000000000000000001FFFFF80
07FFFFF000000000000000003FFFFF00
03FFFFF800000000000000007FFFFE00
01FFFFFC0000000000000000FFFFF800
00FFFFFE0000000000000001FFFFF000
007FFFFF0000000000000003FFFFE000
003FFFFF8000000000000007FFFFC000
001FFFFFC00000000000000FFFFF8000
000FFFFFE00000000000001FFFFF0000
0007FFFFF00000000000003FFFFE0000
0003FFFFFC0000000000007FFFFC0000
0000FFFFFE000000000000FFFFF80000
00007FFFFF000000000001FFFFF00000
00003FFFFF800000000003FFFFE00000
00001FFFFFC00000000007FFFFC00000
00000FFFFFE0000000000FFFFF800000
000007FFFFF0000000001FFFFF000000
000003FFFFF8000000003FFFFE000000
000001FFFFFC000000007FFFFC000000
000000FFFFFE00000000FFFFF8000000
0000007FFFFF00000003FFFFF0000000
0000003FFFFF80000007FFFFE0000000
0000001FFFFFC000000FFFFFC0000000
0000000FFFFFE000001FFFFF80000000
00000007FFFFF000003FFFFF00000000
00000003FFFFF800007FFFFE00000000
00000001FFFFFC0000FFFFFC00000000
00000000FFFFFE0001FFFFF800000000
000000007FFFFF0003FFFFF000000000
000000003FFFFF8007FFFFE000000000
000000001FFFFFC00FFFFF8000000000
000000000FFFFFE01FFFFF0000000000
0000000007FFFFF03FFFFE0000000000
0000000003FFFFF87FFFFC0000000000
0000000001FFFFFCFFFFF80000000000
0000000000FFFFFFFFFFF00000000000
00000000007FFFFFFFFFE00000000000
00000000003FFFFFFFFFC00000000000
00000000000FFFFFFFFF800000000000
000000000007FFFFFFFF000000000000
000000000003FFFFFFFE000000000000
000000000001FFFFFFFC000000000000
000000000000FFFFFFF8000000000000
0000000000007FFFFFF0000000000000
0000000000003FFFFFE0000000000000
0000000000001FFFFFC0000000000000
0000000000001FFFFFC0000000000000
0000000000003FFFFFE0000000000000
0000000000007FFFFFF0000000000000
000000000000FFFFFFF8000000000000
000000000001FFFFFFFC000000000000
000000000003FFFFFFFE000000000000
000000000007FFFFFFFF000000000000
00000000000FFFFFFFFF800000000000
00000000001FFFFFFFFFC00000000000
00000000003FFFFFFFFFE00000000000
00000000007FFFFFFFFFF00000000000
0000000000FFFFFBFFFFF80000000000
0000000001FFFFF1FFFFFC0000000000
0000000003FFFFE0FFFFFE0000000000
0000000007FFFFC07FFFFF0000000000
000000001FFFFF803FFFFF8000000000
000000003FFFFF001FFFFFC000000000
000000007FFFFE000FFFFFE000000000
00000000FFFFFC0007FFFFF000000000
00000001FFFFF80003FFFFFC00000000
00000003FFFFF00000FFFFFE00000000
00000007FFFFE000007FFFFF00000000
0000000FFFFFC000003FFFFF80000000
0000001FFFFF8000001FFFFFC0000000
0000003FFFFF0000000FFFFFE0000000
0000007FFFFE00000007FFFFF0000000
000000FFFFFC00000003FFFFF8000000
000001FFFFF800000001FFFFFC000000
000003FFFFF000000000FFFFFE000000
000007FFFFE0000000007FFFFF000000
00000FFFFFC0000000003FFFFF800000
00001FFFFF80000000001FFFFFC00000
00003FFFFE00000000000FFFFFE00000
00007FFFFC000000000007FFFFF00000
0000FFFFF8000000000003FFFFF80000
0001FFFFF0000000000001FFFFFC0000
0003FFFFE0000000000000FFFFFE0000
0007FFFFC00000000000007FFFFF0000
000FFFFF800000000000003FFFFF8000
001FFFFF000000000000001FFFFFC000
003FFFFE000000000000000FFFFFE000
007FFFFC0000000000000007FFFFF000
00FFFFF80000000000000003FFFFFC00
01FFFFF00000000000000001FFFFFE00
03FFFFE00000000000000000FFFFFF00
07FFFFC000000000000000007FFFFF80
0FFFFF8000000000000000003FFFFFC0
3FFFFF0000000000000000001FFFFFE0
7FFFFE0000000000000000000FFFFFF0
FFFFFC00000000000000000007FFFFF8
ENDCHAR
ENDFONT
